<?xml version="1.0" standalone="no"?>
<!DOCTYPE svg PUBLIC "-//W3C//DTD SVG 1.1//EN" "http://www.w3.org/Graphics/SVG/1.1/DTD/svg11.dtd" >
<svg>
<metadata>
Created by FontForge 20120731 at Fri Apr 19 10:01:33 2019
 By www-data
Copyright (c) 2017 by www.fontiran.com (Moslem Ebrahimi). All rights reserved.
</metadata>
<defs>
<font id="IRANSans-Bold" horiz-adv-x="0" >
  <font-face 
    font-family="IRANSans"
    font-weight="700"
    font-stretch="normal"
    units-per-em="2300"
    panose-1="2 11 5 6 3 8 4 2 2 4"
    ascent="1840"
    descent="-460"
    x-height="1215"
    cap-height="1635"
    bbox="-1168 -1354 3961.64 2817.43"
    underline-thickness="100"
    underline-position="-550"
    unicode-range="U+001D-FEFF"
  />
<missing-glyph horiz-adv-x="1229" 
d="M102 -362v1806h1024v-1806h-1024zM217 -248h795v1577h-795v-1577z" />
    <glyph glyph-name="uni06440627.isol" unicode="&#xfedf;&#xfe8e;" horiz-adv-x="1264" arabic-form="isolated" 
d="M1222 599q1 -12 1.5 -25.5t0.5 -25.5q0 -69 -15.5 -137.5t-42 -130.5t-62 -115.5t-75.5 -93.5q-58 -53 -129 -91.5t-150 -64.5t-162.5 -38.5t-165.5 -12.5q-48 0 -104 5t-120 14l54 314q78 -10 129.5 -15t86.5 -5q18 0 47.5 2.5t50.5 4.5q-10 83 -38.5 170t-68 173
t-87 168t-95.5 155t-93.5 134.5t-81 106t-57.5 70.5t-23 27l231 237q84 -109 154.5 -219.5t128.5 -217t104 -206.5t81 -188t59.5 -162t39.5 -128q26 16 50.5 41.5t43.5 59t30.5 74t11.5 85.5q0 3 -0.5 8t-2.5 18.5t-6 40t-12 72t-19.5 113.5t-29 166.5t-40.5 230t-53 303.5
l302 73q0 -2 7 -45.5t18 -117t25 -170.5t28 -206.5t27 -225t22 -225.5z" />
    <glyph glyph-name="uni06440627.fina" unicode="&#xfee0;&#xfe8e;" horiz-adv-x="1399" arabic-form="final" 
d="M1419 256v-316h-60q-108 0 -182.5 40t-121.5 119q-6 -8 -13 -15l-13 -13q-58 -53 -129 -91.5t-150 -64.5t-162.5 -38.5t-165.5 -12.5q-48 0 -104 5t-120 14l54 314q78 -10 129.5 -15t86.5 -5q18 0 47.5 2.5t50.5 4.5q-10 83 -38.5 170t-68 173t-87 168t-95.5 155
t-93.5 134.5t-81 106t-57.5 70.5t-23 27l231 237q84 -109 154.5 -219.5t128.5 -217t104 -206.5t81 -188t59.5 -162t39.5 -128q26 16 50.5 41.5t43.5 59t30.5 74t11.5 85.5q0 3 -0.5 8t-2.5 18.5t-6 40t-12 72t-19.5 113.5t-29 166.5t-40.5 230t-53 303.5l302 73
q0 -2 6.5 -41.5t16.5 -106.5t23 -156t26.5 -191t26 -211t22.5 -215q12 -87 24.5 -162.5t32 -131t49.5 -87t77 -31.5h20z" />
    <glyph glyph-name="uni06440623.isol" unicode="&#xfedf;&#xfe84;" horiz-adv-x="1270" arabic-form="isolated" 
d="M1222 599q1 -12 1.5 -25.5t0.5 -25.5q0 -69 -15.5 -137.5t-42 -130.5t-62 -115.5t-75.5 -93.5q-58 -53 -129 -91.5t-150 -64.5t-162.5 -38.5t-165.5 -12.5q-48 0 -104 5t-120 14l54 314q78 -10 129.5 -15t86.5 -5q18 0 47.5 2.5t50.5 4.5q-10 83 -38.5 170t-68 173
t-87 168t-95.5 155t-93.5 134.5t-81 106t-57.5 70.5t-23 27l231 237q84 -109 154.5 -219.5t128.5 -217t104 -206.5t81 -188t59.5 -162t39.5 -128q26 16 50.5 41.5t43.5 59t30.5 74t11.5 85.5q0 3 -0.5 8t-2.5 18.5t-6 40t-12 72t-19.5 113.5t-29 166.5t-40.5 230t-53 303.5
l302 73q0 -2 7 -45.5t18 -117t25 -170.5t28 -206.5t27 -225t22 -225.5zM329 1873q-26 4 -46.5 8t-39 6.5t-36 1t-36.5 -8.5q-20 -8 -36 -21t-26.5 -31t-12.5 -39.5t7 -46.5q6 -18 21.5 -29.5t33.5 -18.5t37 -8t33 2t23.5 6t26.5 10.5t48 23.5t89 46l76 -102l-257 -150
l-240 -133l-62 113l166 93q-34 20 -60.5 50t-41.5 65q-17 42 -14.5 85t20.5 82t49 70.5t72 49.5q25 11 51 15.5t53 4.5q13 0 25.5 -1t28 -3.5t36 -7t49.5 -11.5z" />
    <glyph glyph-name="uni06440623.fina" unicode="&#xfee0;&#xfe84;" horiz-adv-x="1399" arabic-form="final" 
d="M1419 256v-316h-60q-108 0 -182.5 40t-121.5 119q-6 -8 -13 -15l-13 -13q-58 -53 -129 -91.5t-150 -64.5t-162.5 -38.5t-165.5 -12.5q-48 0 -104 5t-120 14l54 314q78 -10 129.5 -15t86.5 -5q18 0 47.5 2.5t50.5 4.5q-10 83 -38.5 170t-68 173t-87 168t-95.5 155
t-93.5 134.5t-81 106t-57.5 70.5t-23 27l231 237q84 -109 154.5 -219.5t128.5 -217t104 -206.5t81 -188t59.5 -162t39.5 -128q26 16 50.5 41.5t43.5 59t30.5 74t11.5 85.5q0 3 -0.5 8t-2.5 18.5t-6 40t-12 72t-19.5 113.5t-29 166.5t-40.5 230t-53 303.5l302 73
q0 -2 6.5 -41.5t16.5 -106.5t23 -156t26.5 -191t26 -211t22.5 -215q12 -87 24.5 -162.5t32 -131t49.5 -87t77 -31.5h20zM329 1873q-26 4 -46.5 8t-39 6.5t-36 1t-36.5 -8.5q-20 -8 -36 -21t-26.5 -31t-12.5 -39.5t7 -46.5q6 -18 21.5 -29.5t33.5 -18.5t37 -8t33 2t23.5 6
t26.5 10.5t48 23.5t89 46l76 -102l-257 -150l-240 -133l-62 113l166 93q-34 20 -60.5 50t-41.5 65q-17 42 -14.5 85t20.5 82t49 70.5t72 49.5q25 11 51 15.5t53 4.5q13 0 25.5 -1t28 -3.5t36 -7t49.5 -11.5z" />
    <glyph glyph-name="uni06440625.isol" unicode="&#xfedf;&#xfe88;" horiz-adv-x="1270" arabic-form="isolated" 
d="M1222 599q1 -12 1.5 -25.5t0.5 -25.5q0 -69 -15.5 -137.5t-42 -130.5t-62 -115.5t-75.5 -93.5q-58 -53 -129 -91.5t-150 -64.5t-162.5 -38.5t-165.5 -12.5q-48 0 -104 5t-120 14l54 314q78 -10 129.5 -15t86.5 -5q18 0 47.5 2.5t50.5 4.5q-10 83 -38.5 170t-68 173
t-87 168t-95.5 155t-93.5 134.5t-81 106t-57.5 70.5t-23 27l231 237q84 -109 154.5 -219.5t128.5 -217t104 -206.5t81 -188t59.5 -162t39.5 -128q26 16 50.5 41.5t43.5 59t30.5 74t11.5 85.5q0 3 -0.5 8t-2.5 18.5t-6 40t-12 72t-19.5 113.5t-29 166.5t-40.5 230t-53 303.5
l302 73q0 -2 7 -45.5t18 -117t25 -170.5t28 -206.5t27 -225t22 -225.5zM510 -371q-26 4 -46.5 8t-39 6.5t-36 1t-36.5 -8.5q-20 -8 -36 -21t-26.5 -31t-12.5 -39.5t7 -46.5q6 -18 21.5 -29.5t33.5 -18.5t37 -8t33 2t23.5 6t26.5 10.5t48 23.5t89 46l76 -102l-257 -150
l-240 -133l-62 113l166 93q-34 20 -60.5 50t-41.5 65q-17 42 -14.5 85t20.5 82t49 70.5t72 49.5q25 11 51 15.5t53 4.5q13 0 25.5 -1t28 -3.5t36 -7t49.5 -11.5z" />
    <glyph glyph-name="uni06440625.fina" unicode="&#xfee0;&#xfe88;" horiz-adv-x="1399" arabic-form="final" 
d="M1419 256v-316h-60q-108 0 -182.5 40t-121.5 119q-6 -8 -13 -15l-13 -13q-58 -53 -129 -91.5t-150 -64.5t-162.5 -38.5t-165.5 -12.5q-48 0 -104 5t-120 14l54 314q78 -10 129.5 -15t86.5 -5q18 0 47.5 2.5t50.5 4.5q-10 83 -38.5 170t-68 173t-87 168t-95.5 155
t-93.5 134.5t-81 106t-57.5 70.5t-23 27l231 237q84 -109 154.5 -219.5t128.5 -217t104 -206.5t81 -188t59.5 -162t39.5 -128q26 16 50.5 41.5t43.5 59t30.5 74t11.5 85.5q0 3 -0.5 8t-2.5 18.5t-6 40t-12 72t-19.5 113.5t-29 166.5t-40.5 230t-53 303.5l302 73
q0 -2 6.5 -41.5t16.5 -106.5t23 -156t26.5 -191t26 -211t22.5 -215q12 -87 24.5 -162.5t32 -131t49.5 -87t77 -31.5h20zM525 -381q-26 4 -46.5 8t-39 6.5t-36 1t-36.5 -8.5q-20 -8 -36 -21t-26.5 -31t-12.5 -39.5t7 -46.5q6 -18 21.5 -29.5t33.5 -18.5t37 -8t33 2t23.5 6
t26.5 10.5t48 23.5t89 46l76 -102l-257 -150l-240 -133l-62 113l166 93q-34 20 -60.5 50t-41.5 65q-17 42 -14.5 85t20.5 82t49 70.5t72 49.5q25 11 51 15.5t53 4.5q13 0 25.5 -1t28 -3.5t36 -7t49.5 -11.5z" />
    <glyph glyph-name="uni06440622.isol" unicode="&#xfedf;&#xfe82;" horiz-adv-x="1270" arabic-form="isolated" 
d="M1222 599q1 -12 1.5 -25.5t0.5 -25.5q0 -69 -15.5 -137.5t-42 -130.5t-62 -115.5t-75.5 -93.5q-58 -53 -129 -91.5t-150 -64.5t-162.5 -38.5t-165.5 -12.5q-48 0 -104 5t-120 14l54 314q78 -10 129.5 -15t86.5 -5q18 0 47.5 2.5t50.5 4.5q-10 83 -38.5 170t-68 173
t-87 168t-95.5 155t-93.5 134.5t-81 106t-57.5 70.5t-23 27l231 237q84 -109 154.5 -219.5t128.5 -217t104 -206.5t81 -188t59.5 -162t39.5 -128q26 16 50.5 41.5t43.5 59t30.5 74t11.5 85.5q0 3 -0.5 8t-2.5 18.5t-6 40t-12 72t-19.5 113.5t-29 166.5t-40.5 230t-53 303.5
l302 73q0 -2 7 -45.5t18 -117t25 -170.5t28 -206.5t27 -225t22 -225.5zM-156 1462q9 50 35 96t62 81t79.5 55.5t89.5 20.5q47 0 83.5 -11t68.5 -25q43 -18 75.5 -23.5t60 3.5t53 32t54.5 61l137 -88q-1 -3 -11 -17t-27.5 -34t-42.5 -42.5t-56 -42t-67 -32.5t-76 -14t-73 9
t-64 22t-63.5 21.5t-70.5 8.5q-26 -1 -42 -16.5t-25 -36.5t-13.5 -43t-8.5 -34z" />
    <glyph glyph-name="uni06440622.fina" unicode="&#xfee0;&#xfe82;" horiz-adv-x="1399" arabic-form="final" 
d="M1419 256v-316h-60q-108 0 -182.5 40t-121.5 119q-6 -8 -13 -15l-13 -13q-58 -53 -129 -91.5t-150 -64.5t-162.5 -38.5t-165.5 -12.5q-48 0 -104 5t-120 14l54 314q78 -10 129.5 -15t86.5 -5q18 0 47.5 2.5t50.5 4.5q-10 83 -38.5 170t-68 173t-87 168t-95.5 155
t-93.5 134.5t-81 106t-57.5 70.5t-23 27l231 237q84 -109 154.5 -219.5t128.5 -217t104 -206.5t81 -188t59.5 -162t39.5 -128q26 16 50.5 41.5t43.5 59t30.5 74t11.5 85.5q0 3 -0.5 8t-2.5 18.5t-6 40t-12 72t-19.5 113.5t-29 166.5t-40.5 230t-53 303.5l302 73
q0 -2 6.5 -41.5t16.5 -106.5t23 -156t26.5 -191t26 -211t22.5 -215q12 -87 24.5 -162.5t32 -131t49.5 -87t77 -31.5h20zM-156 1466q9 50 35 96t62 81t79.5 55.5t89.5 20.5q47 0 83.5 -11t68.5 -25q43 -18 75.5 -23.5t60 3.5t53 32t54.5 61l137 -88q-1 -3 -11 -17t-27.5 -34
t-42.5 -42.5t-56 -42t-67 -32.5t-76 -14t-73 9t-64 22t-63.5 21.5t-70.5 8.5q-26 -1 -42 -16.5t-25 -36.5t-13.5 -43t-8.5 -34z" />
    <glyph glyph-name="uni06440671.isol" unicode="&#xfedf;&#xfb51;" horiz-adv-x="1270" 
d="M1222 599q1 -12 1.5 -25.5t0.5 -25.5q0 -69 -15.5 -137.5t-42 -130.5t-62 -115.5t-75.5 -93.5q-58 -53 -129 -91.5t-150 -64.5t-162.5 -38.5t-165.5 -12.5q-48 0 -104 5t-120 14l54 314q78 -10 129.5 -15t86.5 -5q18 0 47.5 2.5t50.5 4.5q-10 83 -38.5 170t-68 173
t-87 168t-95.5 155t-93.5 134.5t-81 106t-57.5 70.5t-23 27l231 237q84 -109 154.5 -219.5t128.5 -217t104 -206.5t81 -188t59.5 -162t39.5 -128q26 16 50.5 41.5t43.5 59t30.5 74t11.5 85.5q0 3 -0.5 8t-2.5 18.5t-6 40t-12 72t-19.5 113.5t-29 166.5t-40.5 230t-53 303.5
l302 73q0 -2 7 -45.5t18 -117t25 -170.5t28 -206.5t27 -225t22 -225.5zM530 1689q-2 19 -13.5 29t-27 13.5t-31.5 3t-26 -1.5q-27 -4 -50 -16t-43 -29t-36.5 -37.5t-31.5 -41.5q20 -6 47.5 -9t57 -1t58 8t50.5 17t35 27t11 38zM622 1691q-2 -58 -26.5 -95t-59.5 -59
t-73.5 -31t-66.5 -11q-83 -7 -134 5t-84 29t-55.5 32t-48.5 14q-12 0 -25 -5.5t-26 -14t-25.5 -18t-22.5 -18.5l-35 103q30 21 60.5 39t67.5 20q33 2 57 -6.5t47 -24.5q24 40 53.5 76.5t64 64t74.5 43.5t87 16q34 0 65 -12.5t54 -34t37 -50.5t15 -62z" />
    <glyph glyph-name="uni06440671.fina" unicode="&#xfee0;&#xfb51;" horiz-adv-x="1399" 
d="M1419 256v-316h-60q-108 0 -182.5 40t-121.5 119q-6 -8 -13 -15l-13 -13q-58 -53 -129 -91.5t-150 -64.5t-162.5 -38.5t-165.5 -12.5q-48 0 -104 5t-120 14l54 314q78 -10 129.5 -15t86.5 -5q18 0 47.5 2.5t50.5 4.5q-10 83 -38.5 170t-68 173t-87 168t-95.5 155
t-93.5 134.5t-81 106t-57.5 70.5t-23 27l231 237q84 -109 154.5 -219.5t128.5 -217t104 -206.5t81 -188t59.5 -162t39.5 -128q26 16 50.5 41.5t43.5 59t30.5 74t11.5 85.5q0 3 -0.5 8t-2.5 18.5t-6 40t-12 72t-19.5 113.5t-29 166.5t-40.5 230t-53 303.5l302 73
q0 -2 6.5 -41.5t16.5 -106.5t23 -156t26.5 -191t26 -211t22.5 -215q12 -87 24.5 -162.5t32 -131t49.5 -87t77 -31.5h20zM530 1689q-2 19 -13.5 29t-27 13.5t-31.5 3t-26 -1.5q-27 -4 -50 -16t-43 -29t-36.5 -37.5t-31.5 -41.5q20 -6 47.5 -9t57 -1t58 8t50.5 17t35 27t11 38
zM622 1691q-2 -58 -26.5 -95t-59.5 -59t-73.5 -31t-66.5 -11q-83 -7 -134 5t-84 29t-55.5 32t-48.5 14q-12 0 -25 -5.5t-26 -14t-25.5 -18t-22.5 -18.5l-35 103q30 21 60.5 39t67.5 20q33 2 57 -6.5t47 -24.5q24 40 53.5 76.5t64 64t74.5 43.5t87 16q34 0 65 -12.5t54 -34
t37 -50.5t15 -62z" />
    <glyph glyph-name="allah" unicode="&#xfedf;&#xfee0;&#x651;&#x64e;&#xfeea;" horiz-adv-x="2052" arabic-form="isolated" 
d="M1064 -68q-22 0 -63 3.5t-89 19.5t-97.5 48.5t-87.5 90.5q-35 -3 -70 -4.5t-66 -1.5h-29q-15 0 -29 1q-95 4 -180 27t-148.5 66.5t-99.5 109t-31 154.5q4 69 32.5 129t72 110.5t97 92.5t108.5 75t106 57.5t90 40.5q-5 70 -6 101t-1 39l313 48l72 -802q3 -35 24 -53.5
t46 -26.5t46 -9t26 -1q12 0 26.5 4.5t29 15t26 27.5t17.5 41q0 43 -3.5 124t-9.5 194t-14.5 255t-18.5 307l318 33l40 -555q6 -82 11 -150t8 -116.5t5 -76t2 -28.5q2 -15 6.5 -29.5t15.5 -25t29.5 -17t48.5 -6.5q15 0 29 3t25.5 13.5t18.5 29t7 50.5q0 3 -36 429l-43 511
l312 71q38 -504 57 -771.5t18 -306.5q-1 -77 -28.5 -138t-77.5 -104t-120 -66t-157 -24q-41 0 -74 4.5t-63 13.5t-59 21.5t-62 27.5q-72 -46 -152 -61t-168 -15zM1213 1368q-43 0 -72 17t-47 45t-25.5 64t-7.5 74.5t7.5 75.5t19.5 68l116 -27q-11 -45 -15 -67t-5 -35
q-2 -30 4 -51t25 -22q23 -1 38 22.5t23 56t10 65.5t1 51l118 -2q5 -28 9 -48t7 -34.5t5.5 -25t5.5 -19.5q3 -10 8 -21t12 -20.5t14.5 -15.5t16.5 -6q19 0 27 13.5t7.5 35.5t-7.5 49t-17.5 54t-22.5 50.5t-23 39.5l101 66q31 -42 52.5 -98.5t28.5 -114.5t-3.5 -110.5
t-44.5 -86.5q-22 -22 -55 -31.5t-67 -6.5t-64 19t-46 46q-32 -42 -67.5 -56t-66.5 -14zM1262 1819q25 90 25 163q0 63 -26 164l127 40q11 -45 18.5 -93.5t7.5 -96.5q0 -45 -5.5 -98t-19.5 -119zM624 407q-6 42 -11.5 93.5t-10.5 117.5q-1 -1 -2 -1q-37 -15 -82.5 -36.5
t-84.5 -45.5t-63 -48t-18 -43q4 -15 34.5 -23t72 -11t86.5 -3h79z" />
    <glyph glyph-name="riyal" unicode="&#x631;&#xfef3;&#xfe8e;&#x644;" horiz-adv-x="3340" arabic-form="isolated" 
d="M394 294q-14 -26 -26 -54t-23 -57q-18 -51 -32.5 -114t-10.5 -129q3 -57 23 -104t51.5 -85t71 -66t81 -47t82.5 -28.5t75 -9.5q43 0 92 9.5t98 29.5t94 50.5t80 74t55.5 99.5t20.5 126q0 79 -4.5 186.5t-11 229t-15.5 250.5t-18 252q-11 148 -22.5 294.5t-25.5 307.5
l319 74q7 -172 13.5 -328t11.5 -312q5 -130 9.5 -266t8.5 -263.5t6 -238t2 -189.5q0 -132 -32 -235.5t-86 -181.5t-125.5 -132t-150 -88t-159.5 -49.5t-154 -15.5t-151 16.5t-152 50.5t-140 86t-115 122.5t-77 160t-26 198.5q2 121 19.5 212.5t38.5 154.5q13 38 27 70.5
t28 58.5l250 -120v0zM1996 256h135q42 0 92.5 7t94 22.5t73 42t29.5 65.5q0 24 -14 71.5t-37 106t-52 122.5t-58 122l286 142q28 -63 55.5 -134t49.5 -144t35.5 -145.5t13.5 -138.5q0 -120 -40 -206t-112 -141.5t-172 -81.5t-220 -26h-159v316zM3206 673q21 -62 44.5 -135.5
t43 -150.5t32.5 -153.5t13 -143.5q0 -94 -25.5 -183.5t-72 -173.5t-110.5 -161t-142 -145.5t-167 -127t-184 -105.5l-182 253q72 36 145.5 81.5t141 97.5t126 109t102 116t68.5 119.5t25 118.5q0 42 -11.5 91t-31.5 105.5t-46.5 120t-57.5 135.5l289 132v0zM1987 -60
q-125 0 -212 33.5t-142 92.5t-79.5 139.5t-24.5 174.5q0 48 2 119.5t2 165.5t-1 206.5t-5.5 225.5t-13 217t-23.5 181l299 91q13 -66 21.5 -155.5t13.5 -187.5t7.5 -197t3.5 -184q1 -75 -2.5 -157.5t-5.5 -158t1.5 -136.5t18.5 -93q9 -23 22.5 -35t31.5 -18t39.5 -7t47.5 -1
h27v-316h-28zM2083 -353l-188 -188l-194 193l192 193l190 -190l188 188l194 -193l-192 -193z" />
    <glyph glyph-name="yeye" unicode="&#xfef4;&#xfef4;" horiz-adv-x="1796" 
d="M1794 -403l-192 -193l-190 190l-188 -188l-194 193l192 193l190 -190l188 188zM792 -489l-192 -193l-190 190l-188 -188l-194 193l192 193l190 -190l188 188zM1773 -60q-96 0 -164.5 29.5t-117.5 76.5q-45 -30 -103.5 -50t-124.5 -32.5t-136 -18t-138 -5.5h-136
q-96 0 -164.5 29.5t-117.5 76.5q-45 -30 -103.5 -50t-124.5 -32.5t-136 -18t-138 -5.5h-89v316h89q72 0 138.5 6t117.5 25.5t82.5 55t33.5 94.5q1 22 0.5 36.5t-5.5 35t-14.5 54t-26.5 94.5l291 82q19 -48 35 -127t24 -173q2 -30 7 -62t16.5 -59t31.5 -44.5t52 -17.5h137
q72 0 138.5 6t117.5 25.5t82.5 55t33.5 94.5q1 22 0.5 36.5t-5.5 35t-14.5 54t-26.5 94.5l291 82q19 -48 35 -127t24 -173q2 -30 7 -62t16.5 -59t31.5 -44.5t52 -17.5h44v-316h-43z" />
    <glyph glyph-name="yeye1" unicode="&#xfef3;&#xfef4;" horiz-adv-x="1863" 
d="M1683 -388l-192 -193l-190 190l-188 -188l-194 193l192 193l190 -190l188 188zM782 -489l-192 -193l-190 190l-188 -188l-194 193l192 193l190 -190l188 188zM944 257h159q45 0 99 4t104 13t90.5 24.5t59.5 39.5q11 17 11 46q0 43 -20.5 102t-48.5 120t-57.5 117
t-47.5 93l285 140q31 -54 60 -127.5t52 -151t37 -152t14 -129.5q0 -101 -36 -185q-42 -94 -115 -155.5t-175 -90.5q-30 -8 -75 -13t-91 -7.5t-87 -3t-64 -0.5h-154l-91 -1q-96 0 -164.5 29.5t-117.5 76.5q-45 -30 -103.5 -50t-124.5 -32.5t-136 -18t-138 -5.5h-90v316h90
q72 0 138.5 6t117.5 25.5t82.5 55t33.5 94.5q1 22 0.5 36.5t-5.5 35t-14.5 54t-26.5 94.5l291 82q19 -48 35 -127t24 -173q2 -30 7 -62t16.5 -59t31.5 -44.5t52 -17.5q67 1 92 1z" />
    <glyph glyph-name="uni0621" unicode="&#x621;" horiz-adv-x="1019" arabic-form="isolated" 
d="M734 509q-34 10 -66.5 18.5t-70.5 13.5q-37 4 -77.5 -3.5t-73 -26t-51.5 -47.5t-12 -69v1q7 -24 28.5 -47.5t52 -40.5t67.5 -24.5t76 -0.5q40 8 86.5 25.5t88.5 36.5q24 11 48 22.5t48 24.5l60 -220q-27 -13 -54 -25.5t-63.5 -29t-88 -38t-128.5 -52t-184.5 -72
t-254.5 -97.5l-45 219l199 82q-38 37 -64 81.5t-40 92.5q-18 65 -5.5 131t48 123t90 99t119.5 60q73 19 158 5.5t201 -54.5l-92 -188v0z" />
    <glyph glyph-name="uni0627" unicode="&#x627;" horiz-adv-x="536" arabic-form="isolated" 
d="M143 -63q5 82 10 170t8.5 174t4.5 167t-2 149q-6 142 -11.5 249.5t-11 190.5t-11 145.5t-11.5 114.5t-13 97.5t-15 94.5l309 102q22 -134 35.5 -270t20.5 -260.5t9.5 -231.5t2.5 -183q0 -69 -0.5 -149t-2 -166t-4.5 -174t-9 -172l-309 -48v0z" />
    <glyph glyph-name="uni0627.fina" unicode="&#x627;" horiz-adv-x="624" arabic-form="final" 
d="M616 -60q-125 0 -212 33.5t-142 92.5t-79.5 139.5t-24.5 174.5q0 48 2 119.5t2 165.5t-1 206.5t-5.5 225.5t-13 217t-23.5 181l299 91q13 -66 21.5 -155.5t13.5 -187.5t7.5 -197t3.5 -184q1 -75 -2.5 -157.5t-5.5 -158t1.5 -136.5t18.5 -93q9 -23 22.5 -35t31.5 -18
t39.5 -7t47.5 -1h27v-316h-28z" />
    <glyph glyph-name="uni062D" unicode="&#x62d;" horiz-adv-x="1647" arabic-form="isolated" 
d="M1525 -595q-60 -54 -139 -100.5t-169.5 -81t-190.5 -54t-202 -19.5q-167 0 -311.5 46.5t-251.5 136.5t-168.5 222.5t-61.5 305.5q0 108 44.5 203.5t122 177t180.5 148t220.5 115t242 78.5t244.5 40q-58 19 -119.5 51t-122.5 63t-120 53t-111 20q-50 -2 -95 -20t-85 -45.5
t-75.5 -62.5t-66.5 -70l-221 161q51 73 102.5 136.5t113.5 111t141 75.5t185 31q63 2 125 -15t122.5 -45.5t118.5 -64t113 -71.5q54 -36 95.5 -64.5t76.5 -51t65 -39.5t61 -30t65.5 -23t77.5 -18l-95 -333l-93 2q-71 0 -152.5 -9.5t-167.5 -27.5t-172.5 -44.5t-166.5 -60.5
t-149 -75.5t-121 -90t-82.5 -103t-32.5 -115.5q-2 -67 20 -121t62 -95.5t94.5 -71.5t118 -49t132 -28t136.5 -9t133.5 8.5t130 28t128 51.5t128.5 80l143 -237v0z" />
    <glyph glyph-name="uni062D.init" unicode="&#x62d;" horiz-adv-x="1587" arabic-form="initial" 
d="M-20 256h211q162 0 297.5 19.5t253.5 52.5t223.5 76.5t207.5 90.5q-68 19 -136.5 47t-137 54t-136.5 44.5t-135 18.5q-46 0 -90.5 -25t-80.5 -57t-60 -62.5t-30 -41.5l-231 149q38 67 90 131t114.5 113.5t135 79.5t152.5 30q59 0 118 -12.5t117.5 -32.5t115.5 -45.5
t113 -51.5q53 -25 107 -49.5t111 -45t118 -33.5t129 -14l-25 -307l-142 -68q-87 -42 -173 -86.5t-175 -86t-184 -79t-199 -65t-220 -44t-248 -16.5h-211v316z" />
    <glyph glyph-name="uni062D.medi" unicode="&#x62d;" horiz-adv-x="1667" arabic-form="medial" 
d="M-20 256h203q73 0 154.5 10t166.5 27t171 40.5t167.5 50.5t156 57t137.5 60q-62 15 -138 42t-154 53t-151.5 44.5t-131.5 17.5q-37 -1 -71.5 -15.5t-64 -36t-53 -46t-40.5 -46t-27 -36.5l-9 -14l-237 136q40 74 96 142.5t122 121t138.5 83.5t145.5 30q54 -1 107.5 -13
t107.5 -30.5t109 -43t111 -50.5q57 -28 126.5 -55t145 -48t154 -34t153.5 -13l-52 -295q-23 -10 -51.5 -23.5t-50.5 -24.5l-26 -13q23 -27 58.5 -43t73 -23.5t71.5 -9.5t55 -2h34v-316h-34q-96 0 -180.5 17t-154 49.5t-123.5 79t-89 105.5q-99 -48 -206 -93t-222 -80.5
t-238.5 -56.5t-256.5 -21h-203v316z" />
    <glyph glyph-name="uni062D.fina" unicode="&#x62d;" horiz-adv-x="1702" arabic-form="final" 
d="M1569 -595q-80 -57 -165 -103.5t-175.5 -79.5t-187 -51t-198.5 -18q-167 0 -312 46t-252.5 134t-169.5 215.5t-62 291.5v24q0 12 1 24q9 104 60 196t132.5 170.5t188 142t227 110t249 75.5t253.5 38q-53 29 -120.5 62.5t-139 62.5t-140 48.5t-123.5 19.5
q-36 0 -78.5 -14.5t-83 -39.5t-75 -59t-55.5 -73l-225 153q44 77 99 141.5t119.5 111t139.5 72t159 25.5q63 0 127 -15.5t126.5 -41t122 -58.5t114.5 -69q82 -53 149.5 -92.5t128 -68t119.5 -48t124 -32.5l-93 -315l-170 -23q13 -36 49.5 -58t82.5 -34t95.5 -15.5t89.5 -3.5
h22v-316h-22q-122 0 -214 20.5t-159.5 54t-113 75.5t-74 85t-43 83t-19.5 69q-84 -16 -172 -40t-171.5 -56.5t-157 -72t-129.5 -86.5t-89 -101t-35 -114q-3 -101 45.5 -173t128.5 -118t181 -67.5t203 -21.5q67 0 138 11t141 31.5t137.5 50.5t127.5 68l144 -233v0z" />
    <glyph glyph-name="uni062F" unicode="&#x62f;" horiz-adv-x="1127" arabic-form="isolated" 
d="M157 407q42 -27 98.5 -54t116 -49.5t115.5 -36.5t97 -14q23 0 63.5 4t80 15.5t69 32.5t31.5 55q1 39 -23.5 88t-66 102.5t-96 108t-112.5 105t-116 94t-107 74.5l177 263q97 -68 192.5 -152.5t176 -178.5t140 -194.5t85.5 -202.5q8 -29 11 -58.5t3 -56.5
q0 -93 -36 -170.5t-100.5 -134t-154.5 -87.5t-198 -31q-8 0 -16 0.5t-16 0.5q-69 0 -141.5 14.5t-143 38.5t-137 56t-123.5 67l131 301v0z" />
    <glyph glyph-name="uni0631" unicode="&#x631;" horiz-adv-x="739" arabic-form="isolated" 
d="M565 673q21 -62 44.5 -135.5t43 -150.5t32.5 -153.5t13 -143.5q0 -94 -25.5 -183.5t-72 -173.5t-110.5 -161t-142 -145.5t-167 -127t-184 -105.5l-182 253q72 36 145.5 81.5t141 97.5t126 109t102 116t68.5 119.5t25 118.5q0 42 -11.5 91t-31.5 105.5t-46.5 120
t-57.5 135.5l289 132v0z" />
    <glyph glyph-name="uni0631.fina" unicode="&#x631;" horiz-adv-x="816" arabic-form="final" 
d="M816 -60q-22 0 -58 3t-82 22q-22 -124 -82.5 -235.5t-149.5 -209t-203 -179.5t-243 -147l-183 253q71 36 143 78.5t137.5 90t122 99t98.5 106.5t66 112.5t24 116.5q0 39 -15 99t-38 129t-51 139t-54 128l289 126q40 -120 76.5 -200t70.5 -128t65.5 -67.5t62.5 -19.5h24
v-316h-20z" />
    <glyph glyph-name="uni0633" unicode="&#x633;" horiz-adv-x="2692" arabic-form="isolated" 
d="M2488 995q6 -12 21.5 -43.5t35.5 -76t42 -99.5t40 -115.5t29.5 -123.5t11.5 -122q-1 -99 -29.5 -185t-83.5 -149.5t-136 -100.5t-187 -37q-92 0 -150.5 31t-96.5 85q-21 -27 -45 -48.5t-56.5 -37t-76 -23.5t-103.5 -8q-42 0 -77 6t-64 15q-1 -117 -35.5 -213t-94 -172
t-139.5 -132t-172 -92.5t-192.5 -54.5t-199.5 -18q-153 0 -283 50.5t-224.5 142t-147.5 220t-53 283.5q3 90 24.5 184t55 184t75 171.5t84.5 146.5l218 -168q-36 -59 -70 -125t-60 -134t-42 -136t-16 -131q-3 -76 30.5 -143t93 -117.5t140 -79.5t171.5 -29q103 0 190.5 19
t155 52.5t113.5 81t66 104.5l-1 -1q25 79 25 169q0 67 -19 136t-49 139.5t-66.5 142t-71.5 143.5l274 154q26 -59 52 -119t52.5 -114.5t54.5 -101.5t58 -80.5t62.5 -50.5t69.5 -12q42 6 68 29.5t39.5 58.5t17 78.5t1.5 88.5t-6.5 89t-7.5 81l276 37q7 -31 12 -74.5
t11.5 -91.5t16.5 -97t27 -91t42 -73t63 -44q31 0 58 11.5t47 33.5t31.5 54.5t11.5 75.5q0 36 -13.5 83.5t-36.5 102.5t-53.5 115.5t-64.5 122.5l256 143v0z" />
    <glyph glyph-name="uni0633.init" unicode="&#x633;" horiz-adv-x="1658" arabic-form="initial" 
d="M0 256q75 0 126.5 40.5t88 106.5t62 150.5t48.5 172.5l266 -48q-8 -35 -19.5 -81.5t-21 -96.5t-15.5 -97.5t-2.5 -83.5t18.5 -56.5t46 -15.5q40 3 72.5 28t58.5 64t46 88t34.5 101t24 103t15.5 93l254 -43q-1 -30 -7 -74t-11 -92.5t-5 -97t11 -87t36.5 -62.5t71.5 -24
q28 0 57 9.5t52 27t37.5 41.5t14.5 54q0 52 -17 114.5t-41.5 124t-50.5 116.5t-44 93l248 139l21 -46q15 -32 34 -78t39.5 -103.5t37.5 -119.5t28 -127t11 -126q0 -100 -27.5 -180t-83 -136t-139 -87t-195.5 -32q-54 0 -98 10.5t-79.5 28.5t-62.5 43t-48 54
q-24 -31 -51.5 -55.5t-63 -42t-79.5 -27.5t-100 -11q-49 -1 -88.5 8.5t-72.5 27.5t-59.5 43.5t-49.5 56.5q-21 -26 -48 -48.5t-64 -39.5t-86 -26.5t-114 -9.5h-36v316h20z" />
    <glyph glyph-name="uni0633.medi" unicode="&#x633;" horiz-adv-x="1851" arabic-form="medial" 
d="M-1 256q53 0 99 17.5t87 67.5t77 141t69 238l265 -38q-1 -5 -3 -13q-6 -25 -14.5 -70.5t-16 -102t-7 -108t12 -89t40.5 -44.5q31 -8 60 12.5t55 59t48 90t40 105.5t31 106t20 92l264 -38q-2 -25 -7 -66.5t-8 -88.5t-2.5 -94.5t10.5 -86t31 -63t58 -24.5q33 0 57 22
t40.5 57.5t26.5 81t15 92.5t5 91.5t-3 78.5l270 38l33 -282q6 -46 26 -80t47 -56.5t57 -34t57 -11.5h32v-316h-32q-97 0 -183 34t-149 115q-6 -8 -12 -14t-11 -12v1q-54 -57 -124.5 -90.5t-151.5 -33.5q-91 0 -167.5 39t-127.5 106q-60 -66 -136 -107t-167 -41
q-85 0 -158 38t-121 104q-54 -75 -133.5 -107t-196.5 -32h-21v316h19zM597 682h-1q3 8 1 0z" />
    <glyph glyph-name="uni0633.fina" unicode="&#x633;" horiz-adv-x="2889" arabic-form="final" 
d="M2228 -58q-86 0 -144.5 33t-96.5 83q-21 -27 -45 -48.5t-56.5 -37t-76 -23.5t-103.5 -8q-42 0 -77 6t-64 15q-1 -117 -35.5 -213t-94 -172t-139.5 -132t-172 -92.5t-192.5 -54.5t-199.5 -18q-153 0 -283 50.5t-224.5 142t-147.5 220t-53 283.5q3 90 24.5 184t55 184
t75 171.5t84.5 146.5l218 -167q-36 -59 -69 -125t-57.5 -133.5t-39.5 -135.5t-15 -131q-3 -76 29.5 -143.5t91 -118t137.5 -80t170 -29.5q69 0 137.5 9.5t131 31t116.5 55t93.5 81.5t62 111.5t22.5 144.5q0 60 -18 125.5t-47.5 134t-67 139.5t-77.5 142l277 148
q36 -86 75 -169t81 -148.5t87 -105t93 -37.5q40 1 63.5 22t36.5 55t17 78t4 92l-6 173l284 39q0 -28 2.5 -73.5t9 -97.5t18 -105t29.5 -95.5t43 -69.5t59 -27q33 0 58.5 30.5t43 78.5t26 106.5t8.5 114.5q0 22 -0.5 31.5t-0.5 17t-0.5 18t-0.5 34.5l271 39q4 -55 7 -90
t6 -63.5t7.5 -58t12.5 -73.5q9 -46 27 -80t43 -56.5t55 -33.5t62 -11h30v-316l-20 -1q-112 0 -197 35.5t-145 113.5q-54 -69 -135 -107.5t-184 -38.5z" />
    <glyph glyph-name="uni0635" unicode="&#x635;" horiz-adv-x="2916" arabic-form="isolated" 
d="M816 -709q-151 0 -288.5 40t-242.5 121t-167 203.5t-62 286.5q0 72 12.5 145t32.5 143t45.5 135t50.5 121t48 101t39 76l224 -160q-7 -9 -23 -38.5t-35.5 -73t-40.5 -98.5t-38.5 -114.5t-28.5 -121t-11 -117.5q0 -91 42.5 -154t111 -102t153 -56.5t168.5 -17.5
q97 0 186.5 29t158.5 84.5t110 137t41 186.5q0 68 -16.5 135.5t-42.5 135.5t-57.5 137.5t-60.5 141.5l277 153q52 -132 90 -217t79 -126q36 56 82.5 115.5t103 116.5t123.5 108t143 89.5t161 61t179 22.5q97 0 188.5 -36t161 -100t108 -151t30.5 -190q-8 -101 -46.5 -180
t-98 -138.5t-136 -101t-159.5 -67.5t-169 -38t-165 -12q-129 0 -254.5 25.5t-243.5 81.5q-3 -157 -60.5 -289.5t-158 -228.5t-239.5 -150t-305 -54zM2307 595q-66 -18 -140 -51.5t-142.5 -78t-125.5 -97t-89 -108.5q26 -7 61 -13.5t72.5 -11.5t74 -8t66.5 -3q40 0 93 4.5
t109.5 15t111.5 28t99 43.5t72 62t31 83q2 41 -24.5 72t-69.5 49.5t-96 22.5t-103 -9z" />
    <glyph glyph-name="uni0635.init" unicode="&#x635;" horiz-adv-x="1920" arabic-form="initial" 
d="M0 256q49 0 84 7t58.5 17.5t37.5 23t22 23.5l-1 -1q14 21 28 48.5t30.5 73.5t36 116.5t44.5 176.5l262 -85q-10 -38 -19 -72.5t-12.5 -67.5t-0.5 -66t17 -69q42 70 88 138.5t99.5 130t115.5 114.5t136.5 91.5t162.5 61t194 23.5q122 1 215 -40.5t155.5 -109t92.5 -152.5
t26 -171q-6 -108 -49 -190.5t-112 -143.5t-157.5 -101.5t-186 -65.5t-198 -35.5t-193.5 -10.5q-98 0 -176 6t-145.5 23.5t-127 49t-119.5 82.5q-72 -72 -169 -106t-230 -35h-29v316h20zM1379 622q-64 0 -125.5 -17.5t-117 -46.5t-105 -67t-90.5 -79t-72.5 -82t-51.5 -77
q39 -2 88 -3t95 -1q62 0 128.5 3.5t131 13t124 26.5t108 43.5t83 63.5t48.5 87q-10 70 -74 103t-170 33z" />
    <glyph glyph-name="uni0635.medi" unicode="&#x635;" horiz-adv-x="1933" arabic-form="medial" 
d="M0 256q49 0 84 7t58.5 17.5t37.5 23t22 23.5l-1 -1q14 21 28 48.5t30.5 73.5t36 116.5t44.5 176.5l262 -85q-10 -38 -19 -72.5t-12.5 -67.5t-0.5 -66t17 -69q42 70 88 138.5t99.5 130t115.5 114.5t136.5 91.5t163 61t193.5 23.5q122 1 215 -40.5t155.5 -109t92.5 -152.5
t26 -171q-4 -61 -19.5 -113.5t-41.5 -97.5h142v-316h-313q-53 0 -93.5 1t-73.5 3.5t-59 7.5t-48 14q-98 -25 -197.5 -35.5t-192.5 -10.5q-98 0 -176 6t-145.5 23.5t-127 49t-119.5 82.5q-72 -72 -169 -106t-230 -35h-29v316h20zM1379 622q-64 0 -125.5 -17.5t-117 -46.5
t-105 -67t-90.5 -79t-72.5 -82t-51.5 -77q39 -2 88 -3t95 -1q62 0 128.5 3.5t131 13t124 26.5t108 43.5t83 63.5t48.5 87q-10 70 -74 103t-170 33z" />
    <glyph glyph-name="uni0635.fina" unicode="&#x635;" horiz-adv-x="2868" arabic-form="final" 
d="M795 -709q-103 0 -204.5 17t-191.5 56t-163.5 103.5t-120.5 159.5q-17 34 -31.5 73t-25.5 79.5t-17 82t-6 80.5q0 72 12.5 145t32.5 143t45.5 135t50.5 121t48 101t39 76l224 -162q-7 -9 -23 -38.5t-35.5 -73t-40.5 -98t-38.5 -113.5t-28.5 -120t-11 -118
q0 -91 42.5 -154t111 -102t153 -56.5t168.5 -17.5q97 0 186 27t157.5 81t109 135t40.5 189q0 48 -16 113.5t-41.5 139.5t-56.5 152t-60 150l281 154q30 -74 52 -129.5t40 -97.5t35 -71.5t38 -50.5q32 57 76.5 116.5t100 116.5t122.5 107t144.5 89t164.5 62.5t184 26.5
t185.5 -30.5t156 -93.5t107.5 -143t40 -179q0 -105 -47 -210q15 -3 36.5 -5.5t41.5 -2.5h26v-316h-20q-56 0 -102.5 7.5t-85 20t-68.5 29t-51 33.5q-57 -32 -120.5 -55.5t-129 -38.5t-130.5 -22.5t-125 -7.5q-81 0 -149.5 6.5t-128 20t-113.5 33.5t-107 47
q-3 -157 -60.5 -289.5t-158 -228.5t-239.5 -150t-305 -54zM2286 593q-38 -6 -83 -23t-93.5 -42t-96.5 -56.5t-90.5 -66.5t-77.5 -72.5t-56 -74.5q26 -7 61 -13.5t72.5 -11.5t74 -8t66.5 -3q40 0 93 4.5t109.5 15t111 28t98.5 43.5t72.5 62t31.5 83q2 41 -24.5 70.5t-69 47
t-95.5 22t-104 -4.5z" />
    <glyph glyph-name="uni0637" unicode="&#x637;" horiz-adv-x="1816" arabic-form="isolated" 
d="M866 -60q-113 0 -218.5 7.5t-208 26.5t-205 52.5t-210.5 85.5l115 295q168 -64 266 -93q19 26 42.5 57.5t57.5 76.5q6 45 10.5 82.5t7 71.5t4 66t1.5 66q0 46 -4 117t-9.5 151.5t-13 163t-14 152.5t-12.5 119t-9 63l317 84l11 -106q8 -72 16.5 -154.5t15.5 -169.5
t12.5 -177t7.5 -177q48 42 94.5 77t98 60.5t112 40.5t136.5 17q79 2 156.5 -22.5t140.5 -72.5t106 -119.5t53 -162.5q1 -129 -38 -229.5t-105.5 -175.5t-155 -127.5t-186.5 -84.5t-199 -46.5t-193 -14.5zM1287 674q-60 0 -135.5 -31t-154.5 -87t-155.5 -134t-139.5 -172
q35 -3 73 -4.5t70 -1.5q150 0 270.5 30.5t205 77.5t129 103t41.5 107q-5 30 -28.5 51.5t-55 35t-64.5 19.5t-56 6z" />
    <glyph glyph-name="uni0637.init" unicode="&#x637;" horiz-adv-x="1576" arabic-form="initial" 
d="M-20 256h133q17 29 47 78t78 109q8 63 14 154.5t7 200.5q0 60 -4 136.5t-11.5 166.5t-18.5 191t-24 210l322 82q14 -103 25 -199t18.5 -192t11.5 -194.5t4 -205.5q52 41 107.5 77.5t115 63.5t123.5 42.5t135 15.5q82 0 155 -26t129.5 -75t93 -119t45.5 -158
q5 -120 -29 -217t-96.5 -172t-149 -129t-187 -89t-209.5 -51.5t-217 -16.5l-592 1h-26v316zM1032 672q-60 1 -135.5 -28.5t-154.5 -84.5t-155.5 -132t-139.5 -171q35 -3 73 -4.5t70 -1.5q150 0 270.5 29.5t205 75t129 100t41.5 105.5q-5 30 -25.5 51t-49.5 34t-63 19.5
t-66 7.5z" />
    <glyph glyph-name="uni0637.medi" unicode="&#x637;" horiz-adv-x="1583" arabic-form="medial" 
d="M-20 256h133q17 29 47 78t78 109q8 63 14 154.5t7 200.5q0 60 -4 136.5t-11.5 166.5t-18.5 191t-24 210l322 82q14 -103 25 -199t18.5 -192t11.5 -194.5t4 -205.5q52 41 107.5 77.5t115 63.5t123.5 42.5t135 15.5q82 0 155 -26t129.5 -75t93 -119t45.5 -158
q5 -109 -22.5 -197.5t-79.5 -160.5h219l-1 -316h-265q-79 0 -175.5 6.5t-214.5 36.5l1 1q-85 -23 -173.5 -34t-176.5 -11l-592 1h-26v316zM1032 672q-60 1 -135.5 -28.5t-154.5 -84.5t-155.5 -132t-139.5 -171q35 -3 73 -4.5t70 -1.5q150 0 270.5 29.5t205 75t129 100
t41.5 105.5q-5 30 -25.5 51t-49.5 34t-63 19.5t-66 7.5z" />
    <glyph glyph-name="uni0637.fina" unicode="&#x637;" horiz-adv-x="1867" arabic-form="final" 
d="M866 -60q-113 0 -218.5 7.5t-208 26.5t-205 52.5t-210.5 85.5l115 295q168 -64 266 -93q19 26 42.5 57.5t57.5 76.5q6 45 10.5 82.5t7 71.5t4 66t1.5 66q0 46 -4 117t-9.5 151.5t-13 163t-14 152.5t-12.5 119t-9 63l317 84l11 -106q8 -72 16.5 -154.5t15.5 -169.5
t12.5 -177t7.5 -177q48 42 94.5 77t98 60.5t112 40.5t136.5 17q79 2 156.5 -22.5t140.5 -72.5t106 -119.5t53 -162.5q1 -112 -28.5 -201.5t-80.5 -160.5h253l-1 -316h-302q-79 0 -174.5 6.5t-213.5 36.5q-85 -23 -168.5 -33t-161.5 -10zM1287 674q-60 0 -135.5 -31
t-154.5 -87t-155.5 -134t-139.5 -172q35 -3 73 -4.5t70 -1.5q150 0 270.5 30.5t205 77.5t129 103t41.5 107q-5 30 -28.5 51.5t-55 35t-64.5 19.5t-56 6z" />
    <glyph glyph-name="uni0639" unicode="&#x639;" horiz-adv-x="1532" arabic-form="isolated" 
d="M828 -775q-100 0 -197 21t-184 61.5t-161 100t-127.5 136.5t-83.5 171.5t-30 204.5q0 121 34 224t96.5 190t149.5 158.5t192 128.5q-50 49 -84.5 127t-34.5 185q1 62 21 121.5t54 113.5t80.5 100t101 80.5t115 55t122.5 23.5q70 3 130 -6.5t114.5 -30t106.5 -52
t106 -72.5l-124 -237q-47 25 -99 45q-45 17 -101.5 29t-116.5 7q-38 -3 -80 -19t-77.5 -42t-59 -61t-23.5 -76q0 -35 24.5 -64.5t65.5 -50t95.5 -30.5t114.5 -6l376 25l-24 -313q-79 -10 -160 -17t-164.5 -20t-168 -36t-170.5 -65q-23 -11 -57 -30t-72 -46t-76 -62t-68 -77
t-49 -92.5t-19 -107.5q0 -61 21 -112t58 -91.5t87 -71.5t107 -51.5t119 -30.5t124 -10q59 0 124 9t131.5 28.5t133 50t128.5 74.5l156 -244q-78 -66 -166.5 -112.5t-177.5 -76.5t-175 -43.5t-158 -13.5z" />
    <glyph glyph-name="uni0639.init" unicode="&#x639;" horiz-adv-x="1138" arabic-form="initial" 
d="M919 601q-26 14 -52.5 25.5t-54.5 21.5q-48 17 -107 28t-122 4q-43 -5 -82.5 -23t-70 -44.5t-48.5 -59.5t-18 -67q0 -48 30 -84.5t76.5 -60.5t102.5 -36t109 -10q57 5 118.5 14t115.5 19q31 5 62 11t62 13l41 -311q-67 -18 -163.5 -36t-217.5 -32.5t-264 -23.5t-303 -9
h-153v316h36l139 2q-36 57 -50 116.5t-13 129.5q1 88 39.5 173t105 153t155.5 113t191 53q51 4 98 -0.5t89 -15t79 -25t67 -30.5q35 -19 67 -40.5t60 -46.5l-124 -237v0z" />
    <glyph glyph-name="uni0639.medi" unicode="&#x639;" horiz-adv-x="1144" arabic-form="medial" 
d="M1164 256v-316l-34 -1q-79 0 -151.5 5t-139 19t-126 39.5t-112.5 66.5q-59 -36 -130.5 -60.5t-148 -40t-154.5 -22t-150 -6.5h-38v316h38q70 0 142 7.5t141 23.5q-34 33 -66 65.5t-64.5 65.5t-67.5 67t-76 72l16 234q59 52 122 88.5t124.5 60.5t118 37t101.5 18
q22 2 47 3.5t49 1.5q78 0 160.5 -16t149.5 -44q58 -27 97 -61t62 -68t33.5 -66t11.5 -54q3 -45 -12 -98.5t-43.5 -109t-67.5 -109t-84 -98.5q55 -10 105.5 -15t112.5 -5h34zM605 689q-24 0 -61 -3.5t-76.5 -9.5t-77.5 -14t-64 -17l275 -235q29 21 66.5 52t73.5 64.5
t65.5 66.5t43.5 58q-23 10 -54 17.5t-64.5 12t-66.5 6.5t-60 2z" />
    <glyph glyph-name="uni0639.fina" unicode="&#x639;" horiz-adv-x="1357" arabic-form="final" 
d="M294 -218q0 -54 22.5 -99t60.5 -80.5t88 -62t105 -44t111.5 -26t107.5 -8.5q115 0 227 37.5t206 100.5l155 -249q-56 -46 -130.5 -84t-156.5 -65t-165.5 -41.5t-158.5 -13.5q-64 1 -144 12t-162 38t-160 72.5t-139 115.5t-98.5 168t-38.5 229q-1 102 32 193t91.5 169
t137 142t168.5 112q-18 16 -38 33.5t-45 38.5t-56 47t-71 61l-21 241q85 68 160 115t149 76.5t152 42.5t169 13q53 0 109 -9t109 -27t100.5 -46t82.5 -66t54.5 -86t18.5 -107q-2 -63 -22 -121.5t-56 -110t-85 -94t-107 -72.5q72 -33 143 -52t143 -19h35v-316l-35 -1
q-84 0 -162.5 17t-155 48t-151.5 74t-151 95q-46 -19 -95 -41.5t-96.5 -50t-90.5 -59t-75.5 -69t-51.5 -80t-19 -91.5zM854 782q-51 1 -101.5 -6t-96 -18.5t-84.5 -25.5t-68 -26q58 -48 121.5 -94t133.5 -86q58 19 111.5 43t94.5 50.5t66 54.5t27 57q-2 1 -15.5 8.5
t-39 16.5t-63 17t-86.5 9z" />
    <glyph glyph-name="uni0643.init" unicode="&#x643;" horiz-adv-x="1023" arabic-form="initial" 
d="M-20 256h95q58 0 119 1t117 8.5t102.5 23.5t76 46t38.5 77t-11 116q-7 25 -30 60.5t-57.5 78t-79.5 89.5t-96 96.5t-107 99t-112 95.5l31 272l840 374l121 -268l-664 -308q49 -34 101 -81t101 -102.5t92 -117.5t75 -127t50.5 -131t17.5 -129q-1 -104 -39 -193.5
t-105 -155t-159.5 -103t-203.5 -37.5h-313v316z" />
    <glyph glyph-name="uni0643.medi" unicode="&#x643;" horiz-adv-x="1188" arabic-form="medial" 
d="M-20 256h327q51 0 95 12t77 31.5t53 44t23 49.5q5 50 -15 108t-57 118.5t-87 121t-104 115.5t-107.5 102t-98.5 81l27 275l919 385l116 -275l-759 -310q69 -64 124.5 -124.5t102 -121t85 -121t72.5 -124.5q30 -56 63 -118.5t76.5 -116t100.5 -90.5t133 -42h62v-316h-31
q-70 0 -133 9.5t-120 31t-108.5 56t-98.5 84.5q-36 -48 -83 -82t-99.5 -56t-108.5 -32t-110 -11h-336v316z" />
    <glyph glyph-name="uni0643" unicode="&#x643;" horiz-adv-x="2024" arabic-form="isolated" 
d="M1947.5 566q-0.5 -53 -7 -105t-21 -99.5t-39.5 -81.5q-81 -110 -178 -177t-210.5 -105t-243.5 -52t-277 -17q-188 2 -336.5 24t-260.5 64q-75 28 -141 71.5t-114.5 101.5t-76.5 130.5t-28 159.5q0 100 34.5 193t86.5 182l233 -175q-34 -54 -57 -103.5t-23 -100.5
q0 -72 55 -116.5t148.5 -69t217.5 -33.5t262 -9q307 0 485 67h-1q31 13 62.5 30t56.5 40.5t41 55t18 74.5l-1 996l312 71q4 -963 3.5 -1016zM1147 850q-24 4 -47.5 7t-49.5 3t-53 -9.5t-48 -25.5t-31 -38t-1 -47q7 -16 23.5 -30t39 -23t49 -10.5t52.5 7.5q45 15 87 40.5
t89 59.5l62 -146q-18 -11 -35 -22t-40.5 -25.5t-57 -34t-83.5 -48t-120 -67t-166 -90.5l-51 145l129 76q-29 21 -51.5 49t-36.5 60q-20 42 -17.5 88t22 88.5t53.5 77.5t77 53q59 25 122 20.5t128 -20.5z" />
    <glyph glyph-name="uni0643.fina" unicode="&#x643;" horiz-adv-x="2076" arabic-form="final" 
d="M1942 485q1 -30 4.5 -69.5t15.5 -75t36 -60t67 -24.5h31v-316h-34q-63 1 -113.5 12.5t-90 34.5t-69.5 58t-54 83q-75 -60 -160 -97.5t-180.5 -59t-201.5 -30.5t-222 -12q-188 2 -336.5 24t-260.5 64q-75 28 -141 71.5t-114.5 101.5t-76.5 130.5t-28 159.5q0 100 34.5 193
t86.5 182l233 -175q-34 -54 -57 -103.5t-23 -100.5q0 -72 55 -116.5t148.5 -69t217.5 -33.5t262 -9q307 0 485 67h-1q31 13 62.5 30t56.5 40.5t41 55t18 74.5q-3 989 -5 996l312 71zM1147 850q-24 4 -47.5 7t-49.5 3t-53 -9.5t-48 -25.5t-31 -38t-1 -47q7 -16 23.5 -30
t39 -23t49 -10.5t52.5 7.5q45 15 87 40.5t89 59.5l62 -146q-18 -11 -35 -22t-40.5 -25.5t-57 -34t-83.5 -48t-120 -67t-166 -90.5l-51 145l129 76q-29 21 -51.5 49t-36.5 60q-20 42 -17.5 88t22 88.5t53.5 77.5t77 53q59 25 122 20.5t128 -20.5z" />
    <glyph glyph-name="uni0644" unicode="&#x644;" horiz-adv-x="1483" arabic-form="isolated" 
d="M394 294q-14 -26 -26 -54t-23 -57q-18 -51 -32.5 -114t-10.5 -129q3 -57 23 -104t51.5 -85t71 -66t81 -47t82.5 -28.5t75 -9.5q43 0 92 9.5t98 29.5t94 50.5t80 74t55.5 99.5t20.5 126q0 79 -4.5 186.5t-11 229t-15.5 250.5t-18 252q-11 148 -22.5 294.5t-25.5 307.5
l319 74q7 -172 13.5 -328t11.5 -312q5 -130 9.5 -266t8.5 -263.5t6 -238t2 -189.5q0 -132 -32 -235.5t-86 -181.5t-125.5 -132t-150 -88t-159.5 -49.5t-154 -15.5t-151 16.5t-152 50.5t-140 86t-115 122.5t-77 160t-26 198.5q2 121 19.5 212.5t38.5 154.5q13 38 27 70.5
t28 58.5l250 -120v0z" />
    <glyph glyph-name="uni0644.init" unicode="&#x644;" horiz-adv-x="569" arabic-form="initial" 
d="M-20 256h76q51 0 83.5 9t51 31t25 59.5t5.5 94.5q0 8 -3 58.5t-7.5 127t-11 171t-13 191.5t-12.5 189t-11.5 162t-9.5 111q-3 36 -4 38l317 78q1 -16 6.5 -82t13.5 -198.5t18.5 -339t21.5 -502.5q4 -113 -23 -207.5t-86 -162.5t-149 -106t-212 -38h-76v316z" />
    <glyph glyph-name="uni0644.medi" unicode="&#x644;" horiz-adv-x="649" arabic-form="medial" 
d="M-20 256h65q45 0 76.5 14.5t52 41t30 62.5t9.5 79q1 59 1 143.5t-1 182t-3 202t-5 204t-6 189t-6 156.5l318 58l11 -1199q0 -62 31.5 -97.5t93.5 -35.5h22v-316h-22q-41 -1 -82.5 7t-78.5 22.5t-66 34.5t-45 43q-21 -26 -49 -46t-67.5 -33.5t-92.5 -20.5t-123 -7h-63v316
z" />
    <glyph glyph-name="uni0644.fina" unicode="&#x644;" horiz-adv-x="1532" arabic-form="final" 
d="M379 294q-42 -78 -69.5 -169t-22.5 -185q4 -69 38 -130.5t87 -108t120.5 -74t138.5 -27.5q43 0 92 9.5t98 29.5t94 50.5t80 74t55.5 99.5t20.5 126q0 79 -4.5 186.5t-11 229t-15.5 250.5t-18 252q-11 147 -22.5 294.5t-25.5 307.5l319 74q7 -171 13.5 -328t11.5 -312
q5 -131 9.5 -267t8.5 -264q4 -32 15.5 -60t31 -49.5t46.5 -34t63 -12.5h20v-316h-20q-38 0 -75 2.5t-74 17.5q-3 -127 -36.5 -226t-88 -174.5t-125 -128t-148 -85t-157 -47.5t-151.5 -15q-83 0 -165 20t-156 58t-137 93t-108.5 125.5t-71 155.5t-23.5 182q1 63 7.5 127
t19.5 127t34 124t52 118l250 -120v0z" />
    <glyph glyph-name="uni0645" unicode="&#x645;" horiz-adv-x="1237" arabic-form="isolated" 
d="M76 -796l-39 990q0 7 2 34.5t11.5 63.5t31 75t60.5 69q18 16 41.5 26.5t49 16.5t51.5 7t50 -1q29 73 71 148t98 135.5t125.5 98.5t153.5 38q66 -2 121 -22.5t99.5 -55t78.5 -81t57 -100.5t34.5 -113t11.5 -119q0 -45 -9 -96t-26 -100.5t-42 -95t-56 -80t-68 -55
t-79 -20.5q-75 0 -159.5 20t-164.5 49.5t-147 64t-106 64.5q6 -110 14.5 -225.5t17.5 -231.5t17 -231t14 -224zM776 594q-37 1 -65.5 -18.5t-51 -48.5t-38.5 -62.5t-28 -60.5q30 -17 72 -35t87.5 -34.5t90 -29t78.5 -18.5q18 45 14.5 98t-23.5 99t-55 77.5t-81 32.5z" />
    <glyph glyph-name="uni0645.init" unicode="&#x645;" horiz-adv-x="1165" arabic-form="initial" 
d="M847 -57q-60 0 -124 12.5t-125.5 33.5t-118 48.5t-100.5 56.5q-33 -44 -70.5 -73.5t-80 -47.5t-92 -25.5t-106.5 -7.5h-50v316h50q66 0 111 27t77 69.5t56.5 94t50.5 100.5q30 61 67.5 122t86.5 110t110.5 79.5t138.5 30.5q105 0 180.5 -48.5t124.5 -127t72.5 -178
t23.5 -200.5q0 -85 -25 -157t-65 -124t-90.5 -81.5t-101.5 -29.5zM719 584q-29 0 -54 -22.5t-47 -55.5t-39.5 -72t-31.5 -72q33 -21 75 -39t87 -31.5t91 -22.5t88 -13q5 61 -6 120t-34.5 105t-56.5 74.5t-72 28.5z" />
    <glyph glyph-name="uni0645.medi" unicode="&#x645;" horiz-adv-x="1178" arabic-form="medial" 
d="M866 -57q-51 -3 -119.5 7.5t-140 31t-139.5 49.5t-118 63q-64 -79 -149 -116.5t-200 -37.5h-20v316h20q66 0 111 27t77.5 69t57 93.5t49.5 101.5q31 60 68.5 121t86.5 110t110 80t138 31q99 0 167 -35.5t114 -96t74 -140.5t46 -170q17 -88 32.5 -139.5t35.5 -51.5h31
v-316h-38q-59 0 -101.5 27.5t-77.5 66.5q-14 -15 -28.5 -31t-28.5 -29t-28.5 -21.5t-29.5 -9.5zM689 584q-29 0 -54 -20t-46 -50.5t-38 -67t-31 -69.5q34 -23 79 -43t93 -35t95 -25t86 -13q-13 55 -29 112.5t-37.5 104t-50 76.5t-67.5 30z" />
    <glyph glyph-name="uni0645.fina" unicode="&#x645;" horiz-adv-x="1244" arabic-form="final" 
d="M58 -796l-39 990q0 7 2 34.5t11.5 63.5t31 75t60.5 69q12 11 30.5 20t39.5 16t44 10.5t46 3.5h16q8 0 16 -1q29 74 71 149t97.5 135t125.5 97q69 37 154 35q99 0 167 -37.5t114 -100t74 -144.5t46 -172q17 -87 32.5 -139t35.5 -52h31v-316h-38q-59 2 -101 25.5t-80 70.5
q-24 -20 -53.5 -38.5t-58.5 -24.5q-30 -4 -74 0.5t-96 16t-109.5 28t-115.5 37t-113.5 43.5t-103.5 46q12 -219 25.5 -446.5t25.5 -444.5zM758 584q-35 -3 -63.5 -21.5t-52 -45.5t-41 -58.5t-29.5 -59.5q36 -22 83 -43t97.5 -37.5t99 -27.5t86.5 -12q-12 56 -26.5 112
t-35 100.5t-49.5 70.5t-69 22z" />
    <glyph glyph-name="uni0647" unicode="&#x647;" horiz-adv-x="990" arabic-form="isolated" 
d="M485 -60q-81 0 -163.5 28t-150 80.5t-110 128t-42.5 170.5q0 200 177 415q14 17 23.5 28t17.5 20t15 16l18 18l-61 52l199 243q51 -38 121.5 -102.5t164.5 -164.5q259 -295 259 -525q0 -100 -41 -176t-107 -127.5t-150 -77.5t-170 -26zM679 347q0 31 -20 70t-52.5 81.5
t-72.5 86t-80 83.5q-27 -30 -57 -67.5t-55 -79.5t-41 -86.5t-14 -87.5q1 -24 23 -42t52.5 -29t64.5 -16.5t58 -5.5q30 0 64.5 4.5t63 15.5t47.5 29t19 44z" />
    <glyph glyph-name="uni0647.init" unicode="&#x647;" horiz-adv-x="1522" arabic-form="initial" 
d="M-20 256h62q11 0 25.5 1t36 2t58.5 3q-35 60 -53 127.5t-18 136.5q0 106 40 203.5t121 167.5l-52 29l193 284q127 -66 249.5 -125t234.5 -110q95 -44 168.5 -77.5t132.5 -66t106 -68.5t88 -84q52 -66 75 -144t23 -151q0 -112 -57.5 -211.5t-169.5 -166.5
q-31 -18 -76.5 -31t-95 -21.5t-97.5 -12.5t-84 -4q-42 0 -91 3.5t-98.5 11t-96.5 19.5t-86 28q-48 -14 -107.5 -25t-125 -18.5t-134 -11.5t-134.5 -4h-37v316zM559 746q-32 5 -68.5 -19t-66.5 -62t-48 -83.5t-14 -84.5q3 -26 20 -53t40.5 -52.5t50.5 -45t50 -28.5
q37 4 74 18t66 42t47 72t18 108q0 33 -18.5 65t-44.5 58.5t-55.5 44t-50.5 20.5zM991 600q0 -50 -10 -99.5t-27 -97t-38.5 -90t-45.5 -78.5h9q74 0 135 5.5t106 22t71.5 46t31.5 78.5q2 24 -20 52.5t-56.5 57t-76.5 55.5t-79 48z" />
    <glyph glyph-name="uni0647.medi" unicode="&#x647;" horiz-adv-x="1035" arabic-form="medial" 
d="M-20 256h71q3 66 20.5 143.5t47.5 156t71 152t90.5 131.5t107.5 94.5t121 40.5q67 -1 124 -37.5t97.5 -95.5t63.5 -134t23 -152q0 -91 -39 -177t-102 -160.5t-143.5 -134t-164.5 -97.5q7 -24 29.5 -57.5t51 -67.5t57.5 -64t49 -48q-1 58 17 118.5t50.5 116.5t76.5 105.5
t94.5 86.5t104.5 58.5t107 21.5h50v-316h-54q-44 0 -85 -23t-72.5 -59.5t-50.5 -82.5t-19 -91q0 -20 3 -37.5t11 -35.5t21.5 -38t34.5 -43l-183 -223q-120 73 -211 149t-157.5 155.5t-112 161.5t-74.5 167h-126v316zM569 511q2 28 -0.5 59.5t-10 61t-20.5 53.5t-32 36
q-19 -10 -41.5 -38.5t-45.5 -68t-44.5 -87t-38.5 -96.5t-27.5 -95.5t-11.5 -83.5q43 8 89.5 32.5t86 60t66.5 78.5t30 88z" />
    <glyph glyph-name="uni0647.fina" unicode="&#x647;" horiz-adv-x="1090" arabic-form="final" 
d="M544 80q-98 0 -184 20t-150 62t-101 107t-37 156q0 69 25.5 130.5t67 115t94 98t106 79.5t103 59t86.5 37q-1 12 -2 24.5t-2 30.5t-3 42t-5 59l312 67q21 -188 40 -343t33.5 -267t24 -176t11.5 -68q15 -32 44.5 -44.5t80.5 -12.5h22v-316h-29q-42 0 -97 7.5t-115 35.5
q-42 20 -73.5 45.5t-60.5 64.5q-51 -7 -98.5 -10t-92.5 -3zM538 394q21 0 43.5 1.5t43.5 3.5q-3 17 -5.5 37.5t-6 50t-8.5 70.5t-11 100q-38 -19 -85 -45.5t-88.5 -56t-69.5 -60t-28 -56.5q0 -13 22.5 -21.5t55.5 -14t70 -7.5t67 -2z" />
    <glyph glyph-name="uni0648" unicode="&#x648;" horiz-adv-x="1078" arabic-form="isolated" 
d="M28 -457q141 28 257 70.5t203.5 95t145 111.5t81.5 120q-43 0 -91 1.5t-79 3.5q-99 8 -180 37.5t-139.5 81t-90.5 125.5t-32 170q0 61 13 125t37.5 125t61 115t82.5 95t101.5 64.5t119.5 23.5q92 0 168 -40t134.5 -106.5t100.5 -153t67.5 -180t34 -186.5t0.5 -172
q-12 -117 -52.5 -219.5t-104 -189t-147.5 -157t-182 -124t-208.5 -89.5t-226.5 -54zM518 590q-21 4 -48 -14.5t-50 -50t-38.5 -69.5t-15.5 -73q0 -34 21 -56.5t54 -36.5t74.5 -21.5t82.5 -10t78 -2.5h62q-15 62 -35.5 119t-47.5 102t-61 75t-76 38z" />
    <glyph glyph-name="uni0648.fina" unicode="&#x648;" horiz-adv-x="1043" arabic-form="final" 
d="M28 -457q141 28 257 70.5t203.5 95t145 111.5t81.5 120q-43 0 -91 1.5t-79 3.5q-99 8 -180 37.5t-139.5 81t-90.5 125.5t-32 170q0 61 13 125t37.5 125t61 115t82.5 95t101.5 64.5t119.5 23.5q76 0 140 -27.5t117.5 -74.5t95 -110.5t72 -136t50 -150t27.5 -152.5h43v-316
h-64q-39 -147 -124.5 -266.5t-204.5 -208.5t-264.5 -147t-303.5 -82zM518 590q-21 4 -48 -14.5t-50 -50t-39 -69.5t-15 -73q1 -34 22 -56t54 -36.5t74.5 -21.5t82.5 -10t77 -3h62q-15 62 -35.5 119t-47.5 102t-61 75t-76 38z" />
    <glyph glyph-name="uni0649" unicode="&#x649;" horiz-adv-x="1793" arabic-form="isolated" 
d="M813 226q5 85 31 168.5t70 159t103.5 139.5t132 111t156 73.5t174.5 26.5q67 0 138.5 -19.5t143.5 -57.5l-111 -293q-48 21 -91 32.5t-81 11.5q-62 0 -127.5 -27t-122 -72.5t-96 -105.5t-49.5 -126q-2 -28 16 -46t48 -31t68 -22.5t77 -19.5q74 -20 143.5 -41t123 -55.5
t86 -89.5t32.5 -144q0 -106 -40.5 -188.5t-109.5 -145t-159.5 -105.5t-189.5 -70.5t-201 -39.5t-193 -12q-168 0 -309.5 43.5t-243.5 128t-159.5 209.5t-57.5 288q0 26 2 52t4 49q6 109 28.5 209t48 178t47 127t24.5 56l251 -105q-28 -66 -52.5 -132t-42.5 -134.5
t-28.5 -138.5t-10.5 -143q0 -105 42 -174.5t111.5 -111t159.5 -59t186 -17.5q127 0 237.5 17.5t194.5 46t135.5 66t59.5 76.5q-63 15 -133.5 30t-139 36.5t-130 52.5t-107 76.5t-70.5 110t-19 152.5z" />
    <glyph glyph-name="uni0649.fina" unicode="&#x649;" horiz-adv-x="1715" arabic-form="final" 
d="M830 -712q-108 0 -209 15.5t-189 48.5t-160.5 85t-124.5 125.5t-80.5 170t-28.5 218.5q0 88 7.5 167.5t23.5 157.5t41.5 158t61.5 170l257 -107q-29 -72 -49.5 -130t-34.5 -105.5t-22 -87.5t-12 -76.5t-5 -72t-1 -74.5q0 -75 24 -130t65 -93t94.5 -62.5t111.5 -37.5
t117.5 -18t112.5 -5q26 0 77 3.5t111.5 12t124 22.5t115.5 34.5t85 48t33 64.5q-72 54 -197 97t-306 65l41 304h821v-316h-130q21 -40 30.5 -80.5t10.5 -69.5q-5 -94 -47.5 -167.5t-109.5 -129.5t-152 -95t-174 -63.5t-175.5 -35.5t-157.5 -11z" />
    <glyph glyph-name="uni066E.init" unicode="&#x66e;" horiz-adv-x="715" 
d="M-20 256h135q42 0 92.5 7t94 22.5t73 42t29.5 65.5q0 24 -14 71.5t-37 106t-52 122.5t-58 122l286 142q28 -63 55.5 -134t49.5 -144t35.5 -145.5t13.5 -138.5q0 -120 -40 -206t-112 -141.5t-172 -81.5t-220 -26h-159v316z" />
    <glyph glyph-name="uni066E.medi" unicode="&#x66e;" horiz-adv-x="705" 
d="M725 256v-316h-22q-97 0 -164 27t-117 74q-72 -53 -169.5 -77t-235.5 -24h-37v316h37q138 0 208 45t70 135q0 30 -8 84.5t-33 143.5l283 69q16 -55 26.5 -97.5t16.5 -77.5t9 -64.5t5 -57.5t6 -59.5t15.5 -58.5t32 -44.5t55.5 -17.5h22z" />
    <glyph glyph-name="uni066E.fina" unicode="&#x66e;" horiz-adv-x="2316" 
d="M2300 -60q-83 0 -151 13t-124.5 41t-101.5 72.5t-81 107.5q-142 -121 -343.5 -179t-470.5 -58q-350 0 -578 77.5t-326 241.5q-32 53 -46 122t-8.5 151t32 173.5t76.5 189.5l238 -138q-20 -39 -38 -84.5t-27.5 -91t-9 -88t18.5 -75.5q30 -56 95.5 -88t155 -48t196.5 -19.5
t221 -3.5q105 0 199 7.5t173.5 24t144 43t110.5 64.5q42 34 69 75t46 86.5t31.5 95.5t24.5 101l280 -71l-41 -212q-9 -46 2 -85t41 -67.5t78.5 -45t113.5 -16.5h36v-316h-36v0z" />
    <glyph glyph-name="uni066F.init" unicode="&#x66f;" horiz-adv-x="932" 
d="M15 256q37 0 89.5 0.5t112 3t121.5 7.5t118.5 15t103.5 25t77 37q-131 -13 -240.5 -7t-189 42t-124 107.5t-45.5 191.5q0 55 11 113.5t33.5 115t55.5 107t76.5 88.5t97 60.5t116.5 22.5q79 0 144.5 -30t118 -81.5t92 -119.5t65.5 -143t39 -153t13 -150q0 -120 -33.5 -209
t-93.5 -152t-142.5 -103.5t-181 -63.5t-208.5 -31.5t-225 -8.5h-36v316h35zM426 867q-23 1 -47.5 -13.5t-44.5 -38.5t-33.5 -55t-13.5 -63q0 -30 18.5 -49t47.5 -30t65.5 -15.5t72 -5t66.5 1t50 3.5q-9 45 -23.5 91t-36.5 84t-52 63t-69 27z" />
    <glyph glyph-name="uni066F.medi" unicode="&#x66f;" horiz-adv-x="1001" 
d="M-20 256h72q23 0 47 1.5t45 4t32 7.5q-18 20 -35 43.5t-30.5 51.5t-22.5 60.5t-11 70.5q-2 59 12.5 119.5t42.5 117.5t68 106.5t89 86t105.5 56t117.5 17.5q87 -4 162 -45t129.5 -106t86 -147.5t31.5 -169.5q0 -69 -23 -135.5t-58 -126.5q26 -6 64 -9t97 -3h20v-316h-39
q-65 0 -123.5 3.5t-115 12.5t-113 24.5t-117.5 40.5q-37 -21 -92.5 -36.5t-121.5 -25t-138 -14.5t-142 -5h-39v316zM656 507q0 32 -15.5 61t-38 52t-48.5 38.5t-47 21.5q-23 -5 -52.5 -18t-56 -36.5t-44.5 -57t-18 -79.5q0 -15 15.5 -41.5t40 -54t56 -51t64.5 -33.5
q25 14 51 38.5t46.5 52t33.5 56t13 51.5z" />
    <glyph glyph-name="uni066F.fina" unicode="&#x66f;" horiz-adv-x="1570" 
d="M775 -381q87 0 162.5 24t137 66.5t107.5 101.5t73 129q-159 1 -278 21.5t-199 68t-121.5 126t-45.5 195.5q0 54 13.5 116.5t39 124t63 118t84.5 99.5t104 69t122 26q79 0 144.5 -27.5t119 -75t94.5 -110.5t70.5 -135t48 -149t26.5 -151h50v-316h-61
q-25 -128 -93.5 -243.5t-169 -203.5t-227 -140t-268.5 -52q-152 0 -287.5 48.5t-237 139t-161 219t-59.5 289.5q0 75 7.5 143.5t24 136t43.5 137t66 146.5l252 -106q-39 -72 -63.5 -134.5t-38 -118t-18.5 -106t-5 -97.5q0 -89 40 -160t106.5 -120t153.5 -74.5t181 -24.5z
M1037 585q-29 3 -61 -17t-57.5 -54t-39 -76t-3.5 -82q9 -38 38.5 -58t80 -29.5t121 -11t161.5 -1.5q-3 42 -21 96.5t-49.5 104t-74.5 86t-95 42.5z" />
    <glyph glyph-name="uni06C1.init" unicode="&#x6c1;" horiz-adv-x="728" arabic-form="initial" 
d="M459 -467q-30 3 -54 15.5t-41 31.5t-26 43.5t-9 51.5q0 41 13 83t37 88t57.5 96t74.5 107q12 -8 21 -13.5t17.5 -10t17 -9.5t19.5 -11q-92 -143 -92 -222q0 -29 27 -52.5t90 -47.5q-20 -31 -42 -58.5t-43 -47.5t-38.5 -32t-27.5 -12h-1zM-20 256h33q42 0 92.5 7t94 22.5
t73 42t29.5 65.5q0 24 -14 71.5t-37 106t-52 122.5t-58 122l286 142q28 -63 55.5 -134t49.5 -144t35.5 -145.5t13.5 -138.5q0 -120 -40 -206t-112 -141.5t-172 -81.5t-220 -26h-57v316z" />
    <glyph glyph-name="uni06C1.medi" unicode="&#x6c1;" horiz-adv-x="1011" arabic-form="medial" 
d="M895 -596q-29 3 -51 14.5t-37.5 29.5t-23.5 40.5t-8 46.5q0 44 9.5 85.5t28 83.5t46 85.5t63.5 91.5l74 -45q-76 -103 -76 -192q0 -37 25.5 -60.5t85.5 -42.5q-12 -29 -31.5 -53.5t-40 -42.5t-38 -29t-26.5 -12zM443 325q-24 -60 -35 -120.5t-11 -100.5q0 -33 6.5 -86
t21 -110.5t36.5 -112t53 -91.5q-17 103 -3.5 195t59 164.5t123.5 121t190 65.5q25 4 52 5t48 1h48v-316h-47q-62 0 -108.5 -22t-79.5 -58.5t-53 -84t-29 -98t-7.5 -100.5t11.5 -91l-183 -102q-218 136 -313 308q-32 60 -55 123.5t-35 132.5q-16 -3 -31 -4.5t-32.5 -2
t-38.5 -1t-50 -0.5v316q66 0 96.5 1.5t33.5 11.5q4 12 13.5 34t21 45.5t22 44t16.5 30.5z" />
    <glyph glyph-name="uni06BE" unicode="&#x6be;" horiz-adv-x="1520" arabic-form="isolated" 
d="M68 311l211 -49q-35 60 -53 127.5t-18 136.5q0 106 40 203.5t121 167.5q-11 5 -19.5 10t-16.5 10l-16 9l193 284q43 -30 95 -61t108 -61.5t114 -59t114 -53.5q95 -44 165 -77.5t124 -66t97 -68.5t84 -84q52 -66 75 -144t23 -151q0 -112 -57.5 -211.5t-169.5 -166.5
q-31 -18 -72.5 -31t-86.5 -21.5t-89 -12.5t-80 -4q-85 0 -170 15t-163 47q-49 -14 -117 -22t-148 -8t-168.5 9t-178.5 28zM662 746q-32 5 -65 -19t-58.5 -62t-40 -83.5t-10.5 -84.5q3 -26 16 -53t32.5 -52.5t43 -45t46.5 -28.5q32 19 62.5 49.5t54.5 66.5t38.5 74t14.5 72
q0 28 -13 56t-32.5 51.5t-43.5 39.5t-45 19zM1055 600q0 -200 -96 -344h9q57 0 108 10.5t89.5 28.5t61 43t22.5 55q0 24 -16.5 51.5t-43.5 55t-62 53.5t-72 47z" />
    <glyph glyph-name="uni06D2" unicode="&#x6d2;" horiz-adv-x="1298" arabic-form="isolated" 
d="M775 256v-316h-346q-52 0 -81 -16t-29 -43q0 -5 4 -12t12 -14t21 -11.5t31 -4.5h911v-314h-892q-101 0 -173.5 26.5t-119 71.5t-69 103.5t-22.5 122.5q0 72 29.5 145t85 131t135.5 94.5t181 36.5h322z" />
    <glyph glyph-name="uni06D2.fina" unicode="&#x6d2;" horiz-adv-x="991" arabic-form="final" 
d="M1011 256v-316h-582q-52 0 -81 -16t-29 -43q0 -5 4 -12t12 -14t21 -11.5t31 -4.5h676v-314h-657q-101 0 -173.5 26.5t-119 71.5t-69 103.5t-22.5 122.5q0 72 29.5 145t85 131t135.5 94.5t181 36.5h558z" />
    <glyph glyph-name="uni06A9" unicode="&#x6a9;" horiz-adv-x="2138" arabic-form="isolated" 
d="M971 261q54 -1 127 -1.5t150.5 4.5t152.5 16.5t134.5 34.5t96 59t36.5 90q0 43 -36.5 95t-107.5 119.5t-176 153.5t-242 197l33 296l902 393l124 -294l-705 -301q56 -47 114 -97t112 -102.5t101 -107t82 -111t53.5 -114.5t16.5 -118q-5 -132 -52.5 -222.5t-123 -149.5
t-173 -91t-204 -47t-214 -17.5t-203.5 -2.5q-104 0 -215.5 8t-217.5 29.5t-201 60t-166 99.5t-113 147.5t-42 205.5q0 97 33.5 190t89.5 180l237 -173q-14 -25 -30.5 -51t-30 -53t-22.5 -55t-9 -56q0 -39 27.5 -69.5t76 -53t114 -38.5t142 -27t160.5 -17t169 -9z" />
    <glyph glyph-name="uni06A9.fina" unicode="&#x6a9;" horiz-adv-x="2320" arabic-form="final" 
d="M2340 -60h-43q-160 0 -281 53.5t-221 159.5q-29 -53 -84 -89.5t-125.5 -60t-152.5 -36.5t-165.5 -19t-163.5 -7t-147 -1q-110 3 -221.5 9t-214.5 24t-193 52.5t-156.5 94.5t-105 150.5t-38.5 219.5q0 43 9 93t25.5 99.5t39 95t50.5 80.5l236 -172q-13 -21 -28.5 -47
t-29.5 -55t-23.5 -59t-9.5 -57q0 -42 34 -74t91 -55.5t132.5 -39t159.5 -25t170.5 -13.5t166.5 -4q58 0 126 2.5t137 10t133.5 21.5t114.5 37t80 57t30 81q0 46 -26.5 97t-70 103.5t-98.5 105t-111.5 100t-109 88.5t-91.5 71l32 273l923 387l112 -278l-767 -311
q72 -57 138 -115t124 -120t107 -130t87 -146q29 -59 63.5 -118.5t79 -107.5t101.5 -78.5t132 -30.5h43v-316z" />
    <glyph glyph-name="uni06AF" unicode="&#x6af;" horiz-adv-x="2138" arabic-form="isolated" 
d="M971 261q54 -1 127 -1.5t150.5 4.5t152.5 16.5t134.5 34.5t96 59t36.5 90q0 43 -36.5 95t-107.5 119.5t-176 153.5t-242 197l33 296l902 393l124 -294l-705 -301q56 -47 114 -97t112 -102.5t101 -107t82 -111t53.5 -114.5t16.5 -118q-5 -132 -52.5 -222.5t-123 -149.5
t-173 -91t-204 -47t-214 -17.5t-203.5 -2.5q-104 0 -215.5 8t-217.5 29.5t-201 60t-166 99.5t-113 147.5t-42 205.5q0 97 33.5 190t89.5 180l237 -173q-14 -25 -30.5 -51t-30 -53t-22.5 -55t-9 -56q0 -39 27.5 -69.5t76 -53t114 -38.5t142 -27t160.5 -17t169 -9zM1165 1586
l765 319l55 -119l-828 -350z" />
    <glyph glyph-name="uni06AF.init" unicode="&#x6af;" horiz-adv-x="1022" arabic-form="initial" 
d="M-20 256h95q58 0 119 1t117 8.5t102.5 23.5t76 46t38.5 77t-11 116q-7 25 -30 60.5t-57.5 78t-79.5 89.5t-96 96.5t-107 99t-112 95.5l31 272l840 374l121 -268l-664 -308q49 -34 101 -81t101 -102.5t92 -117.5t75 -127t50.5 -131t17.5 -129q-1 -104 -39 -193.5
t-105 -155t-159.5 -103t-203.5 -37.5h-313v316zM52 1586l765 319l55 -119l-828 -350z" />
    <glyph glyph-name="uni06AF.medi" unicode="&#x6af;" horiz-adv-x="1188" arabic-form="medial" 
d="M-20 256h327q51 0 95 12t77 31.5t53 44t23 49.5q5 50 -15 108t-57 118.5t-87 121t-104 115.5t-107.5 102t-98.5 81l27 275l919 385l116 -275l-759 -310q69 -64 124.5 -124.5t102 -121t85 -121t72.5 -124.5q30 -56 63 -118.5t76.5 -116t100.5 -90.5t133 -42h62v-316h-31
q-70 0 -133 9.5t-120 31t-108.5 56t-98.5 84.5q-36 -48 -83 -82t-99.5 -56t-108.5 -32t-110 -11h-336v316zM139 1586l765 319l55 -119l-828 -350z" />
    <glyph glyph-name="uni06AF.fina" unicode="&#x6af;" horiz-adv-x="2320" arabic-form="final" 
d="M2340 -60h-43q-160 0 -281 53.5t-221 159.5q-29 -53 -84 -89.5t-125.5 -60t-152.5 -36.5t-165.5 -19t-163.5 -7t-147 -1q-110 3 -221.5 9t-214.5 24t-193 52.5t-156.5 94.5t-105 150.5t-38.5 219.5q0 43 9 93t25.5 99.5t39 95t50.5 80.5l236 -172q-13 -21 -28.5 -47
t-29.5 -55t-23.5 -59t-9.5 -57q0 -42 34 -74t91 -55.5t132.5 -39t159.5 -25t170.5 -13.5t166.5 -4q58 0 126 2.5t137 10t133.5 21.5t114.5 37t80 57t30 81q0 46 -26.5 97t-70 103.5t-98.5 105t-111.5 100t-109 88.5t-91.5 71l32 273l923 387l112 -278l-767 -311
q72 -57 138 -115t124 -120t107 -130t87 -146q29 -59 63.5 -118.5t79 -107.5t101.5 -78.5t132 -30.5h43v-316zM1217 1586l765 319l55 -119l-828 -350z" />
    <glyph glyph-name="uni06BA" unicode="&#x6ba;" horiz-adv-x="1630" arabic-form="isolated" 
d="M813 -749q-172 0 -313 44t-241.5 131.5t-156 218t-55.5 303.5q0 166 52.5 331t155.5 323l225 -162q-20 -27 -47 -81t-52 -123t-42 -146.5t-17 -149.5q0 -83 37.5 -150t100 -115t144 -75t169.5 -29q106 -2 204 27.5t171.5 83t115.5 127t38 159.5q-2 43 -16 97t-33.5 110.5
t-43 112t-44 101.5t-35.5 79t-19 45l272 151q4 -4 20 -39t37.5 -90.5t46 -126.5t44.5 -147t33.5 -151t13.5 -138q0 -89 -20 -177t-61.5 -168.5t-104 -149t-147.5 -119t-193 -79t-239 -28.5z" />
    <glyph glyph-name="uni06BA.fina" unicode="&#x6ba;" horiz-adv-x="1709" arabic-form="final" 
d="M1697 -60q-23 0 -41.5 2t-36.5 5.5t-36.5 9t-40.5 12.5q0 -170 -62 -303.5t-169 -225t-251 -139.5t-310 -48q-167 0 -303 47t-232 136t-148 217.5t-52 290.5q0 86 12 163.5t37 155.5t62.5 160t88.5 177l225 -162q-29 -52 -56 -116.5t-47.5 -133t-33 -136.5t-12.5 -127
q0 -78 38 -143t100.5 -111.5t142.5 -73t165 -27.5q117 -2 214 18.5t167 65.5t108.5 116t38.5 171q0 58 -17 123.5t-44.5 136t-64 145t-75.5 152.5l273 173l101 -195q41 -83 76 -127.5t66.5 -65t60 -24t56.5 -3.5h32v-316h-32z" />
    <glyph glyph-name="uni062F.fina" unicode="&#x62f;" horiz-adv-x="1262" arabic-form="final" 
d="M534 -60q-131 0 -256.5 50t-232.5 161l181 255q49 -45 95 -73.5t88 -44.5t79.5 -22t70.5 -6q27 0 58 3.5t61.5 11.5t57.5 20t47 30q-38 92 -82.5 191.5t-89.5 200t-89 199.5t-82 190l292 122l330 -797q18 -44 33 -77t35.5 -55t49 -32.5t73.5 -10.5h29v-316h-29
q-61 0 -107.5 8t-83 22.5t-65 35t-53.5 45.5q-46 -31 -92 -52.5t-96 -34.5t-104.5 -18.5t-117.5 -5.5z" />
    <glyph glyph-name="uni06C1.fina" unicode="&#x6c1;" horiz-adv-x="1347" arabic-form="final" 
d="M1367 256v-316h-40q-69 0 -127 21t-107.5 55.5t-92 78.5t-81 90t-74 90t-71 78.5t-72 55.5t-76.5 21q-59 0 -99.5 -29.5t-71 -82t-54.5 -124.5t-49 -156l-304 78q34 132 81 244.5t115 194.5t161.5 128.5t220.5 46.5q82 0 150.5 -25.5t126.5 -66.5t107.5 -93t94.5 -105
q37 -44 66.5 -78t55 -57.5t49 -36t48.5 -12.5h43z" />
    <glyph glyph-name="uni0686" unicode="&#x686;" horiz-adv-x="1647" arabic-form="isolated" 
d="M1525 -595q-60 -54 -139 -100.5t-169.5 -81t-190.5 -54t-202 -19.5q-167 0 -311.5 46.5t-251.5 136.5t-168.5 222.5t-61.5 305.5q0 108 44.5 203.5t122 177t180.5 148t220.5 115t242 78.5t244.5 40q-58 19 -119.5 51t-122.5 63t-120 53t-111 20q-50 -2 -95 -20t-85 -45.5
t-75.5 -62.5t-66.5 -70l-221 161q51 73 102.5 136.5t113.5 111t141 75.5t185 31q63 2 125 -15t122.5 -45.5t118.5 -64t113 -71.5q54 -36 95.5 -64.5t76.5 -51t65 -39.5t61 -30t65.5 -23t77.5 -18l-95 -333l-93 2q-71 0 -152.5 -9.5t-167.5 -27.5t-172.5 -44.5t-166.5 -60.5
t-149 -75.5t-121 -90t-82.5 -103t-32.5 -115.5q-2 -67 20 -121t62 -95.5t94.5 -71.5t118 -49t132 -28t136.5 -9t133.5 8.5t130 28t128 51.5t128.5 80l143 -237v0zM896 -28.6904l175.699 175.769l181.307 -180.443l-179.438 -180.442l-177.568 177.638l-175.699 -175.768
l-181.307 180.442l179.438 180.442zM728.712 -301.691l166.354 166.418l167.288 -167.354l-166.354 -166.418z" />
    <glyph glyph-name="uni0686.fina" unicode="&#x686;" horiz-adv-x="1702" arabic-form="final" 
d="M1569 -595q-80 -57 -165 -103.5t-175.5 -79.5t-187 -51t-198.5 -18q-167 0 -312 46t-252.5 134t-169.5 215.5t-62 291.5v24q0 12 1 24q9 104 60 196t132.5 170.5t188 142t227 110t249 75.5t253.5 38q-53 29 -120.5 62.5t-139 62.5t-140 48.5t-123.5 19.5
q-36 0 -78.5 -14.5t-83 -39.5t-75 -59t-55.5 -73l-225 153q44 77 99 141.5t119.5 111t139.5 72t159 25.5q63 0 127 -15.5t126.5 -41t122 -58.5t114.5 -69q82 -53 149.5 -92.5t128 -68t119.5 -48t124 -32.5l-93 -315l-170 -23q13 -36 49.5 -58t82.5 -34t95.5 -15.5t89.5 -3.5
h22v-316h-22q-122 0 -214 20.5t-159.5 54t-113 75.5t-74 85t-43 83t-19.5 69q-84 -16 -172 -40t-171.5 -56.5t-157 -72t-129.5 -86.5t-89 -101t-35 -114q-3 -101 45.5 -173t128.5 -118t181 -67.5t203 -21.5q67 0 138 11t141 31.5t137.5 50.5t127.5 68l144 -233v0z
M856 -50.9141l170.283 170.077l175.718 -174.601l-173.906 -174.6l-172.095 171.886l-170.283 -170.076l-175.718 174.6l173.906 174.6zM693.869 -315.075l161.225 161.029l162.132 -161.935l-161.226 -161.029z" />
    <glyph glyph-name="uni0623" unicode="&#x623;" horiz-adv-x="599" arabic-form="isolated" 
d="M187 -63q5 82 10 170t8.5 174t4.5 167t-2 149q-6 150 -12 262.5t-11.5 198t-11.5 149t-13 116.5l308 98q14 -114 22.5 -225.5t13.5 -212t6.5 -187t1.5 -150.5q0 -69 -0.5 -149t-2 -166t-4.5 -174t-9 -172l-309 -48v0zM414 1917q-26 4 -46.5 8t-39 6.5t-36 1t-36.5 -8.5
q-20 -8 -36 -21t-26.5 -31t-12.5 -39.5t7 -46.5q6 -18 21.5 -29.5t33.5 -18.5t37 -8t33 2t23.5 6t26.5 10.5t48 23.5t89 46l76 -102l-257 -150l-240 -133l-62 113l166 93q-34 20 -60.5 50t-41.5 65q-17 42 -14.5 85t20.5 82t49 70.5t72 49.5q25 11 51 15.5t53 4.5
q13 0 25.5 -1t28 -3.5t36 -7t49.5 -11.5z" />
    <glyph glyph-name="uni0623.fina" unicode="&#x623;" horiz-adv-x="640" arabic-form="final" 
d="M632 -60q-125 0 -212 33.5t-142 92.5t-79.5 139.5t-24.5 174.5q0 48 2 119.5t2 165.5q0 72 -0.5 157t-3 173t-6.5 175t-11 164l299 89q6 -65 10.5 -137.5t7 -145.5t4 -144t2.5 -134q1 -75 -2.5 -157.5t-5.5 -158t1.5 -136.5t18.5 -93q9 -23 22.5 -35t31.5 -18t39.5 -7
t47.5 -1h27v-316h-28zM434 1917q-26 4 -46.5 8t-39 6.5t-36 1t-36.5 -8.5q-20 -8 -36 -21t-26.5 -31t-12.5 -39.5t7 -46.5q6 -18 21.5 -29.5t33.5 -18.5t37 -8t33 2t23.5 6t26.5 10.5t48 23.5t89 46l76 -102l-257 -150l-240 -133l-62 113l166 93q-34 20 -60.5 50t-41.5 65
q-17 42 -14.5 85t20.5 82t49 70.5t72 49.5q25 11 51 15.5t53 4.5q13 0 25.5 -1t28 -3.5t36 -7t49.5 -11.5z" />
    <glyph glyph-name="uni0625" unicode="&#x625;" horiz-adv-x="601" arabic-form="isolated" 
d="M163 -63q5 82 10 170t8.5 174t4.5 167t-2 149q-6 150 -12 262.5t-11.5 198t-11.5 149t-13 116.5l308 98q14 -114 22.5 -225.5t13.5 -212t6.5 -187t1.5 -150.5q0 -69 -0.5 -149t-2 -166t-4.5 -174t-9 -172l-309 -48v0zM414 -249q-26 4 -46.5 8t-39 6.5t-36 1t-36.5 -8.5
q-20 -8 -36 -21t-26.5 -31t-12.5 -39.5t7 -46.5q6 -18 21.5 -29.5t33.5 -18.5t37 -8t33 2t23.5 6t26.5 10.5t48 23.5t89 46l76 -102l-257 -150l-240 -133l-62 113l166 93q-34 20 -60.5 50t-41.5 65q-17 42 -14.5 85t20.5 82t49 70.5t72 49.5q25 11 51 15.5t53 4.5
q13 0 25.5 -1t28 -3.5t36 -7t49.5 -11.5z" />
    <glyph glyph-name="uni0625.fina" unicode="&#x625;" horiz-adv-x="640" arabic-form="final" 
d="M632 -60q-125 0 -212 33.5t-142 92.5t-79.5 139.5t-24.5 174.5q0 48 2 119.5t2 165.5q0 72 -0.5 157t-3 173t-6.5 175t-11 164l299 89q6 -65 10.5 -137.5t7 -145.5t4 -144t2.5 -134q1 -75 -2.5 -157.5t-5.5 -158t1.5 -136.5t18.5 -93q9 -23 22.5 -35t31.5 -18t39.5 -7
t47.5 -1h27v-316h-28zM448 -249q-26 4 -46.5 8t-39 6.5t-36 1t-36.5 -8.5q-20 -8 -36 -21t-26.5 -31t-12.5 -39.5t7 -46.5q6 -18 21.5 -29.5t33.5 -18.5t37 -8t33 2t23.5 6t26.5 10.5t48 23.5t89 46l76 -102l-257 -150l-240 -133l-62 113l166 93q-34 20 -60.5 50t-41.5 65
q-17 42 -14.5 85t20.5 82t49 70.5t72 49.5q25 11 51 15.5t53 4.5q13 0 25.5 -1t28 -3.5t36 -7t49.5 -11.5z" />
    <glyph glyph-name="uni0622" unicode="&#x622;" horiz-adv-x="707" arabic-form="isolated" 
d="M217 -63q5 82 10 170t8.5 174t4.5 167t-2 149q-6 150 -12 262.5t-11.5 198t-11.5 149t-13 116.5l308 98q14 -114 22.5 -225.5t13.5 -212t6.5 -187t1.5 -150.5q0 -69 -0.5 -149t-2 -166t-4.5 -174t-9 -172l-309 -48v0zM-47 1529q9 50 35 96t62 81t79.5 55.5t89.5 20.5
q47 0 83.5 -11t68.5 -25q43 -18 75.5 -23.5t60 3.5t53 32t54.5 61l137 -88q-1 -3 -11 -17t-27.5 -34t-42.5 -42.5t-56 -42t-67 -32.5t-76 -14t-73 9t-64 22t-63.5 21.5t-70.5 8.5q-26 -1 -42 -16.5t-25 -36.5t-13.5 -43t-8.5 -34z" />
    <glyph glyph-name="uni0622.fina" unicode="&#x622;" horiz-adv-x="640" arabic-form="final" 
d="M632 -60q-125 0 -212 33.5t-142 92.5t-79.5 139.5t-24.5 174.5q0 48 2 119.5t2 165.5q0 72 -0.5 157t-3 173t-6.5 175t-11 164l299 89q6 -65 10.5 -137.5t7 -145.5t4 -144t2.5 -134q1 -75 -2.5 -157.5t-5.5 -158t1.5 -136.5t18.5 -93q9 -23 22.5 -35t31.5 -18t39.5 -7
t47.5 -1h27v-316h-28zM-47 1529q9 50 35 96t62 81t79.5 55.5t89.5 20.5q47 0 83.5 -11t68.5 -25q43 -18 75.5 -23.5t60 3.5t53 32t54.5 61l137 -88q-1 -3 -11 -17t-27.5 -34t-42.5 -42.5t-56 -42t-67 -32.5t-76 -14t-73 9t-64 22t-63.5 21.5t-70.5 8.5q-26 -1 -42 -16.5
t-25 -36.5t-13.5 -43t-8.5 -34z" />
    <glyph glyph-name="uni0671" unicode="&#x671;" horiz-adv-x="509" arabic-form="isolated" 
d="M127 -63q5 82 10 170t8.5 174t4.5 167t-2 149q-6 150 -12 262.5t-11.5 198t-11.5 149t-13 116.5l308 98q14 -114 22.5 -225.5t13.5 -212t6.5 -187t1.5 -150.5q0 -69 -0.5 -149t-2 -166t-4.5 -174t-9 -172l-309 -48v0zM516 1770q-2 19 -13.5 29t-27 13.5t-31.5 3t-26 -1.5
q-27 -4 -50 -16t-43 -29t-36.5 -37.5t-31.5 -41.5q20 -6 47.5 -9t57 -1t58 8t50.5 17t35 27t11 38zM608 1772q-2 -58 -26.5 -95t-59.5 -59t-73.5 -31t-66.5 -11q-83 -7 -134 5t-84 29t-55.5 32t-48.5 14q-12 0 -25 -5.5t-26 -14t-25.5 -18t-22.5 -18.5l-35 103
q30 21 60.5 39t67.5 20q33 2 57 -6.5t47 -24.5q24 40 53.5 76.5t64 64t74.5 43.5t87 16q34 0 65 -12.5t54 -34t37 -50.5t15 -62z" />
    <glyph glyph-name="uni0671.fina" unicode="&#x671;" horiz-adv-x="640" arabic-form="final" 
d="M632 -60q-125 0 -212 33.5t-142 92.5t-79.5 139.5t-24.5 174.5q0 48 2 119.5t2 165.5q0 72 -0.5 157t-3 173t-6.5 175t-11 164l299 89q6 -65 10.5 -137.5t7 -145.5t4 -144t2.5 -134q1 -75 -2.5 -157.5t-5.5 -158t1.5 -136.5t18.5 -93q9 -23 22.5 -35t31.5 -18t39.5 -7
t47.5 -1h27v-316h-28zM572 1770q-2 19 -13.5 29t-27 13.5t-31.5 3t-26 -1.5q-27 -4 -50 -16t-43 -29t-36.5 -37.5t-31.5 -41.5q20 -6 47.5 -9t57 -1t58 8t50.5 17t35 27t11 38zM664 1772q-2 -58 -26.5 -95t-59.5 -59t-73.5 -31t-66.5 -11q-83 -7 -134 5t-84 29t-55.5 32
t-48.5 14q-12 0 -25 -5.5t-26 -14t-25.5 -18t-22.5 -18.5l-35 103q30 21 60.5 39t67.5 20q33 2 57 -6.5t47 -24.5q24 40 53.5 76.5t64 64t74.5 43.5t87 16q34 0 65 -12.5t54 -34t37 -50.5t15 -62z" />
    <glyph glyph-name="uni0628" unicode="&#x628;" horiz-adv-x="2013" arabic-form="isolated" 
d="M994 -60q-90 0 -194 7t-208 28t-201.5 59t-174 99t-125 148.5t-54.5 208.5q0 59 13 114.5t34.5 108.5t49 104.5t56.5 103.5l235 -197q-15 -21 -35 -54.5t-38.5 -70.5t-31 -74.5t-12.5 -65.5q0 -37 27.5 -66t75 -51.5t113 -38t142 -26t160 -15t168.5 -4.5q71 0 161.5 7
t186.5 22.5t191 40t174 59.5q-12 47 -28.5 90t-40.5 89.5t-57 99.5t-78 121l246 160q18 -29 42 -71t48.5 -90.5t48 -102.5t42 -108t28.5 -105.5t8 -96.5q-5 -84 -58 -148.5t-135.5 -112.5t-186 -81t-210 -53t-206.5 -29t-176 -9zM990 -608l-222 222l222 222l222 -222z" />
    <glyph glyph-name="uni0628.init" unicode="&#x628;" horiz-adv-x="715" arabic-form="initial" 
d="M-20 256h135q42 0 92.5 7t94 22.5t73 42t29.5 65.5q0 24 -14 71.5t-37 106t-52 122.5t-58 122l286 142q28 -63 55.5 -134t49.5 -144t35.5 -145.5t13.5 -138.5q0 -120 -40 -206t-112 -141.5t-172 -81.5t-220 -26h-159v316zM303 -608l-222 222l222 222l222 -222z" />
    <glyph glyph-name="uni0628.medi" unicode="&#x628;" horiz-adv-x="705" arabic-form="medial" 
d="M725 256v-316h-22q-97 0 -164 27t-117 74q-72 -53 -169.5 -77t-235.5 -24h-37v316h37q138 0 208 45t70 135q0 30 -8 84.5t-33 143.5l283 69q16 -55 26.5 -97.5t16.5 -77.5t9 -64.5t5 -57.5t6 -59.5t15.5 -58.5t32 -44.5t55.5 -17.5h22zM336 -608l-222 222l222 222
l222 -222z" />
    <glyph glyph-name="uni0628.fina" unicode="&#x628;" horiz-adv-x="2316" arabic-form="final" 
d="M2300 -60q-83 0 -151 13t-124.5 41t-101.5 72.5t-81 107.5q-142 -121 -343.5 -179t-470.5 -58q-350 0 -578 77.5t-326 241.5q-32 53 -46 122t-8.5 151t32 173.5t76.5 189.5l238 -138q-20 -39 -38 -84.5t-27.5 -91t-9 -88t18.5 -75.5q30 -56 95.5 -88t155 -48t196.5 -19.5
t221 -3.5q105 0 199 7.5t173.5 24t144 43t110.5 64.5q42 34 69 75t46 86.5t31.5 95.5t24.5 101l280 -71l-41 -212q-9 -46 2 -85t41 -67.5t78.5 -45t113.5 -16.5h36v-316h-36v0zM1058 -608l-222 222l222 222l222 -222z" />
    <glyph glyph-name="uni067E" unicode="&#x67e;" horiz-adv-x="2013" arabic-form="isolated" 
d="M994 -60q-90 0 -194 7t-208 28t-201.5 59t-174 99t-125 148.5t-54.5 208.5q0 59 13 114.5t34.5 108.5t49 104.5t56.5 103.5l235 -197q-15 -21 -35 -54.5t-38.5 -70.5t-31 -74.5t-12.5 -65.5q0 -37 27.5 -66t75 -51.5t113 -38t142 -26t160 -15t168.5 -4.5q71 0 161.5 7
t186.5 22.5t191 40t174 59.5q-12 47 -28.5 90t-40.5 89.5t-57 99.5t-78 121l246 160q18 -29 42 -71t48.5 -90.5t48 -102.5t42 -108t28.5 -105.5t8 -96.5q-5 -84 -58 -148.5t-135.5 -112.5t-186 -81t-210 -53t-206.5 -29t-176 -9zM996 -389l188 188l194 -193l-192 -193
l-190 190l-188 -188l-194 193l192 193zM817 -681l178 178l179 -179l-178 -178z" />
    <glyph glyph-name="uni067E.fina" unicode="&#x67e;" horiz-adv-x="2316" arabic-form="final" 
d="M2300 -60q-83 0 -151 13t-124.5 41t-101.5 72.5t-81 107.5q-142 -121 -343.5 -179t-470.5 -58q-350 0 -578 77.5t-326 241.5q-32 53 -46 122t-8.5 151t32 173.5t76.5 189.5l238 -138q-20 -39 -38 -84.5t-27.5 -91t-9 -88t18.5 -75.5q30 -56 95.5 -88t155 -48t196.5 -19.5
t221 -3.5q105 0 199 7.5t173.5 24t144 43t110.5 64.5q42 34 69 75t46 86.5t31.5 95.5t24.5 101l280 -71l-41 -212q-9 -46 2 -85t41 -67.5t78.5 -45t113.5 -16.5h36v-316h-36v0zM1005 -389l188 188l194 -193l-192 -193l-190 190l-188 -188l-194 193l192 193zM826 -681
l178 178l179 -179l-178 -178z" />
    <glyph glyph-name="uni067E.init" unicode="&#x67e;" horiz-adv-x="843" arabic-form="initial" 
d="M-20 256h240q43 0 95 4.5t97.5 18.5t76 41.5t30.5 72.5q0 24 -14.5 71.5t-38 106t-53 122.5t-58.5 122l286 142q28 -63 55.5 -134t49.5 -144t35.5 -145.5t13.5 -138.5q0 -124 -45.5 -210.5t-123.5 -141t-183 -79t-225 -24.5h-238v316zM383 -389l188 188l194 -193
l-192 -193l-190 190l-188 -188l-194 193l192 193zM204 -681l178 178l179 -179l-178 -178z" />
    <glyph glyph-name="uni067E.medi" unicode="&#x67e;" horiz-adv-x="852" arabic-form="medial" 
d="M872 256v-316h-23q-48 0 -94.5 8t-87.5 22.5t-75.5 34.5t-59.5 43q-47 -36 -107.5 -57t-128 -32.5t-139 -15t-140.5 -3.5h-37v316h37q72 0 128.5 4t99 14t71.5 26.5t47 41.5q23 32 28.5 71t1 80.5t-15.5 83t-20 79.5l291 83q12 -45 20.5 -82t15 -72t11.5 -71t11 -78
q4 -27 10.5 -58.5t21.5 -58.5t41.5 -45t69.5 -18h23zM383 -389l188 188l194 -193l-192 -193l-190 190l-188 -188l-194 193l192 193zM204 -681l178 178l179 -179l-178 -178z" />
    <glyph glyph-name="uni062A" unicode="&#x62a;" horiz-adv-x="2013" arabic-form="isolated" 
d="M994 -60q-90 0 -194 7t-208 28t-201.5 59t-174 99t-125 148.5t-54.5 208.5q0 59 13 114.5t34.5 108.5t49 104.5t56.5 103.5l235 -197q-15 -21 -35 -54.5t-38.5 -70.5t-31 -74.5t-12.5 -65.5q0 -37 27.5 -66t75 -51.5t113 -38t142 -26t160 -15t168.5 -4.5q71 0 161.5 7
t186.5 22.5t191 40t174 59.5q-12 47 -28.5 90t-40.5 89.5t-57 99.5t-78 121l246 160q18 -29 42 -71t48.5 -90.5t48 -102.5t42 -108t28.5 -105.5t8 -96.5q-5 -84 -58 -148.5t-135.5 -112.5t-186 -81t-210 -53t-206.5 -29t-176 -9zM1011 1005l-188 -188l-194 193l192 193
l190 -190l188 188l194 -193l-192 -193z" />
    <glyph glyph-name="uni062A.init" unicode="&#x62a;" horiz-adv-x="843" arabic-form="initial" 
d="M-20 256h240q43 0 95 4.5t97.5 18.5t76 41.5t30.5 72.5q0 24 -14.5 71.5t-38 106t-53 122.5t-58.5 122l286 142q28 -63 55.5 -134t49.5 -144t35.5 -145.5t13.5 -138.5q0 -124 -45.5 -210.5t-123.5 -141t-183 -79t-225 -24.5h-238v316zM446 1287l-188 -188l-194 193
l192 193l190 -190l188 188l194 -193l-192 -193z" />
    <glyph glyph-name="uni062A.medi" unicode="&#x62a;" horiz-adv-x="852" arabic-form="medial" 
d="M872 256v-316h-23q-48 0 -94.5 8t-87.5 22.5t-75.5 34.5t-59.5 43q-47 -36 -107.5 -57t-128 -32.5t-139 -15t-140.5 -3.5h-37v316h37q72 0 128.5 4t99 14t71.5 26.5t47 41.5q23 32 28.5 71t1 80.5t-15.5 83t-20 79.5l291 83q12 -45 20.5 -82t15 -72t11.5 -71t11 -78
q4 -27 10.5 -58.5t21.5 -58.5t41.5 -45t69.5 -18h23zM446 1131l-188 -188l-194 193l192 193l190 -190l188 188l194 -193l-192 -193z" />
    <glyph glyph-name="uni062A.fina" unicode="&#x62a;" horiz-adv-x="2316" arabic-form="final" 
d="M2300 -60q-83 0 -151 13t-124.5 41t-101.5 72.5t-81 107.5q-142 -121 -343.5 -179t-470.5 -58q-350 0 -578 77.5t-326 241.5q-32 53 -46 122t-8.5 151t32 173.5t76.5 189.5l238 -138q-20 -39 -38 -84.5t-27.5 -91t-9 -88t18.5 -75.5q30 -56 95.5 -88t155 -48t196.5 -19.5
t221 -3.5q105 0 199 7.5t173.5 24t144 43t110.5 64.5q42 34 69 75t46 86.5t31.5 95.5t24.5 101l280 -71l-41 -212q-9 -46 2 -85t41 -67.5t78.5 -45t113.5 -16.5h36v-316h-36v0zM1111 1005l-188 -188l-194 193l192 193l190 -190l188 188l194 -193l-192 -193z" />
    <glyph glyph-name="uni062B" unicode="&#x62b;" horiz-adv-x="2013" arabic-form="isolated" 
d="M994 -60q-90 0 -194 7t-208 28t-201.5 59t-174 99t-125 148.5t-54.5 208.5q0 59 13 114.5t34.5 108.5t49 104.5t56.5 103.5l235 -197q-15 -21 -35 -54.5t-38.5 -70.5t-31 -74.5t-12.5 -65.5q0 -37 27.5 -66t75 -51.5t113 -38t142 -26t160 -15t168.5 -4.5q71 0 161.5 7
t186.5 22.5t191 40t174 59.5q-12 47 -28.5 90t-40.5 89.5t-57 99.5t-78 121l246 160q18 -29 42 -71t48.5 -90.5t48 -102.5t42 -108t28.5 -105.5t8 -96.5q-5 -84 -58 -148.5t-135.5 -112.5t-186 -81t-210 -53t-206.5 -29t-176 -9zM1012 992l-188 -188l-194 193l192 193
l190 -190l188 188l194 -193l-192 -193zM1191 1284l-178 -178l-179 179l178 178z" />
    <glyph glyph-name="uni062B.init" unicode="&#x62b;" horiz-adv-x="843" arabic-form="initial" 
d="M-20 256h240q43 0 95 4.5t97.5 18.5t76 41.5t30.5 72.5q0 24 -14.5 71.5t-38 106t-53 122.5t-58.5 122l286 142q28 -63 55.5 -134t49.5 -144t35.5 -145.5t13.5 -138.5q0 -124 -45.5 -210.5t-123.5 -141t-183 -79t-225 -24.5h-238v316zM418 1292l-188 -188l-194 193
l192 193l190 -190l188 188l194 -193l-192 -193zM597 1584l-178 -178l-179 179l178 178z" />
    <glyph glyph-name="uni062B.medi" unicode="&#x62b;" horiz-adv-x="852" arabic-form="medial" 
d="M872 256v-316h-23q-48 0 -94.5 8t-87.5 22.5t-75.5 34.5t-59.5 43q-47 -36 -107.5 -57t-128 -32.5t-139 -15t-140.5 -3.5h-37v316h37q72 0 128.5 4t99 14t71.5 26.5t47 41.5q23 32 28.5 71t1 80.5t-15.5 83t-20 79.5l291 83q12 -45 20.5 -82t15 -72t11.5 -71t11 -78
q4 -27 10.5 -58.5t21.5 -58.5t41.5 -45t69.5 -18h23zM418 1132l-188 -188l-194 193l192 193l190 -190l188 188l194 -193l-192 -193zM597 1424l-178 -178l-179 179l178 178z" />
    <glyph glyph-name="uni062B.fina" unicode="&#x62b;" horiz-adv-x="2316" arabic-form="final" 
d="M2300 -60q-83 0 -151 13t-124.5 41t-101.5 72.5t-81 107.5q-142 -121 -343.5 -179t-470.5 -58q-350 0 -578 77.5t-326 241.5q-32 53 -46 122t-8.5 151t32 173.5t76.5 189.5l238 -138q-20 -39 -38 -84.5t-27.5 -91t-9 -88t18.5 -75.5q30 -56 95.5 -88t155 -48t196.5 -19.5
t221 -3.5q105 0 199 7.5t173.5 24t144 43t110.5 64.5q42 34 69 75t46 86.5t31.5 95.5t24.5 101l280 -71l-41 -212q-9 -46 2 -85t41 -67.5t78.5 -45t113.5 -16.5h36v-316h-36v0zM1110 992l-188 -188l-194 193l192 193l190 -190l188 188l194 -193l-192 -193zM1289 1284
l-178 -178l-179 179l178 178z" />
    <glyph glyph-name="uni0679" unicode="&#x679;" horiz-adv-x="2013" arabic-form="isolated" 
d="M994 -60q-90 0 -194 7t-208 28t-201.5 59t-174 99t-125 148.5t-54.5 208.5q0 59 13 114.5t34.5 108.5t49 104.5t56.5 103.5l235 -197q-15 -21 -35 -54.5t-38.5 -70.5t-31 -74.5t-12.5 -65.5q0 -37 27.5 -66t75 -51.5t113 -38t142 -26t160 -15t168.5 -4.5q71 0 161.5 7
t186.5 22.5t191 40t174 59.5q-12 47 -28.5 90t-40.5 89.5t-57 99.5t-78 121l246 160q18 -29 42 -71t48.5 -90.5t48 -102.5t42 -108t28.5 -105.5t8 -96.5q-5 -84 -58 -148.5t-135.5 -112.5t-186 -81t-210 -53t-206.5 -29t-176 -9zM1001 812q-44 0 -85.5 3.5t-84 12
t-86.5 21.5t-92 32l43 107q35 -14 62 -23t51 -15q12 15 25 33.5t32 54.5q4 16 4.5 43t-1 58.5t-4.5 65t-5 62.5q-2 23 -4 45.5t-5 48.5t-7 56.5t-9 68.5l116 32q8 -93 19 -184t12 -188q91 79 180 94q34 5 70.5 -3t68 -27.5t53.5 -49.5t25 -69q4 -53 -13.5 -94t-49 -72
t-73.5 -52.5t-85.5 -35t-84.5 -19.5t-72 -6zM918 929q23 -1 38 -1h29q26 0 62 3t74 11.5t74.5 23.5t63.5 39q14 14 22.5 31.5t8.5 31.5q0 28 -30 45.5t-80 12.5q-29 -3 -63.5 -20.5t-70 -44.5t-68.5 -61.5t-60 -70.5z" />
    <glyph glyph-name="uni0679.init" unicode="&#x679;" horiz-adv-x="843" arabic-form="initial" 
d="M-20 256h240q43 0 95 4.5t97.5 18.5t76 41.5t30.5 72.5q0 24 -14.5 71.5t-38 106t-53 122.5t-58.5 122l286 142q28 -63 55.5 -134t49.5 -144t35.5 -145.5t13.5 -138.5q0 -124 -45.5 -210.5t-123.5 -141t-183 -79t-225 -24.5h-238v316zM403 1104q-44 0 -85.5 3.5t-84 12
t-86.5 21.5t-92 32l43 107q35 -14 62 -23t51 -15q12 15 25 33.5t32 54.5q4 16 4.5 43t-1 58.5t-4.5 65t-5 62.5q-2 23 -4 45.5t-5 48.5t-7 56.5t-9 68.5l116 32q8 -93 19 -184t12 -188q91 79 180 94q34 5 70.5 -3t68 -27.5t53.5 -49.5t25 -69q4 -53 -13.5 -94t-49 -72
t-73.5 -52.5t-85.5 -35t-84.5 -19.5t-72 -6zM320 1221q23 -1 38 -1h29q26 0 62 3t74 11.5t74.5 23.5t63.5 39q14 14 22.5 31.5t8.5 31.5q0 28 -30 45.5t-80 12.5q-29 -3 -63.5 -20.5t-70 -44.5t-68.5 -61.5t-60 -70.5z" />
    <glyph glyph-name="uni0679.medi" unicode="&#x679;" horiz-adv-x="852" arabic-form="medial" 
d="M872 256v-316h-23q-48 0 -94.5 8t-87.5 22.5t-75.5 34.5t-59.5 43q-47 -36 -107.5 -57t-128 -32.5t-139 -15t-140.5 -3.5h-37v316h37q72 0 128.5 4t99 14t71.5 26.5t47 41.5q23 32 28.5 71t1 80.5t-15.5 83t-20 79.5l291 83q12 -45 20.5 -82t15 -72t11.5 -71t11 -78
q4 -27 10.5 -58.5t21.5 -58.5t41.5 -45t69.5 -18h23zM403 947q-44 0 -85.5 3.5t-84 12t-86.5 21.5t-92 32l43 107q35 -14 62 -23t51 -15q12 15 25 33.5t32 54.5q4 16 4.5 43t-1 58.5t-4.5 65t-5 62.5q-2 23 -4 45.5t-5 48.5t-7 56.5t-9 68.5l116 32q8 -93 19 -184t12 -188
q91 79 180 94q34 5 70.5 -3t68 -27.5t53.5 -49.5t25 -69q4 -53 -13.5 -94t-49 -72t-73.5 -52.5t-85.5 -35t-84.5 -19.5t-72 -6zM320 1064q23 -1 38 -1h29q26 0 62 3t74 11.5t74.5 23.5t63.5 39q14 14 22.5 31.5t8.5 31.5q0 28 -30 45.5t-80 12.5q-29 -3 -63.5 -20.5
t-70 -44.5t-68.5 -61.5t-60 -70.5z" />
    <glyph glyph-name="uni0679.fina" unicode="&#x679;" horiz-adv-x="2316" arabic-form="final" 
d="M2300 -60q-83 0 -151 13t-124.5 41t-101.5 72.5t-81 107.5q-142 -121 -343.5 -179t-470.5 -58q-350 0 -578 77.5t-326 241.5q-32 53 -46 122t-8.5 151t32 173.5t76.5 189.5l238 -138q-20 -39 -38 -84.5t-27.5 -91t-9 -88t18.5 -75.5q30 -56 95.5 -88t155 -48t196.5 -19.5
t221 -3.5q105 0 199 7.5t173.5 24t144 43t110.5 64.5q42 34 69 75t46 86.5t31.5 95.5t24.5 101l280 -71l-41 -212q-9 -46 2 -85t41 -67.5t78.5 -45t113.5 -16.5h36v-316h-36v0zM1108 812q-44 0 -85.5 3.5t-84 12t-86.5 21.5t-92 32l43 107q35 -14 62 -23t51 -15
q12 15 25 33.5t32 54.5q4 16 4.5 43t-1 58.5t-4.5 65t-5 62.5q-2 23 -4 45.5t-5 48.5t-7 56.5t-9 68.5l116 32q8 -93 19 -184t12 -188q91 79 180 94q34 5 70.5 -3t68 -27.5t53.5 -49.5t25 -69q4 -53 -13.5 -94t-49 -72t-73.5 -52.5t-85.5 -35t-84.5 -19.5t-72 -6zM1025 929
q23 -1 38 -1h29q26 0 62 3t74 11.5t74.5 23.5t63.5 39q14 14 22.5 31.5t8.5 31.5q0 28 -30 45.5t-80 12.5q-29 -3 -63.5 -20.5t-70 -44.5t-68.5 -61.5t-60 -70.5z" />
    <glyph glyph-name="uni0629" unicode="&#x629;" horiz-adv-x="990" arabic-form="isolated" 
d="M485 -60q-81 0 -163.5 28t-150 80.5t-110 128t-42.5 170.5q0 200 177 415q14 17 23.5 28t17.5 20t15 16l18 18l-61 52l199 243q51 -38 121.5 -102.5t164.5 -164.5q259 -295 259 -525q0 -100 -41 -176t-107 -127.5t-150 -77.5t-170 -26zM679 347q0 31 -20 70t-52.5 81.5
t-72.5 86t-80 83.5q-27 -30 -57 -67.5t-55 -79.5t-41 -86.5t-14 -87.5q1 -24 23 -42t52.5 -29t64.5 -16.5t58 -5.5q30 0 64.5 4.5t63 15.5t47.5 29t19 44zM470 1392l-188 -188l-194 193l192 193l190 -190l188 188l194 -193l-192 -193z" />
    <glyph glyph-name="uni0629.fina" unicode="&#x629;" horiz-adv-x="1090" arabic-form="final" 
d="M544 80q-98 0 -184 20t-150 62t-101 107t-37 156q0 69 25.5 130.5t67 115t94 98t106 79.5t103 59t86.5 37q-1 12 -2 24.5t-2 30.5t-3 42t-5 59l312 67q21 -188 40 -343t33.5 -267t24 -176t11.5 -68q15 -32 44.5 -44.5t80.5 -12.5h22v-316h-29q-42 0 -97 7.5t-115 35.5
q-42 20 -73.5 45.5t-60.5 64.5q-51 -7 -98.5 -10t-92.5 -3zM538 394q21 0 43.5 1.5t43.5 3.5q-3 17 -5.5 37.5t-6 50t-8.5 70.5t-11 100q-38 -19 -85 -45.5t-88.5 -56t-69.5 -60t-28 -56.5q0 -13 22.5 -21.5t55.5 -14t70 -7.5t67 -2zM599 1463l-188 -188l-194 193l192 193
l190 -190l188 188l194 -193l-192 -193z" />
    <glyph glyph-name="uni0686.init" unicode="&#x686;" horiz-adv-x="1587" arabic-form="initial" 
d="M-20 256h211q162 0 297.5 19.5t253.5 52.5t223.5 76.5t207.5 90.5q-68 19 -136.5 47t-137 54t-136.5 44.5t-135 18.5q-46 0 -90.5 -25t-80.5 -57t-60 -62.5t-30 -41.5l-231 149q38 67 90 131t114.5 113.5t135 79.5t152.5 30q59 0 118 -12.5t117.5 -32.5t115.5 -45.5
t113 -51.5q53 -25 107 -49.5t111 -45t118 -33.5t129 -14l-25 -307l-142 -68q-87 -42 -173 -86.5t-175 -86t-184 -79t-199 -65t-220 -44t-248 -16.5h-211v316zM807 -389l188 188l194 -193l-192 -193l-190 190l-188 -188l-194 193l192 193zM628 -681l178 178l179 -179
l-178 -178z" />
    <glyph glyph-name="uni0686.medi" unicode="&#x686;" horiz-adv-x="1667" arabic-form="medial" 
d="M-20 256h203q73 0 154.5 10t166.5 27t171 40.5t167.5 50.5t156 57t137.5 60q-62 15 -138 42t-154 53t-151.5 44.5t-131.5 17.5q-37 -1 -71.5 -15.5t-64 -36t-53 -46t-40.5 -46t-27 -36.5l-9 -14l-237 136q40 74 96 142.5t122 121t138.5 83.5t145.5 30q54 -1 107.5 -13
t107.5 -30.5t109 -43t111 -50.5q57 -28 126.5 -55t145 -48t154 -34t153.5 -13l-52 -295q-23 -10 -51.5 -23.5t-50.5 -24.5l-26 -13q23 -27 58.5 -43t73 -23.5t71.5 -9.5t55 -2h34v-316h-34q-96 0 -180.5 17t-154 49.5t-123.5 79t-89 105.5q-99 -48 -206 -93t-222 -80.5
t-238.5 -56.5t-256.5 -21h-203v316zM739 -387l188 188l194 -193l-192 -193l-190 190l-188 -188l-194 193l192 193zM560 -679l178 178l179 -179l-178 -178z" />
    <glyph glyph-name="uni062C" unicode="&#x62c;" horiz-adv-x="1647" arabic-form="isolated" 
d="M1525 -595q-60 -54 -139 -100.5t-169.5 -81t-190.5 -54t-202 -19.5q-167 0 -311.5 46.5t-251.5 136.5t-168.5 222.5t-61.5 305.5q0 108 44.5 203.5t122 177t180.5 148t220.5 115t242 78.5t244.5 40q-58 19 -119.5 51t-122.5 63t-120 53t-111 20q-50 -2 -95 -20t-85 -45.5
t-75.5 -62.5t-66.5 -70l-221 161q51 73 102.5 136.5t113.5 111t141 75.5t185 31q63 2 125 -15t122.5 -45.5t118.5 -64t113 -71.5q54 -36 95.5 -64.5t76.5 -51t65 -39.5t61 -30t65.5 -23t77.5 -18l-95 -333l-93 2q-71 0 -152.5 -9.5t-167.5 -27.5t-172.5 -44.5t-166.5 -60.5
t-149 -75.5t-121 -90t-82.5 -103t-32.5 -115.5q-2 -67 20 -121t62 -95.5t94.5 -71.5t118 -49t132 -28t136.5 -9t133.5 8.5t130 28t128 51.5t128.5 80l143 -237v0zM898 -311l-222 222l222 222l222 -222z" />
    <glyph glyph-name="uni062C.init" unicode="&#x62c;" horiz-adv-x="1587" arabic-form="initial" 
d="M-20 256h211q162 0 297.5 19.5t253.5 52.5t223.5 76.5t207.5 90.5q-68 19 -136.5 47t-137 54t-136.5 44.5t-135 18.5q-46 0 -90.5 -25t-80.5 -57t-60 -62.5t-30 -41.5l-231 149q38 67 90 131t114.5 113.5t135 79.5t152.5 30q59 0 118 -12.5t117.5 -32.5t115.5 -45.5
t113 -51.5q53 -25 107 -49.5t111 -45t118 -33.5t129 -14l-25 -307l-142 -68q-87 -42 -173 -86.5t-175 -86t-184 -79t-199 -65t-220 -44t-248 -16.5h-211v316zM805 -606l-222 222l222 222l222 -222z" />
    <glyph glyph-name="uni062C.medi" unicode="&#x62c;" horiz-adv-x="1667" arabic-form="medial" 
d="M-20 256h203q73 0 154.5 10t166.5 27t171 40.5t167.5 50.5t156 57t137.5 60q-62 15 -138 42t-154 53t-151.5 44.5t-131.5 17.5q-37 -1 -71.5 -15.5t-64 -36t-53 -46t-40.5 -46t-27 -36.5l-9 -14l-237 136q40 74 96 142.5t122 121t138.5 83.5t145.5 30q54 -1 107.5 -13
t107.5 -30.5t109 -43t111 -50.5q57 -28 126.5 -55t145 -48t154 -34t153.5 -13l-52 -295q-23 -10 -51.5 -23.5t-50.5 -24.5l-26 -13q23 -27 58.5 -43t73 -23.5t71.5 -9.5t55 -2h34v-316h-34q-96 0 -180.5 17t-154 49.5t-123.5 79t-89 105.5q-99 -48 -206 -93t-222 -80.5
t-238.5 -56.5t-256.5 -21h-203v316zM805 -608l-222 222l222 222l222 -222z" />
    <glyph glyph-name="uni062C.fina" unicode="&#x62c;" horiz-adv-x="1702" arabic-form="final" 
d="M1569 -595q-80 -57 -165 -103.5t-175.5 -79.5t-187 -51t-198.5 -18q-167 0 -312 46t-252.5 134t-169.5 215.5t-62 291.5v24q0 12 1 24q9 104 60 196t132.5 170.5t188 142t227 110t249 75.5t253.5 38q-53 29 -120.5 62.5t-139 62.5t-140 48.5t-123.5 19.5
q-36 0 -78.5 -14.5t-83 -39.5t-75 -59t-55.5 -73l-225 153q44 77 99 141.5t119.5 111t139.5 72t159 25.5q63 0 127 -15.5t126.5 -41t122 -58.5t114.5 -69q82 -53 149.5 -92.5t128 -68t119.5 -48t124 -32.5l-93 -315l-170 -23q13 -36 49.5 -58t82.5 -34t95.5 -15.5t89.5 -3.5
h22v-316h-22q-122 0 -214 20.5t-159.5 54t-113 75.5t-74 85t-43 83t-19.5 69q-84 -16 -172 -40t-171.5 -56.5t-157 -72t-129.5 -86.5t-89 -101t-35 -114q-3 -101 45.5 -173t128.5 -118t181 -67.5t203 -21.5q67 0 138 11t141 31.5t137.5 50.5t127.5 68l144 -233v0zM903 -340
l-222 222l222 222l222 -222z" />
    <glyph glyph-name="uni062E" unicode="&#x62e;" horiz-adv-x="1647" arabic-form="isolated" 
d="M1525 -595q-60 -54 -139 -100.5t-169.5 -81t-190.5 -54t-202 -19.5q-167 0 -311.5 46.5t-251.5 136.5t-168.5 222.5t-61.5 305.5q0 108 44.5 203.5t122 177t180.5 148t220.5 115t242 78.5t244.5 40q-58 19 -119.5 51t-122.5 63t-120 53t-111 20q-50 -2 -95 -20t-85 -45.5
t-75.5 -62.5t-66.5 -70l-221 161q51 73 102.5 136.5t113.5 111t141 75.5t185 31q63 2 125 -15t122.5 -45.5t118.5 -64t113 -71.5q54 -36 95.5 -64.5t76.5 -51t65 -39.5t61 -30t65.5 -23t77.5 -18l-95 -333l-93 2q-71 0 -152.5 -9.5t-167.5 -27.5t-172.5 -44.5t-166.5 -60.5
t-149 -75.5t-121 -90t-82.5 -103t-32.5 -115.5q-2 -67 20 -121t62 -95.5t94.5 -71.5t118 -49t132 -28t136.5 -9t133.5 8.5t130 28t128 51.5t128.5 80l143 -237v0zM622 1232l-222 222l222 222l222 -222z" />
    <glyph glyph-name="uni062E.init" unicode="&#x62e;" horiz-adv-x="1587" arabic-form="initial" 
d="M-20 256h211q162 0 297.5 19.5t253.5 52.5t223.5 76.5t207.5 90.5q-68 19 -136.5 47t-137 54t-136.5 44.5t-135 18.5q-46 0 -90.5 -25t-80.5 -57t-60 -62.5t-30 -41.5l-231 149q38 67 90 131t114.5 113.5t135 79.5t152.5 30q59 0 118 -12.5t117.5 -32.5t115.5 -45.5
t113 -51.5q53 -25 107 -49.5t111 -45t118 -33.5t129 -14l-25 -307l-142 -68q-87 -42 -173 -86.5t-175 -86t-184 -79t-199 -65t-220 -44t-248 -16.5h-211v316zM627 1072l-222 222l222 222l222 -222z" />
    <glyph glyph-name="uni062E.medi" unicode="&#x62e;" horiz-adv-x="1667" arabic-form="medial" 
d="M-20 256h203q73 0 154.5 10t166.5 27t171 40.5t167.5 50.5t156 57t137.5 60q-62 15 -138 42t-154 53t-151.5 44.5t-131.5 17.5q-37 -1 -71.5 -15.5t-64 -36t-53 -46t-40.5 -46t-27 -36.5l-9 -14l-237 136q40 74 96 142.5t122 121t138.5 83.5t145.5 30q54 -1 107.5 -13
t107.5 -30.5t109 -43t111 -50.5q57 -28 126.5 -55t145 -48t154 -34t153.5 -13l-52 -295q-23 -10 -51.5 -23.5t-50.5 -24.5l-26 -13q23 -27 58.5 -43t73 -23.5t71.5 -9.5t55 -2h34v-316h-34q-96 0 -180.5 17t-154 49.5t-123.5 79t-89 105.5q-99 -48 -206 -93t-222 -80.5
t-238.5 -56.5t-256.5 -21h-203v316zM547 1076l-222 222l222 222l222 -222z" />
    <glyph glyph-name="uni062E.fina" unicode="&#x62e;" horiz-adv-x="1702" arabic-form="final" 
d="M1569 -595q-80 -57 -165 -103.5t-175.5 -79.5t-187 -51t-198.5 -18q-167 0 -312 46t-252.5 134t-169.5 215.5t-62 291.5v24q0 12 1 24q9 104 60 196t132.5 170.5t188 142t227 110t249 75.5t253.5 38q-53 29 -120.5 62.5t-139 62.5t-140 48.5t-123.5 19.5
q-36 0 -78.5 -14.5t-83 -39.5t-75 -59t-55.5 -73l-225 153q44 77 99 141.5t119.5 111t139.5 72t159 25.5q63 0 127 -15.5t126.5 -41t122 -58.5t114.5 -69q82 -53 149.5 -92.5t128 -68t119.5 -48t124 -32.5l-93 -315l-170 -23q13 -36 49.5 -58t82.5 -34t95.5 -15.5t89.5 -3.5
h22v-316h-22q-122 0 -214 20.5t-159.5 54t-113 75.5t-74 85t-43 83t-19.5 69q-84 -16 -172 -40t-171.5 -56.5t-157 -72t-129.5 -86.5t-89 -101t-35 -114q-3 -101 45.5 -173t128.5 -118t181 -67.5t203 -21.5q67 0 138 11t141 31.5t137.5 50.5t127.5 68l144 -233v0zM641 1197
l-222 222l222 222l222 -222z" />
    <glyph glyph-name="uni0630" unicode="&#x630;" horiz-adv-x="1138" arabic-form="isolated" 
d="M157 407q42 -27 98.5 -54t116 -49.5t115.5 -36.5t97 -14q23 0 63.5 4t80 15.5t69 32.5t31.5 55q1 39 -23.5 88t-66 102.5t-96 108t-112.5 105t-116 94t-107 74.5l177 263q97 -68 192.5 -152.5t176 -178.5t140 -194.5t85.5 -202.5q8 -29 11 -58.5t3 -56.5
q0 -93 -36 -170.5t-100.5 -134t-154.5 -87.5t-198 -31q-8 0 -16 0.5t-16 0.5q-69 0 -141.5 14.5t-143 38.5t-137 56t-123.5 67l131 301v0zM462 1292l-222 222l222 222l222 -222z" />
    <glyph glyph-name="uni0630.fina" unicode="&#x630;" horiz-adv-x="1262" arabic-form="final" 
d="M534 -60q-131 0 -256.5 50t-232.5 161l181 255q49 -45 95 -73.5t88 -44.5t79.5 -22t70.5 -6q27 0 58 3.5t61.5 11.5t57.5 20t47 30q-38 92 -82.5 191.5t-89.5 200t-89 199.5t-82 190l292 122l330 -797q18 -44 33 -77t35.5 -55t49 -32.5t73.5 -10.5h29v-316h-29
q-61 0 -107.5 8t-83 22.5t-65 35t-53.5 45.5q-46 -31 -92 -52.5t-96 -34.5t-104.5 -18.5t-117.5 -5.5zM693 1296l-222 222l222 222l222 -222z" />
    <glyph glyph-name="uni0688" unicode="&#x688;" horiz-adv-x="1138" arabic-form="isolated" 
d="M157 407q42 -27 98.5 -54t116 -49.5t115.5 -36.5t97 -14q23 0 63.5 4t80 15.5t69 32.5t31.5 55q1 39 -23.5 88t-66 102.5t-96 108t-112.5 105t-116 94t-107 74.5l177 263q97 -68 192.5 -152.5t176 -178.5t140 -194.5t85.5 -202.5q8 -29 11 -58.5t3 -56.5
q0 -93 -36 -170.5t-100.5 -134t-154.5 -87.5t-198 -31q-8 0 -16 0.5t-16 0.5q-69 0 -141.5 14.5t-143 38.5t-137 56t-123.5 67l131 301v0zM506 1292q-44 0 -85.5 3.5t-84 12t-86.5 21.5t-92 32l43 107q35 -14 62 -23t51 -15q12 15 25 33.5t32 54.5q4 16 4.5 43t-1 58.5
t-4.5 65t-5 62.5q-2 23 -4 45.5t-5 48.5t-7 56.5t-9 68.5l116 32q8 -93 19 -184t12 -188q91 79 180 94q34 5 70.5 -3t68 -27.5t53.5 -49.5t25 -69q4 -53 -13.5 -94t-49 -72t-73.5 -52.5t-85.5 -35t-84.5 -19.5t-72 -6zM423 1409q23 -1 38 -1h29q26 0 62 3t74 11.5t74.5 23.5
t63.5 39q14 14 22.5 31.5t8.5 31.5q0 28 -30 45.5t-80 12.5q-29 -3 -63.5 -20.5t-70 -44.5t-68.5 -61.5t-60 -70.5z" />
    <glyph glyph-name="uni0688.fina" unicode="&#x688;" horiz-adv-x="1262" arabic-form="final" 
d="M534 -60q-131 0 -256.5 50t-232.5 161l181 255q49 -45 95 -73.5t88 -44.5t79.5 -22t70.5 -6q27 0 58 3.5t61.5 11.5t57.5 20t47 30q-38 92 -82.5 191.5t-89.5 200t-89 199.5t-82 190l292 122l330 -797q18 -44 33 -77t35.5 -55t49 -32.5t73.5 -10.5h29v-316h-29
q-61 0 -107.5 8t-83 22.5t-65 35t-53.5 45.5q-46 -31 -92 -52.5t-96 -34.5t-104.5 -18.5t-117.5 -5.5zM677 1318q-44 0 -85.5 3.5t-84 12t-86.5 21.5t-92 32l43 107q35 -14 62 -23t51 -15q12 15 25 33.5t32 54.5q4 16 4.5 43t-1 58.5t-4.5 65t-5 62.5q-2 23 -4 45.5t-5 48.5
t-7 56.5t-9 68.5l116 32q8 -93 19 -184t12 -188q91 79 180 94q34 5 70.5 -3t68 -27.5t53.5 -49.5t25 -69q4 -53 -13.5 -94t-49 -72t-73.5 -52.5t-85.5 -35t-84.5 -19.5t-72 -6zM594 1435q23 -1 38 -1h29q26 0 62 3t74 11.5t74.5 23.5t63.5 39q14 14 22.5 31.5t8.5 31.5
q0 28 -30 45.5t-80 12.5q-29 -3 -63.5 -20.5t-70 -44.5t-68.5 -61.5t-60 -70.5z" />
    <glyph glyph-name="uni0632" unicode="&#x632;" horiz-adv-x="761" arabic-form="isolated" 
d="M565 673q21 -62 44.5 -135.5t43 -150.5t32.5 -153.5t13 -143.5q0 -94 -25.5 -183.5t-72 -173.5t-110.5 -161t-142 -145.5t-167 -127t-184 -105.5l-182 253q72 36 145.5 81.5t141 97.5t126 109t102 116t68.5 119.5t25 118.5q0 42 -11.5 91t-31.5 105.5t-46.5 120
t-57.5 135.5l289 132v0zM395 868l-222 222l222 222l222 -222z" />
    <glyph glyph-name="uni0632.fina" unicode="&#x632;" horiz-adv-x="813" arabic-form="final" 
d="M816 -60q-22 0 -58 3t-82 22q-22 -124 -82.5 -235.5t-149.5 -209t-203 -179.5t-243 -147l-183 253q71 36 143 78.5t137.5 90t122 99t98.5 106.5t66 112.5t24 116.5q0 39 -15 99t-38 129t-51 139t-54 128l289 126q40 -120 76.5 -200t70.5 -128t65.5 -67.5t62.5 -19.5h24
v-316h-20zM395 868l-222 222l222 222l222 -222z" />
    <glyph glyph-name="uni0691" unicode="&#x691;" horiz-adv-x="749" arabic-form="isolated" 
d="M565 673q21 -62 44.5 -135.5t43 -150.5t32.5 -153.5t13 -143.5q0 -94 -25.5 -183.5t-72 -173.5t-110.5 -161t-142 -145.5t-167 -127t-184 -105.5l-182 253q72 36 145.5 81.5t141 97.5t126 109t102 116t68.5 119.5t25 118.5q0 42 -11.5 91t-31.5 105.5t-46.5 120
t-57.5 135.5l289 132v0zM398 826q-44 0 -85.5 3.5t-84 12t-86.5 21.5t-92 32l43 107q35 -14 62 -23t51 -15q12 15 25 33.5t32 54.5q4 16 4.5 43t-1 58.5t-4.5 65t-5 62.5q-2 23 -4 45.5t-5 48.5t-7 56.5t-9 68.5l116 32q8 -93 19 -184t12 -188q91 79 180 94q34 5 70.5 -3
t68 -27.5t53.5 -49.5t25 -69q4 -53 -13.5 -94t-49 -72t-73.5 -52.5t-85.5 -35t-84.5 -19.5t-72 -6zM315 943q23 -1 38 -1h29q26 0 62 3t74 11.5t74.5 23.5t63.5 39q14 14 22.5 31.5t8.5 31.5q0 28 -30 45.5t-80 12.5q-29 -3 -63.5 -20.5t-70 -44.5t-68.5 -61.5t-60 -70.5z
" />
    <glyph glyph-name="uni0691.fina" unicode="&#x691;" horiz-adv-x="813" arabic-form="final" 
d="M816 -60q-22 0 -58 3t-82 22q-22 -124 -82.5 -235.5t-149.5 -209t-203 -179.5t-243 -147l-183 253q71 36 143 78.5t137.5 90t122 99t98.5 106.5t66 112.5t24 116.5q0 39 -15 99t-38 129t-51 139t-54 128l289 126q40 -120 76.5 -200t70.5 -128t65.5 -67.5t62.5 -19.5h24
v-316h-20zM398 826q-44 0 -85.5 3.5t-84 12t-86.5 21.5t-92 32l43 107q35 -14 62 -23t51 -15q12 15 25 33.5t32 54.5q4 16 4.5 43t-1 58.5t-4.5 65t-5 62.5q-2 23 -4 45.5t-5 48.5t-7 56.5t-9 68.5l116 32q8 -93 19 -184t12 -188q91 79 180 94q34 5 70.5 -3t68 -27.5
t53.5 -49.5t25 -69q4 -53 -13.5 -94t-49 -72t-73.5 -52.5t-85.5 -35t-84.5 -19.5t-72 -6zM315 943q23 -1 38 -1h29q26 0 62 3t74 11.5t74.5 23.5t63.5 39q14 14 22.5 31.5t8.5 31.5q0 28 -30 45.5t-80 12.5q-29 -3 -63.5 -20.5t-70 -44.5t-68.5 -61.5t-60 -70.5z" />
    <glyph glyph-name="uni0698" unicode="&#x698;" horiz-adv-x="760" arabic-form="isolated" 
d="M565 673q21 -62 44.5 -135.5t43 -150.5t32.5 -153.5t13 -143.5q0 -94 -25.5 -183.5t-72 -173.5t-110.5 -161t-142 -145.5t-167 -127t-184 -105.5l-182 253q72 36 145.5 81.5t141 97.5t126 109t102 116t68.5 119.5t25 118.5q0 42 -11.5 91t-31.5 105.5t-46.5 120
t-57.5 135.5l289 132v0zM393 1012l-188 -188l-194 193l192 193l190 -190l188 188l194 -193l-192 -193zM572 1304l-178 -178l-179 179l178 178z" />
    <glyph glyph-name="uni0698.fina" unicode="&#x698;" horiz-adv-x="813" arabic-form="final" 
d="M816 -60q-22 0 -58 3t-82 22q-22 -124 -82.5 -235.5t-149.5 -209t-203 -179.5t-243 -147l-183 253q71 36 143 78.5t137.5 90t122 99t98.5 106.5t66 112.5t24 116.5q0 39 -15 99t-38 129t-51 139t-54 128l289 126q40 -120 76.5 -200t70.5 -128t65.5 -67.5t62.5 -19.5h24
v-316h-20zM397 1012l-188 -188l-194 193l192 193l190 -190l188 188l194 -193l-192 -193zM576 1304l-178 -178l-179 179l178 178z" />
    <glyph glyph-name="uni0634" unicode="&#x634;" horiz-adv-x="2692" arabic-form="isolated" 
d="M2488 995q6 -12 21.5 -43.5t35.5 -76t42 -99.5t40 -115.5t29.5 -123.5t11.5 -122q-1 -99 -29.5 -185t-83.5 -149.5t-136 -100.5t-187 -37q-92 0 -150.5 31t-96.5 85q-21 -27 -45 -48.5t-56.5 -37t-76 -23.5t-103.5 -8q-42 0 -77 6t-64 15q-1 -117 -35.5 -213t-94 -172
t-139.5 -132t-172 -92.5t-192.5 -54.5t-199.5 -18q-153 0 -283 50.5t-224.5 142t-147.5 220t-53 283.5q3 90 24.5 184t55 184t75 171.5t84.5 146.5l218 -168q-36 -59 -70 -125t-60 -134t-42 -136t-16 -131q-3 -76 30.5 -143t93 -117.5t140 -79.5t171.5 -29q103 0 190.5 19
t155 52.5t113.5 81t66 104.5l-1 -1q25 79 25 169q0 67 -19 136t-49 139.5t-66.5 142t-71.5 143.5l274 154q26 -59 52 -119t52.5 -114.5t54.5 -101.5t58 -80.5t62.5 -50.5t69.5 -12q42 6 68 29.5t39.5 58.5t17 78.5t1.5 88.5t-6.5 89t-7.5 81l276 37q7 -31 12 -74.5
t11.5 -91.5t16.5 -97t27 -91t42 -73t63 -44q31 0 58 11.5t47 33.5t31.5 54.5t11.5 75.5q0 36 -13.5 83.5t-36.5 102.5t-53.5 115.5t-64.5 122.5l256 143v0zM1930 1200l-188 -188l-194 193l192 193l190 -190l188 188l194 -193l-192 -193zM2109 1492l-178 -178l-179 179
l178 178z" />
    <glyph glyph-name="uni0634.init" unicode="&#x634;" horiz-adv-x="1658" arabic-form="initial" 
d="M0 256q75 0 126.5 40.5t88 106.5t62 150.5t48.5 172.5l266 -48q-8 -35 -19.5 -81.5t-21 -96.5t-15.5 -97.5t-2.5 -83.5t18.5 -56.5t46 -15.5q40 3 72.5 28t58.5 64t46 88t34.5 101t24 103t15.5 93l254 -43q-1 -30 -7 -74t-11 -92.5t-5 -97t11 -87t36.5 -62.5t71.5 -24
q28 0 57 9.5t52 27t37.5 41.5t14.5 54q0 52 -17 114.5t-41.5 124t-50.5 116.5t-44 93l248 139l21 -46q15 -32 34 -78t39.5 -103.5t37.5 -119.5t28 -127t11 -126q0 -100 -27.5 -180t-83 -136t-139 -87t-195.5 -32q-54 0 -98 10.5t-79.5 28.5t-62.5 43t-48 54
q-24 -31 -51.5 -55.5t-63 -42t-79.5 -27.5t-100 -11q-49 -1 -88.5 8.5t-72.5 27.5t-59.5 43.5t-49.5 56.5q-21 -26 -48 -48.5t-64 -39.5t-86 -26.5t-114 -9.5h-36v316h20zM918 1200l-188 -188l-194 193l192 193l190 -190l188 188l194 -193l-192 -193zM1097 1492l-178 -178
l-179 179l178 178z" />
    <glyph glyph-name="uni0634.medi" unicode="&#x634;" horiz-adv-x="1851" arabic-form="medial" 
d="M-1 256q53 0 99 17.5t87 67.5t77 141t69 238l265 -38q-1 -5 -3 -13q-6 -25 -14.5 -70.5t-16 -102t-7 -108t12 -89t40.5 -44.5q31 -8 60 12.5t55 59t48 90t40 105.5t31 106t20 92l264 -38q-2 -25 -7 -66.5t-8 -88.5t-2.5 -94.5t10.5 -86t31 -63t58 -24.5q33 0 57 22
t40.5 57.5t26.5 81t15 92.5t5 91.5t-3 78.5l270 38l33 -282q6 -46 26 -80t47 -56.5t57 -34t57 -11.5h32v-316h-32q-97 0 -183 34t-149 115q-6 -8 -12 -14t-11 -12v1q-54 -57 -124.5 -90.5t-151.5 -33.5q-91 0 -167.5 39t-127.5 106q-60 -66 -136 -107t-167 -41
q-85 0 -158 38t-121 104q-54 -75 -133.5 -107t-196.5 -32h-21v316h19zM597 682h-1q3 8 1 0zM998 1107l-188 -188l-194 193l192 193l190 -190l188 188l194 -193l-192 -193zM1177 1399l-178 -178l-179 179l178 178z" />
    <glyph glyph-name="uni0634.fina" unicode="&#x634;" horiz-adv-x="2889" arabic-form="final" 
d="M2228 -58q-86 0 -144.5 33t-96.5 83q-21 -27 -45 -48.5t-56.5 -37t-76 -23.5t-103.5 -8q-42 0 -77 6t-64 15q-1 -117 -35.5 -213t-94 -172t-139.5 -132t-172 -92.5t-192.5 -54.5t-199.5 -18q-153 0 -283 50.5t-224.5 142t-147.5 220t-53 283.5q3 90 24.5 184t55 184
t75 171.5t84.5 146.5l218 -167q-36 -59 -69 -125t-57.5 -133.5t-39.5 -135.5t-15 -131q-3 -76 29.5 -143.5t91 -118t137.5 -80t170 -29.5q69 0 137.5 9.5t131 31t116.5 55t93.5 81.5t62 111.5t22.5 144.5q0 60 -18 125.5t-47.5 134t-67 139.5t-77.5 142l277 148
q36 -86 75 -169t81 -148.5t87 -105t93 -37.5q40 1 63.5 22t36.5 55t17 78t4 92l-6 173l284 39q0 -28 2.5 -73.5t9 -97.5t18 -105t29.5 -95.5t43 -69.5t59 -27q33 0 58.5 30.5t43 78.5t26 106.5t8.5 114.5q0 22 -0.5 31.5t-0.5 17t-0.5 18t-0.5 34.5l271 39q4 -55 7 -90
t6 -63.5t7.5 -58t12.5 -73.5q9 -46 27 -80t43 -56.5t55 -33.5t62 -11h30v-316l-20 -1q-112 0 -197 35.5t-145 113.5q-54 -69 -135 -107.5t-184 -38.5zM1934 1107l-188 -188l-194 193l192 193l190 -190l188 188l194 -193l-192 -193zM2113 1399l-178 -178l-179 179l178 178z
" />
    <glyph glyph-name="uni0636" unicode="&#x636;" horiz-adv-x="2912" arabic-form="isolated" 
d="M816 -709q-151 0 -288.5 40t-242.5 121t-167 203.5t-62 286.5q0 72 12.5 145t32.5 143t45.5 135t50.5 121t48 101t39 76l224 -160q-7 -9 -23 -38.5t-35.5 -73t-40.5 -98.5t-38.5 -114.5t-28.5 -121t-11 -117.5q0 -91 42.5 -154t111 -102t153 -56.5t168.5 -17.5
q97 0 186.5 29t158.5 84.5t110 137t41 186.5q0 68 -16.5 135.5t-42.5 135.5t-57.5 137.5t-60.5 141.5l277 153q52 -132 90 -217t79 -126q36 56 82.5 115.5t103 116.5t123.5 108t143 89.5t161 61t179 22.5q97 0 188.5 -36t161 -100t108 -151t30.5 -190q-8 -101 -46.5 -180
t-98 -138.5t-136 -101t-159.5 -67.5t-169 -38t-165 -12q-129 0 -254.5 25.5t-243.5 81.5q-3 -157 -60.5 -289.5t-158 -228.5t-239.5 -150t-305 -54zM2307 595q-66 -18 -140 -51.5t-142.5 -78t-125.5 -97t-89 -108.5q26 -7 61 -13.5t72.5 -11.5t74 -8t66.5 -3q40 0 93 4.5
t109.5 15t111.5 28t99 43.5t72 62t31 83q2 41 -24.5 72t-69.5 49.5t-96 22.5t-103 -9zM2328 1064l-222 222l222 222l222 -222z" />
    <glyph glyph-name="uni0636.init" unicode="&#x636;" horiz-adv-x="1913" arabic-form="initial" 
d="M0 256q49 0 84 7t58.5 17.5t37.5 23t22 23.5l-1 -1q14 21 28 48.5t30.5 73.5t36 116.5t44.5 176.5l262 -85q-10 -38 -19 -72.5t-12.5 -67.5t-0.5 -66t17 -69q42 70 88 138.5t99.5 130t115.5 114.5t136.5 91.5t162.5 61t194 23.5q122 1 215 -40.5t155.5 -109t92.5 -152.5
t26 -171q-6 -108 -49 -190.5t-112 -143.5t-157.5 -101.5t-186 -65.5t-198 -35.5t-193.5 -10.5q-98 0 -176 6t-145.5 23.5t-127 49t-119.5 82.5q-72 -72 -169 -106t-230 -35h-29v316h20zM1379 622q-64 0 -125.5 -17.5t-117 -46.5t-105 -67t-90.5 -79t-72.5 -82t-51.5 -77
q39 -2 88 -3t95 -1q62 0 128.5 3.5t131 13t124 26.5t108 43.5t83 63.5t48.5 87q-10 70 -74 103t-170 33zM1379 1064l-222 222l222 222l222 -222z" />
    <glyph glyph-name="uni0636.medi" unicode="&#x636;" horiz-adv-x="1933" arabic-form="medial" 
d="M0 256q49 0 84 7t58.5 17.5t37.5 23t22 23.5l-1 -1q14 21 28 48.5t30.5 73.5t36 116.5t44.5 176.5l262 -85q-10 -38 -19 -72.5t-12.5 -67.5t-0.5 -66t17 -69q42 70 88 138.5t99.5 130t115.5 114.5t136.5 91.5t163 61t193.5 23.5q122 1 215 -40.5t155.5 -109t92.5 -152.5
t26 -171q-4 -61 -19.5 -113.5t-41.5 -97.5h142v-316h-313q-53 0 -93.5 1t-73.5 3.5t-59 7.5t-48 14q-98 -25 -197.5 -35.5t-192.5 -10.5q-98 0 -176 6t-145.5 23.5t-127 49t-119.5 82.5q-72 -72 -169 -106t-230 -35h-29v316h20zM1379 622q-64 0 -125.5 -17.5t-117 -46.5
t-105 -67t-90.5 -79t-72.5 -82t-51.5 -77q39 -2 88 -3t95 -1q62 0 128.5 3.5t131 13t124 26.5t108 43.5t83 63.5t48.5 87q-10 70 -74 103t-170 33zM1370 1064l-222 222l222 222l222 -222z" />
    <glyph glyph-name="uni0636.fina" unicode="&#x636;" horiz-adv-x="2868" arabic-form="final" 
d="M795 -709q-103 0 -204.5 17t-191.5 56t-163.5 103.5t-120.5 159.5q-17 34 -31.5 73t-25.5 79.5t-17 82t-6 80.5q0 72 12.5 145t32.5 143t45.5 135t50.5 121t48 101t39 76l224 -162q-7 -9 -23 -38.5t-35.5 -73t-40.5 -98t-38.5 -113.5t-28.5 -120t-11 -118
q0 -91 42.5 -154t111 -102t153 -56.5t168.5 -17.5q97 0 186 27t157.5 81t109 135t40.5 189q0 48 -16 113.5t-41.5 139.5t-56.5 152t-60 150l281 154q30 -74 52 -129.5t40 -97.5t35 -71.5t38 -50.5q32 57 76.5 116.5t100 116.5t122.5 107t144.5 89t164.5 62.5t184 26.5
t185.5 -30.5t156 -93.5t107.5 -143t40 -179q0 -105 -47 -210q15 -3 36.5 -5.5t41.5 -2.5h26v-316h-20q-56 0 -102.5 7.5t-85 20t-68.5 29t-51 33.5q-57 -32 -120.5 -55.5t-129 -38.5t-130.5 -22.5t-125 -7.5q-81 0 -149.5 6.5t-128 20t-113.5 33.5t-107 47
q-3 -157 -60.5 -289.5t-158 -228.5t-239.5 -150t-305 -54zM2286 593q-38 -6 -83 -23t-93.5 -42t-96.5 -56.5t-90.5 -66.5t-77.5 -72.5t-56 -74.5q26 -7 61 -13.5t72.5 -11.5t74 -8t66.5 -3q40 0 93 4.5t109.5 15t111 28t98.5 43.5t72.5 62t31.5 83q2 41 -24.5 70.5t-69 47
t-95.5 22t-104 -4.5zM2306 1064l-222 222l222 222l222 -222z" />
    <glyph glyph-name="uni0638" unicode="&#x638;" horiz-adv-x="1807" arabic-form="isolated" 
d="M866 -60q-113 0 -218.5 7.5t-208 26.5t-205 52.5t-210.5 85.5l115 295q168 -64 266 -93q19 26 42.5 57.5t57.5 76.5q6 45 10.5 82.5t7 71.5t4 66t1.5 66q0 46 -4 117t-9.5 151.5t-13 163t-14 152.5t-12.5 119t-9 63l317 84l11 -106q8 -72 16.5 -154.5t15.5 -169.5
t12.5 -177t7.5 -177q48 42 94.5 77t98 60.5t112 40.5t136.5 17q79 2 156.5 -22.5t140.5 -72.5t106 -119.5t53 -162.5q1 -129 -38 -229.5t-105.5 -175.5t-155 -127.5t-186.5 -84.5t-199 -46.5t-193 -14.5zM1287 674q-60 0 -135.5 -31t-154.5 -87t-155.5 -134t-139.5 -172
q35 -3 73 -4.5t70 -1.5q150 0 270.5 30.5t205 77.5t129 103t41.5 107q-5 30 -28.5 51.5t-55 35t-64.5 19.5t-56 6zM1320 1212l-222 222l222 222l222 -222z" />
    <glyph glyph-name="uni0638.init" unicode="&#x638;" horiz-adv-x="1549" arabic-form="initial" 
d="M-20 256h133q17 29 47 78t78 109q8 63 14 154.5t7 200.5q0 60 -4 136.5t-11.5 166.5t-18.5 191t-24 210l322 82q14 -103 25 -199t18.5 -192t11.5 -194.5t4 -205.5q52 41 107.5 77.5t115 63.5t123.5 42.5t135 15.5q82 0 155 -26t129.5 -75t93 -119t45.5 -158
q5 -120 -29 -217t-96.5 -172t-149 -129t-187 -89t-209.5 -51.5t-217 -16.5l-592 1h-26v316zM1032 672q-60 1 -135.5 -28.5t-154.5 -84.5t-155.5 -132t-139.5 -171q35 -3 73 -4.5t70 -1.5q150 0 270.5 29.5t205 75t129 100t41.5 105.5q-5 30 -25.5 51t-49.5 34t-63 19.5
t-66 7.5zM1088 1212l-222 222l222 222l222 -222z" />
    <glyph glyph-name="uni0638.medi" unicode="&#x638;" horiz-adv-x="1583" arabic-form="medial" 
d="M-20 256h133q17 29 47 78t78 109q8 63 14 154.5t7 200.5q0 60 -4 136.5t-11.5 166.5t-18.5 191t-24 210l322 82q14 -103 25 -199t18.5 -192t11.5 -194.5t4 -205.5q52 41 107.5 77.5t115 63.5t123.5 42.5t135 15.5q82 0 155 -26t129.5 -75t93 -119t45.5 -158
q5 -109 -22.5 -197.5t-79.5 -160.5h219l-1 -316h-265q-79 0 -175.5 6.5t-214.5 36.5l1 1q-85 -23 -173.5 -34t-176.5 -11l-592 1h-26v316zM1032 672q-60 1 -135.5 -28.5t-154.5 -84.5t-155.5 -132t-139.5 -171q35 -3 73 -4.5t70 -1.5q150 0 270.5 29.5t205 75t129 100
t41.5 105.5q-5 30 -25.5 51t-49.5 34t-63 19.5t-66 7.5zM1088 1212l-222 222l222 222l222 -222z" />
    <glyph glyph-name="uni0638.fina" unicode="&#x638;" horiz-adv-x="1867" arabic-form="final" 
d="M866 -60q-113 0 -218.5 7.5t-208 26.5t-205 52.5t-210.5 85.5l115 295q168 -64 266 -93q19 26 42.5 57.5t57.5 76.5q6 45 10.5 82.5t7 71.5t4 66t1.5 66q0 46 -4 117t-9.5 151.5t-13 163t-14 152.5t-12.5 119t-9 63l317 84l11 -106q8 -72 16.5 -154.5t15.5 -169.5
t12.5 -177t7.5 -177q48 42 94.5 77t98 60.5t112 40.5t136.5 17q79 2 156.5 -22.5t140.5 -72.5t106 -119.5t53 -162.5q1 -112 -28.5 -201.5t-80.5 -160.5h253l-1 -316h-302q-79 0 -174.5 6.5t-213.5 36.5q-85 -23 -168.5 -33t-161.5 -10zM1287 674q-60 0 -135.5 -31
t-154.5 -87t-155.5 -134t-139.5 -172q35 -3 73 -4.5t70 -1.5q150 0 270.5 30.5t205 77.5t129 103t41.5 107q-5 30 -28.5 51.5t-55 35t-64.5 19.5t-56 6zM1321 1212l-222 222l222 222l222 -222z" />
    <glyph glyph-name="uni063A" unicode="&#x63a;" horiz-adv-x="1534" arabic-form="isolated" 
d="M828 -775q-100 0 -197 21t-184 61.5t-161 100t-127.5 136.5t-83.5 171.5t-30 204.5q0 121 34 224t96.5 190t149.5 158.5t192 128.5q-50 49 -84.5 127t-34.5 185q1 62 21 121.5t54 113.5t80.5 100t101 80.5t115 55t122.5 23.5q70 3 130 -6.5t114.5 -30t106.5 -52
t106 -72.5l-124 -237q-47 25 -99 45q-45 17 -101.5 29t-116.5 7q-38 -3 -80 -19t-77.5 -42t-59 -61t-23.5 -76q0 -35 24.5 -64.5t65.5 -50t95.5 -30.5t114.5 -6l376 25l-24 -313q-79 -10 -160 -17t-164.5 -20t-168 -36t-170.5 -65q-23 -11 -57 -30t-72 -46t-76 -62t-68 -77
t-49 -92.5t-19 -107.5q0 -61 21 -112t58 -91.5t87 -71.5t107 -51.5t119 -30.5t124 -10q59 0 124 9t131.5 28.5t133 50t128.5 74.5l156 -244q-78 -66 -166.5 -112.5t-177.5 -76.5t-175 -43.5t-158 -13.5zM912 1519l-222 222l222 222l222 -222z" />
    <glyph glyph-name="uni063A.init" unicode="&#x63a;" horiz-adv-x="1112" arabic-form="initial" 
d="M919 601q-26 14 -52.5 25.5t-54.5 21.5q-48 17 -107 28t-122 4q-43 -5 -82.5 -23t-70 -44.5t-48.5 -59.5t-18 -67q0 -48 30 -84.5t76.5 -60.5t102.5 -36t109 -10q57 5 118.5 14t115.5 19q31 5 62 11t62 13l41 -311q-67 -18 -163.5 -36t-217.5 -32.5t-264 -23.5t-303 -9
h-153v316h36l139 2q-36 57 -50 116.5t-13 129.5q1 88 39.5 173t105 153t155.5 113t191 53q51 4 98 -0.5t89 -15t79 -25t67 -30.5q35 -19 67 -40.5t60 -46.5l-124 -237v0zM592 1119l-222 222l222 222l222 -222z" />
    <glyph glyph-name="uni063A.medi" unicode="&#x63a;" horiz-adv-x="1144" arabic-form="medial" 
d="M1164 256v-316l-34 -1q-79 0 -151.5 5t-139 19t-126 39.5t-112.5 66.5q-59 -36 -130.5 -60.5t-148 -40t-154.5 -22t-150 -6.5h-38v316h38q70 0 142 7.5t141 23.5q-34 33 -66 65.5t-64.5 65.5t-67.5 67t-76 72l16 234q59 52 122 88.5t124.5 60.5t118 37t101.5 18
q22 2 47 3.5t49 1.5q78 0 160.5 -16t149.5 -44q58 -27 97 -61t62 -68t33.5 -66t11.5 -54q3 -45 -12 -98.5t-43.5 -109t-67.5 -109t-84 -98.5q55 -10 105.5 -15t112.5 -5h34zM605 689q-24 0 -61 -3.5t-76.5 -9.5t-77.5 -14t-64 -17l275 -235q29 21 66.5 52t73.5 64.5
t65.5 66.5t43.5 58q-23 10 -54 17.5t-64.5 12t-66.5 6.5t-60 2zM619 1118l-222 222l222 222l222 -222z" />
    <glyph glyph-name="uni063A.fina" unicode="&#x63a;" horiz-adv-x="1357" arabic-form="final" 
d="M294 -218q0 -54 22.5 -99t60.5 -80.5t88 -62t105 -44t111.5 -26t107.5 -8.5q115 0 227 37.5t206 100.5l155 -249q-56 -46 -130.5 -84t-156.5 -65t-165.5 -41.5t-158.5 -13.5q-64 1 -144 12t-162 38t-160 72.5t-139 115.5t-98.5 168t-38.5 229q-1 102 32 193t91.5 169
t137 142t168.5 112q-18 16 -38 33.5t-45 38.5t-56 47t-71 61l-21 241q85 68 160 115t149 76.5t152 42.5t169 13q53 0 109 -9t109 -27t100.5 -46t82.5 -66t54.5 -86t18.5 -107q-2 -63 -22 -121.5t-56 -110t-85 -94t-107 -72.5q72 -33 143 -52t143 -19h35v-316l-35 -1
q-84 0 -162.5 17t-155 48t-151.5 74t-151 95q-46 -19 -95 -41.5t-96.5 -50t-90.5 -59t-75.5 -69t-51.5 -80t-19 -91.5zM854 782q-51 1 -101.5 -6t-96 -18.5t-84.5 -25.5t-68 -26q58 -48 121.5 -94t133.5 -86q58 19 111.5 43t94.5 50.5t66 54.5t27 57q-2 1 -15.5 8.5
t-39 16.5t-63 17t-86.5 9zM798 1209l-222 222l222 222l222 -222z" />
    <glyph glyph-name="uni06A9.init" unicode="&#x6a9;" horiz-adv-x="1021" arabic-form="initial" 
d="M-20 256h95q58 0 119 1t117 8.5t102.5 23.5t76 46t38.5 77t-11 116q-7 25 -30 60.5t-57.5 78t-79.5 89.5t-96 96.5t-107 99t-112 95.5l31 272l840 374l121 -268l-664 -308q49 -34 101 -81t101 -102.5t92 -117.5t75 -127t50.5 -131t17.5 -129q-1 -104 -39 -193.5
t-105 -155t-159.5 -103t-203.5 -37.5h-313v316z" />
    <glyph glyph-name="uni06A9.medi" unicode="&#x6a9;" horiz-adv-x="1188" arabic-form="medial" 
d="M-20 256h327q51 0 95 12t77 31.5t53 44t23 49.5q5 50 -15 108t-57 118.5t-87 121t-104 115.5t-107.5 102t-98.5 81l27 275l919 385l116 -275l-759 -310q69 -64 124.5 -124.5t102 -121t85 -121t72.5 -124.5q30 -56 63 -118.5t76.5 -116t100.5 -90.5t133 -42h62v-316h-31
q-70 0 -133 9.5t-120 31t-108.5 56t-98.5 84.5q-36 -48 -83 -82t-99.5 -56t-108.5 -32t-110 -11h-336v316z" />
    <glyph glyph-name="uni0641" unicode="&#x641;" horiz-adv-x="1985" arabic-form="isolated" 
d="M1056 256q38 0 90 0.5t111.5 3t121.5 7.5t118.5 15t103.5 25t77 37q-131 -13 -240.5 -7t-189 42t-124 107.5t-45.5 191.5q0 55 11 113.5t33.5 115t55.5 107t76.5 88.5t97 60.5t116.5 22.5q79 0 144.5 -30t118 -81.5t92 -119.5t65.5 -143t39 -153t13 -150
q0 -120 -33.5 -209t-93.5 -152t-142.5 -103.5t-181 -63.5t-208.5 -31.5t-225 -8.5q-121 0 -244 8t-237 29.5t-213 59.5t-172.5 99t-115.5 148t-42 206q0 59 13 114.5t34.5 108.5t49 104.5t56.5 103.5l235 -197q-15 -21 -35 -54.5t-38.5 -70.5t-31 -74.5t-12.5 -65.5
q0 -48 59.5 -85.5t161.5 -64t239 -40t292 -13.5zM1467 867q-23 1 -47.5 -13.5t-44.5 -38.5t-33.5 -55t-13.5 -63q0 -30 18.5 -49t47.5 -30t65.5 -15.5t72 -5t66.5 1t50 3.5q-9 45 -23.5 91t-36.5 84t-52 63t-69 27zM1486 1287l-222 222l222 222l222 -222z" />
    <glyph glyph-name="uni0641.init" unicode="&#x641;" horiz-adv-x="943" arabic-form="initial" 
d="M15 256q37 0 89.5 0.5t112 3t121.5 7.5t118.5 15t103.5 25t77 37q-131 -13 -240.5 -7t-189 42t-124 107.5t-45.5 191.5q0 55 11 113.5t33.5 115t55.5 107t76.5 88.5t97 60.5t116.5 22.5q79 0 144.5 -30t118 -81.5t92 -119.5t65.5 -143t39 -153t13 -150q0 -120 -33.5 -209
t-93.5 -152t-142.5 -103.5t-181 -63.5t-208.5 -31.5t-225 -8.5h-36v316h35zM426 867q-23 1 -47.5 -13.5t-44.5 -38.5t-33.5 -55t-13.5 -63q0 -30 18.5 -49t47.5 -30t65.5 -15.5t72 -5t66.5 1t50 3.5q-9 45 -23.5 91t-36.5 84t-52 63t-69 27zM420 1287l-222 222l222 222
l222 -222z" />
    <glyph glyph-name="uni0641.medi" unicode="&#x641;" horiz-adv-x="1001" arabic-form="medial" 
d="M-20 256h72q23 0 47 1.5t45 4t32 7.5q-18 20 -35 43.5t-30.5 51.5t-22.5 60.5t-11 70.5q-2 59 12.5 119.5t42.5 117.5t68 106.5t89 86t105.5 56t117.5 17.5q87 -4 162 -45t129.5 -106t86 -147.5t31.5 -169.5q0 -69 -23 -135.5t-58 -126.5q26 -6 64 -9t97 -3h20v-316h-39
q-65 0 -123.5 3.5t-115 12.5t-113 24.5t-117.5 40.5q-37 -21 -92.5 -36.5t-121.5 -25t-138 -14.5t-142 -5h-39v316zM656 507q0 32 -15.5 61t-38 52t-48.5 38.5t-47 21.5q-23 -5 -52.5 -18t-56 -36.5t-44.5 -57t-18 -79.5q0 -15 15.5 -41.5t40 -54t56 -51t64.5 -33.5
q25 14 51 38.5t46.5 52t33.5 56t13 51.5zM493 1137l-222 222l222 222l222 -222z" />
    <glyph glyph-name="uni0641.fina" unicode="&#x641;" horiz-adv-x="2106" arabic-form="final" 
d="M963 -60q-89 0 -192.5 7.5t-206.5 29t-199.5 59.5t-171.5 99t-123 148t-54 207q0 59 13 114.5t34.5 108.5t49 104.5t56.5 103.5l235 -197q-15 -21 -35 -54.5t-38.5 -70.5t-31 -74.5t-12.5 -65.5q0 -37 26.5 -66.5t74 -52t112 -38.5t140 -26t159 -15t169.5 -5q39 0 84 0.5
t85 1.5t70.5 2t41.5 2q-36 40 -65 99t-33 134q-2 59 12.5 119.5t42.5 117.5t68 106.5t89 86t105.5 56t117.5 17.5q87 -4 162 -45t129.5 -106t86 -147.5t31.5 -169.5q0 -69 -23 -135.5t-58 -126.5q48 -5 93.5 -8.5t85.5 -3.5h33v-316h-28q-62 0 -127.5 2t-130.5 10.5
t-129 24.5t-124 44q-24 -14 -66 -25.5t-95.5 -20.5t-114 -15.5t-122 -11t-120 -6.5t-106.5 -2zM1730 507q0 32 -15.5 61t-38 52t-48.5 38.5t-47 21.5q-23 -5 -52.5 -18t-56 -36.5t-44.5 -57t-18 -79.5q0 -15 15.5 -41.5t40 -54t56 -51t64.5 -33.5q25 14 51 38.5t46.5 52
t33.5 56t13 51.5zM1627 1157l-222 222l222 222l222 -222z" />
    <glyph glyph-name="veh.isol" unicode="&#x6a4;" horiz-adv-x="1985" arabic-form="isolated" 
d="M1056 256q38 0 90 0.5t111.5 3t121.5 7.5t118.5 15t103.5 25t77 37q-131 -13 -240.5 -7t-189 42t-124 107.5t-45.5 191.5q0 55 11 113.5t33.5 115t55.5 107t76.5 88.5t97 60.5t116.5 22.5q79 0 144.5 -30t118 -81.5t92 -119.5t65.5 -143t39 -153t13 -150
q0 -120 -33.5 -209t-93.5 -152t-142.5 -103.5t-181 -63.5t-208.5 -31.5t-225 -8.5q-121 0 -244 8t-237 29.5t-213 59.5t-172.5 99t-115.5 148t-42 206q0 59 13 114.5t34.5 108.5t49 104.5t56.5 103.5l235 -197q-15 -21 -35 -54.5t-38.5 -70.5t-31 -74.5t-12.5 -65.5
q0 -48 59.5 -85.5t161.5 -64t239 -40t292 -13.5zM1467 867q-23 1 -47.5 -13.5t-44.5 -38.5t-33.5 -55t-13.5 -63q0 -30 18.5 -49t47.5 -30t65.5 -15.5t72 -5t66.5 1t50 3.5q-9 45 -23.5 91t-36.5 84t-52 63t-69 27zM1485 1478l-188 -188l-194 193l192 193l190 -190l188 188
l194 -193l-192 -193zM1664 1770l-178 -178l-179 179l178 178z" />
    <glyph glyph-name="veh.init" unicode="&#x6a4;" horiz-adv-x="943" arabic-form="initial" 
d="M15 256q37 0 89.5 0.5t112 3t121.5 7.5t118.5 15t103.5 25t77 37q-131 -13 -240.5 -7t-189 42t-124 107.5t-45.5 191.5q0 55 11 113.5t33.5 115t55.5 107t76.5 88.5t97 60.5t116.5 22.5q79 0 144.5 -30t118 -81.5t92 -119.5t65.5 -143t39 -153t13 -150q0 -120 -33.5 -209
t-93.5 -152t-142.5 -103.5t-181 -63.5t-208.5 -31.5t-225 -8.5h-36v316h35zM426 867q-23 1 -47.5 -13.5t-44.5 -38.5t-33.5 -55t-13.5 -63q0 -30 18.5 -49t47.5 -30t65.5 -15.5t72 -5t66.5 1t50 3.5q-9 45 -23.5 91t-36.5 84t-52 63t-69 27zM426 1484l-188 -188l-194 193
l192 193l190 -190l188 188l194 -193l-192 -193zM605 1776l-178 -178l-179 179l178 178z" />
    <glyph glyph-name="veh.medi" unicode="&#x6a4;" horiz-adv-x="1001" arabic-form="medial" 
d="M-20 256h72q23 0 47 1.5t45 4t32 7.5q-18 20 -35 43.5t-30.5 51.5t-22.5 60.5t-11 70.5q-2 59 12.5 119.5t42.5 117.5t68 106.5t89 86t105.5 56t117.5 17.5q87 -4 162 -45t129.5 -106t86 -147.5t31.5 -169.5q0 -69 -23 -135.5t-58 -126.5q26 -6 64 -9t97 -3h20v-316h-39
q-65 0 -123.5 3.5t-115 12.5t-113 24.5t-117.5 40.5q-37 -21 -92.5 -36.5t-121.5 -25t-138 -14.5t-142 -5h-39v316zM656 507q0 32 -15.5 61t-38 52t-48.5 38.5t-47 21.5q-23 -5 -52.5 -18t-56 -36.5t-44.5 -57t-18 -79.5q0 -15 15.5 -41.5t40 -54t56 -51t64.5 -33.5
q25 14 51 38.5t46.5 52t33.5 56t13 51.5zM502 1294l-188 -188l-194 193l192 193l190 -190l188 188l194 -193l-192 -193zM681 1586l-178 -178l-179 179l178 178z" />
    <glyph glyph-name="veh.fina" unicode="&#x6a4;" horiz-adv-x="2106" arabic-form="final" 
d="M963 -60q-89 0 -192.5 7.5t-206.5 29t-199.5 59.5t-171.5 99t-123 148t-54 207q0 59 13 114.5t34.5 108.5t49 104.5t56.5 103.5l235 -197q-15 -21 -35 -54.5t-38.5 -70.5t-31 -74.5t-12.5 -65.5q0 -37 26.5 -66.5t74 -52t112 -38.5t140 -26t159 -15t169.5 -5q39 0 84 0.5
t85 1.5t70.5 2t41.5 2q-36 40 -65 99t-33 134q-2 59 12.5 119.5t42.5 117.5t68 106.5t89 86t105.5 56t117.5 17.5q87 -4 162 -45t129.5 -106t86 -147.5t31.5 -169.5q0 -69 -23 -135.5t-58 -126.5q48 -5 93.5 -8.5t85.5 -3.5h33v-316h-28q-62 0 -127.5 2t-130.5 10.5
t-129 24.5t-124 44q-24 -14 -66 -25.5t-95.5 -20.5t-114 -15.5t-122 -11t-120 -6.5t-106.5 -2zM1730 507q0 32 -15.5 61t-38 52t-48.5 38.5t-47 21.5q-23 -5 -52.5 -18t-56 -36.5t-44.5 -57t-18 -79.5q0 -15 15.5 -41.5t40 -54t56 -51t64.5 -33.5q25 14 51 38.5t46.5 52
t33.5 56t13 51.5zM1620 1294l-188 -188l-194 193l192 193l190 -190l188 188l194 -193l-192 -193zM1799 1586l-178 -178l-179 179l178 178z" />
    <glyph glyph-name="uni0642.init" unicode="&#x642;" horiz-adv-x="943" arabic-form="initial" 
d="M15 256q37 0 89.5 0.5t112 3t121.5 7.5t118.5 15t103.5 25t77 37q-131 -13 -240.5 -7t-189 42t-124 107.5t-45.5 191.5q0 55 11 113.5t33.5 115t55.5 107t76.5 88.5t97 60.5t116.5 22.5q79 0 144.5 -30t118 -81.5t92 -119.5t65.5 -143t39 -153t13 -150q0 -120 -33.5 -209
t-93.5 -152t-142.5 -103.5t-181 -63.5t-208.5 -31.5t-225 -8.5h-36v316h35zM426 867q-23 1 -47.5 -13.5t-44.5 -38.5t-33.5 -55t-13.5 -63q0 -30 18.5 -49t47.5 -30t65.5 -15.5t72 -5t66.5 1t50 3.5q-9 45 -23.5 91t-36.5 84t-52 63t-69 27zM422 1475l-188 -188l-194 193
l192 193l190 -190l188 188l194 -193l-192 -193z" />
    <glyph glyph-name="uni0642.medi" unicode="&#x642;" horiz-adv-x="1001" arabic-form="medial" 
d="M-20 256h72q23 0 47 1.5t45 4t32 7.5q-18 20 -35 43.5t-30.5 51.5t-22.5 60.5t-11 70.5q-2 59 12.5 119.5t42.5 117.5t68 106.5t89 86t105.5 56t117.5 17.5q87 -4 162 -45t129.5 -106t86 -147.5t31.5 -169.5q0 -69 -23 -135.5t-58 -126.5q26 -6 64 -9t97 -3h20v-316h-39
q-65 0 -123.5 3.5t-115 12.5t-113 24.5t-117.5 40.5q-37 -21 -92.5 -36.5t-121.5 -25t-138 -14.5t-142 -5h-39v316zM656 507q0 32 -15.5 61t-38 52t-48.5 38.5t-47 21.5q-23 -5 -52.5 -18t-56 -36.5t-44.5 -57t-18 -79.5q0 -15 15.5 -41.5t40 -54t56 -51t64.5 -33.5
q25 14 51 38.5t46.5 52t33.5 56t13 51.5zM494 1307l-188 -188l-194 193l192 193l190 -190l188 188l194 -193l-192 -193z" />
    <glyph glyph-name="uni0642" unicode="&#x642;" horiz-adv-x="1574" arabic-form="isolated" 
d="M775 -381q87 0 162.5 24t137 66.5t107.5 101.5t73 129q-159 1 -278 21.5t-199 68t-121.5 126t-45.5 195.5q0 54 13.5 116.5t39 124t63 118t84.5 99.5t104 69t122 26q96 0 172.5 -40t135 -106.5t99 -152.5t65 -178t32.5 -183.5t2 -168.5q0 -98 -27.5 -193.5t-77.5 -181.5
t-120.5 -159t-156 -126.5t-184.5 -83.5t-206 -30q-152 0 -287.5 48.5t-237 139t-161 219t-59.5 289.5q0 75 7.5 143.5t24 136t43.5 137t66 146.5l252 -106q-39 -72 -63.5 -134.5t-38 -118t-18.5 -106t-5 -97.5q0 -89 40 -160t106.5 -120t153.5 -74.5t181 -24.5zM1037 585
q-29 3 -61 -17t-57.5 -54t-39 -76t-3.5 -82q9 -38 38.5 -58t80 -29.5t121 -11t161.5 -1.5q-3 42 -21 96.5t-49.5 104t-74.5 86t-95 42.5zM1014 1235l-188 -188l-194 193l192 193l190 -190l188 188l194 -193l-192 -193z" />
    <glyph glyph-name="uni0642.fina" unicode="&#x642;" horiz-adv-x="1570" arabic-form="final" 
d="M775 -381q87 0 162.5 24t137 66.5t107.5 101.5t73 129q-159 1 -278 21.5t-199 68t-121.5 126t-45.5 195.5q0 54 13.5 116.5t39 124t63 118t84.5 99.5t104 69t122 26q79 0 144.5 -27.5t119 -75t94.5 -110.5t70.5 -135t48 -149t26.5 -151h50v-316h-61
q-25 -128 -93.5 -243.5t-169 -203.5t-227 -140t-268.5 -52q-152 0 -287.5 48.5t-237 139t-161 219t-59.5 289.5q0 75 7.5 143.5t24 136t43.5 137t66 146.5l252 -106q-39 -72 -63.5 -134.5t-38 -118t-18.5 -106t-5 -97.5q0 -89 40 -160t106.5 -120t153.5 -74.5t181 -24.5z
M1037 585q-29 3 -61 -17t-57.5 -54t-39 -76t-3.5 -82q9 -38 38.5 -58t80 -29.5t121 -11t161.5 -1.5q-3 42 -21 96.5t-49.5 104t-74.5 86t-95 42.5zM1020 1235l-188 -188l-194 193l192 193l190 -190l188 188l194 -193l-192 -193z" />
    <glyph glyph-name="uni0646.init" unicode="&#x646;" horiz-adv-x="723" arabic-form="initial" 
d="M-20 256h135q42 0 92.5 7t94 22.5t73 42t29.5 65.5q0 24 -14 71.5t-37 106t-52 122.5t-58 122l286 142q28 -63 55.5 -134t49.5 -144t35.5 -145.5t13.5 -138.5q0 -120 -40 -206t-112 -141.5t-172 -81.5t-220 -26h-159v316zM299 1062l-222 222l222 222l222 -222z" />
    <glyph glyph-name="uni0646.medi" unicode="&#x646;" horiz-adv-x="705" arabic-form="medial" 
d="M725 256v-316h-22q-97 0 -164 27t-117 74q-72 -53 -169.5 -77t-235.5 -24h-37v316h37q138 0 208 45t70 135q0 30 -8 84.5t-33 143.5l283 69q16 -55 26.5 -97.5t16.5 -77.5t9 -64.5t5 -57.5t6 -59.5t15.5 -58.5t32 -44.5t55.5 -17.5h22zM298 893l-222 222l222 222
l222 -222z" />
    <glyph glyph-name="uni0646" unicode="&#x646;" horiz-adv-x="1619" arabic-form="isolated" 
d="M813 -749q-172 0 -313 44t-241.5 131.5t-156 218t-55.5 303.5q0 166 52.5 331t155.5 323l225 -162q-20 -27 -47 -81t-52 -123t-42 -146.5t-17 -149.5q0 -83 37.5 -150t100 -115t144 -75t169.5 -29q106 -2 204 27.5t171.5 83t115.5 127t38 159.5q-2 43 -16 97t-33.5 110.5
t-43 112t-44 101.5t-35.5 79t-19 45l272 151q4 -4 20 -39t37.5 -90.5t46 -126.5t44.5 -147t33.5 -151t13.5 -138q0 -89 -20 -177t-61.5 -168.5t-104 -149t-147.5 -119t-193 -79t-239 -28.5zM820 454l-222 222l222 222l222 -222z" />
    <glyph glyph-name="uni0646.fina" unicode="&#x646;" horiz-adv-x="1711" arabic-form="final" 
d="M1697 -60q-23 0 -41.5 2t-36.5 5.5t-36.5 9t-40.5 12.5q0 -170 -62 -303.5t-169 -225t-251 -139.5t-310 -48q-167 0 -303 47t-232 136t-148 217.5t-52 290.5q0 86 12 163.5t37 155.5t62.5 160t88.5 177l225 -162q-29 -52 -56 -116.5t-47.5 -133t-33 -136.5t-12.5 -127
q0 -78 38 -143t100.5 -111.5t142.5 -73t165 -27.5q117 -2 214 18.5t167 65.5t108.5 116t38.5 171q0 58 -17 123.5t-44.5 136t-64 145t-75.5 152.5l273 173l101 -195q41 -83 76 -127.5t66.5 -65t60 -24t56.5 -3.5h32v-316h-32zM768 454l-222 222l222 222l222 -222z" />
    <glyph glyph-name="uni06C0" unicode="&#x6c0;" horiz-adv-x="993" arabic-form="isolated" 
d="M485 -60q-81 0 -163.5 28t-150 80.5t-110 128t-42.5 170.5q0 200 177 415q14 17 23.5 28t17.5 20t15 16l18 18l-61 52l199 243q51 -38 121.5 -102.5t164.5 -164.5q259 -295 259 -525q0 -100 -41 -176t-107 -127.5t-150 -77.5t-170 -26zM679 347q0 31 -20 70t-52.5 81.5
t-72.5 86t-80 83.5q-27 -30 -57 -67.5t-55 -79.5t-41 -86.5t-14 -87.5q1 -24 23 -42t52.5 -29t64.5 -16.5t58 -5.5q30 0 64.5 4.5t63 15.5t47.5 29t19 44zM540 1620q-26 4 -46.5 8t-39 6.5t-36 1t-36.5 -8.5q-20 -8 -36 -21t-26.5 -31t-12.5 -39.5t7 -46.5q6 -18 21.5 -29.5
t33.5 -18.5t37 -8t33 2t23.5 6t26.5 10.5t48 23.5t89 46l76 -102l-257 -150l-240 -133l-62 113l166 93q-34 20 -60.5 50t-41.5 65q-17 42 -14.5 85t20.5 82t49 70.5t72 49.5q25 11 51 15.5t53 4.5q13 0 25.5 -1t28 -3.5t36 -7t49.5 -11.5z" />
    <glyph glyph-name="uni06C0.fina" unicode="&#x6c0;" horiz-adv-x="1090" arabic-form="final" 
d="M544 80q-98 0 -184 20t-150 62t-101 107t-37 156q0 69 25.5 130.5t67 115t94 98t106 79.5t103 59t86.5 37q-1 12 -2 24.5t-2 30.5t-3 42t-5 59l312 67q21 -188 40 -343t33.5 -267t24 -176t11.5 -68q15 -32 44.5 -44.5t80.5 -12.5h22v-316h-29q-42 0 -97 7.5t-115 35.5
q-42 20 -73.5 45.5t-60.5 64.5q-51 -7 -98.5 -10t-92.5 -3zM538 394q21 0 43.5 1.5t43.5 3.5q-3 17 -5.5 37.5t-6 50t-8.5 70.5t-11 100q-38 -19 -85 -45.5t-88.5 -56t-69.5 -60t-28 -56.5q0 -13 22.5 -21.5t55.5 -14t70 -7.5t67 -2zM676 1600q-26 4 -46.5 8t-39 6.5t-36 1
t-36.5 -8.5q-20 -8 -36 -21t-26.5 -31t-12.5 -39.5t7 -46.5q6 -18 21.5 -29.5t33.5 -18.5t37 -8t33 2t23.5 6t26.5 10.5t48 23.5t89 46l76 -102l-257 -150l-240 -133l-62 113l166 93q-34 20 -60.5 50t-41.5 65q-17 42 -14.5 85t20.5 82t49 70.5t72 49.5q25 11 51 15.5
t53 4.5q13 0 25.5 -1t28 -3.5t36 -7t49.5 -11.5z" />
    <glyph glyph-name="uni0624" unicode="&#x624;" horiz-adv-x="1068" arabic-form="isolated" 
d="M28 -457q141 28 257 70.5t203.5 95t145 111.5t81.5 120q-43 0 -91 1.5t-79 3.5q-99 8 -180 37.5t-139.5 81t-90.5 125.5t-32 170q0 61 13 125t37.5 125t61 115t82.5 95t101.5 64.5t119.5 23.5q92 0 168 -40t134.5 -106.5t100.5 -153t67.5 -180t34 -186.5t0.5 -172
q-12 -117 -52.5 -219.5t-104 -189t-147.5 -157t-182 -124t-208.5 -89.5t-226.5 -54zM518 590q-21 4 -48 -14.5t-50 -50t-38.5 -69.5t-15.5 -73q0 -34 21 -56.5t54 -36.5t74.5 -21.5t82.5 -10t78 -2.5h62q-15 62 -35.5 119t-47.5 102t-61 75t-76 38zM581 1362q-26 4 -46.5 8
t-39 6.5t-36 1t-36.5 -8.5q-20 -8 -36 -21t-26.5 -31t-12.5 -39.5t7 -46.5q6 -18 21.5 -29.5t33.5 -18.5t37 -8t33 2t23.5 6t26.5 10.5t48 23.5t89 46l76 -102l-257 -150l-240 -133l-62 113l166 93q-34 20 -60.5 50t-41.5 65q-17 42 -14.5 85t20.5 82t49 70.5t72 49.5
q25 11 51 15.5t53 4.5q13 0 25.5 -1t28 -3.5t36 -7t49.5 -11.5z" />
    <glyph glyph-name="uni0624.fina" unicode="&#x624;" horiz-adv-x="1043" arabic-form="final" 
d="M28 -457q141 28 257 70.5t203.5 95t145 111.5t81.5 120q-43 0 -91 1.5t-79 3.5q-99 8 -180 37.5t-139.5 81t-90.5 125.5t-32 170q0 61 13 125t37.5 125t61 115t82.5 95t101.5 64.5t119.5 23.5q76 0 140 -27.5t117.5 -74.5t95 -110.5t72 -136t50 -150t27.5 -152.5h43v-316
h-64q-39 -147 -124.5 -266.5t-204.5 -208.5t-264.5 -147t-303.5 -82zM518 590q-21 4 -48 -14.5t-50 -50t-39 -69.5t-15 -73q1 -34 22 -56t54 -36.5t74.5 -21.5t82.5 -10t77 -3h62q-15 62 -35.5 119t-47.5 102t-61 75t-76 38zM581 1362q-26 4 -46.5 8t-39 6.5t-36 1
t-36.5 -8.5q-20 -8 -36 -21t-26.5 -31t-12.5 -39.5t7 -46.5q6 -18 21.5 -29.5t33.5 -18.5t37 -8t33 2t23.5 6t26.5 10.5t48 23.5t89 46l76 -102l-257 -150l-240 -133l-62 113l166 93q-34 20 -60.5 50t-41.5 65q-17 42 -14.5 85t20.5 82t49 70.5t72 49.5q25 11 51 15.5
t53 4.5q13 0 25.5 -1t28 -3.5t36 -7t49.5 -11.5z" />
    <glyph glyph-name="uni0649.init" unicode="&#x649;" horiz-adv-x="723" arabic-form="initial" 
d="M-20 256h135q42 0 92.5 7t94 22.5t73 42t29.5 65.5q0 24 -14 71.5t-37 106t-52 122.5t-58 122l286 142q28 -63 55.5 -134t49.5 -144t35.5 -145.5t13.5 -138.5q0 -120 -40 -206t-112 -141.5t-172 -81.5t-220 -26h-159v316z" />
    <glyph glyph-name="uni0649.medi" unicode="&#x649;" horiz-adv-x="705" arabic-form="medial" 
d="M725 256v-316h-22q-97 0 -164 27t-117 74q-72 -53 -169.5 -77t-235.5 -24h-37v316h37q138 0 208 45t70 135q0 30 -8 84.5t-33 143.5l283 69q16 -55 26.5 -97.5t16.5 -77.5t9 -64.5t5 -57.5t6 -59.5t15.5 -58.5t32 -44.5t55.5 -17.5h22z" />
    <glyph glyph-name="uni064A.init" unicode="&#x64a;" horiz-adv-x="838" arabic-form="initial" 
d="M-20 256h240q43 0 95 4.5t97.5 18.5t76 41.5t30.5 72.5q0 24 -14.5 71.5t-38 106t-53 122.5t-58.5 122l286 142q28 -63 55.5 -134t49.5 -144t35.5 -145.5t13.5 -138.5q0 -124 -45.5 -210.5t-123.5 -141t-183 -79t-225 -24.5h-238v316zM368 -353l-188 -188l-194 193
l192 193l190 -190l188 188l194 -193l-192 -193z" />
    <glyph glyph-name="uni064A.medi" unicode="&#x64a;" horiz-adv-x="852" arabic-form="medial" 
d="M872 256v-316h-23q-48 0 -94.5 8t-87.5 22.5t-75.5 34.5t-59.5 43q-47 -36 -107.5 -57t-128 -32.5t-139 -15t-140.5 -3.5h-37v316h37q72 0 128.5 4t99 14t71.5 26.5t47 41.5q23 32 28.5 71t1 80.5t-15.5 83t-20 79.5l291 83q12 -45 20.5 -82t15 -72t11.5 -71t11 -78
q4 -27 10.5 -58.5t21.5 -58.5t41.5 -45t69.5 -18h23zM382 -353l-188 -188l-194 193l192 193l190 -190l188 188l194 -193l-192 -193z" />
    <glyph glyph-name="uni064A" unicode="&#x64a;" horiz-adv-x="1774" arabic-form="isolated" 
d="M813 226q5 85 31 168.5t70 159t103.5 139.5t132 111t156 73.5t174.5 26.5q67 0 138.5 -19.5t143.5 -57.5l-111 -293q-48 21 -91 32.5t-81 11.5q-62 0 -127.5 -27t-122 -72.5t-96 -105.5t-49.5 -126q-2 -28 16 -46t48 -31t68 -22.5t77 -19.5q74 -20 143.5 -41t123 -55.5
t86 -89.5t32.5 -144q0 -106 -40.5 -188.5t-109.5 -145t-159.5 -105.5t-189.5 -70.5t-201 -39.5t-193 -12q-168 0 -309.5 43.5t-243.5 128t-159.5 209.5t-57.5 288q0 26 2 52t4 49q6 109 28.5 209t48 178t47 127t24.5 56l251 -105q-28 -66 -52.5 -132t-42.5 -134.5
t-28.5 -138.5t-10.5 -143q0 -105 42 -174.5t111.5 -111t159.5 -59t186 -17.5q127 0 237.5 17.5t194.5 46t135.5 66t59.5 76.5q-63 15 -133.5 30t-139 36.5t-130 52.5t-107 76.5t-70.5 110t-19 152.5zM813 -1009l-188 -188l-194 193l192 193l190 -190l188 188l194 -193
l-192 -193z" />
    <glyph glyph-name="uni064A.fina" unicode="&#x64a;" horiz-adv-x="1715" arabic-form="final" 
d="M830 -712q-108 0 -209 15.5t-189 48.5t-160.5 85t-124.5 125.5t-80.5 170t-28.5 218.5q0 88 7.5 167.5t23.5 157.5t41.5 158t61.5 170l257 -107q-29 -72 -49.5 -130t-34.5 -105.5t-22 -87.5t-12 -76.5t-5 -72t-1 -74.5q0 -75 24 -130t65 -93t94.5 -62.5t111.5 -37.5
t117.5 -18t112.5 -5q26 0 77 3.5t111.5 12t124 22.5t115.5 34.5t85 48t33 64.5q-72 54 -197 97t-306 65l41 304h821v-316h-130q21 -40 30.5 -80.5t10.5 -69.5q-5 -94 -47.5 -167.5t-109.5 -129.5t-152 -95t-174 -63.5t-175.5 -35.5t-157.5 -11zM798 -984l-188 -188l-194 193
l192 193l190 -190l188 188l194 -193l-192 -193z" />
    <glyph glyph-name="uni06CC" unicode="&#x6cc;" horiz-adv-x="1774" arabic-form="isolated" 
d="M813 226q5 85 31 168.5t70 159t103.5 139.5t132 111t156 73.5t174.5 26.5q67 0 138.5 -19.5t143.5 -57.5l-111 -293q-48 21 -91 32.5t-81 11.5q-62 0 -127.5 -27t-122 -72.5t-96 -105.5t-49.5 -126q-2 -28 16 -46t48 -31t68 -22.5t77 -19.5q74 -20 143.5 -41t123 -55.5
t86 -89.5t32.5 -144q0 -106 -40.5 -188.5t-109.5 -145t-159.5 -105.5t-189.5 -70.5t-201 -39.5t-193 -12q-168 0 -309.5 43.5t-243.5 128t-159.5 209.5t-57.5 288q0 26 2 52t4 49q6 109 28.5 209t48 178t47 127t24.5 56l251 -105q-28 -66 -52.5 -132t-42.5 -134.5
t-28.5 -138.5t-10.5 -143q0 -105 42 -174.5t111.5 -111t159.5 -59t186 -17.5q127 0 237.5 17.5t194.5 46t135.5 66t59.5 76.5q-63 15 -133.5 30t-139 36.5t-130 52.5t-107 76.5t-70.5 110t-19 152.5z" />
    <glyph glyph-name="uni06CC.init" unicode="&#x6cc;" horiz-adv-x="838" arabic-form="initial" 
d="M-20 256h240q43 0 95 4.5t97.5 18.5t76 41.5t30.5 72.5q0 24 -14.5 71.5t-38 106t-53 122.5t-58.5 122l286 142q28 -63 55.5 -134t49.5 -144t35.5 -145.5t13.5 -138.5q0 -124 -45.5 -210.5t-123.5 -141t-183 -79t-225 -24.5h-238v316zM370 -353l-188 -188l-194 193
l192 193l190 -190l188 188l194 -193l-192 -193z" />
    <glyph glyph-name="uni06CC.medi" unicode="&#x6cc;" horiz-adv-x="852" arabic-form="medial" 
d="M872 256v-316h-23q-48 0 -94.5 8t-87.5 22.5t-75.5 34.5t-59.5 43q-47 -36 -107.5 -57t-128 -32.5t-139 -15t-140.5 -3.5h-37v316h37q72 0 128.5 4t99 14t71.5 26.5t47 41.5q23 32 28.5 71t1 80.5t-15.5 83t-20 79.5l291 83q12 -45 20.5 -82t15 -72t11.5 -71t11 -78
q4 -27 10.5 -58.5t21.5 -58.5t41.5 -45t69.5 -18h23zM370 -353l-188 -188l-194 193l192 193l190 -190l188 188l194 -193l-192 -193z" />
    <glyph glyph-name="uni06CC.fina" unicode="&#x6cc;" horiz-adv-x="1715" arabic-form="final" 
d="M830 -712q-108 0 -209 15.5t-189 48.5t-160.5 85t-124.5 125.5t-80.5 170t-28.5 218.5q0 88 7.5 167.5t23.5 157.5t41.5 158t61.5 170l257 -107q-29 -72 -49.5 -130t-34.5 -105.5t-22 -87.5t-12 -76.5t-5 -72t-1 -74.5q0 -75 24 -130t65 -93t94.5 -62.5t111.5 -37.5
t117.5 -18t112.5 -5q26 0 77 3.5t111.5 12t124 22.5t115.5 34.5t85 48t33 64.5q-72 54 -197 97t-306 65l41 304h821v-316h-130q21 -40 30.5 -80.5t10.5 -69.5q-5 -94 -47.5 -167.5t-109.5 -129.5t-152 -95t-174 -63.5t-175.5 -35.5t-157.5 -11z" />
    <glyph glyph-name="uni06D3" unicode="&#x6d3;" horiz-adv-x="1298" arabic-form="isolated" 
d="M775 256v-316h-346q-52 0 -81 -16t-29 -43q0 -5 4 -12t12 -14t21 -11.5t31 -4.5h911v-314h-892q-101 0 -173.5 26.5t-119 71.5t-69 103.5t-22.5 122.5q0 72 29.5 145t85 131t135.5 94.5t181 36.5h322zM488 728q-26 4 -46.5 8t-39 6.5t-36 1t-36.5 -8.5q-20 -8 -36 -21
t-26.5 -31t-12.5 -39.5t7 -46.5q6 -18 21.5 -29.5t33.5 -18.5t37 -8t33 2t23.5 6t26.5 10.5t48 23.5t89 46l76 -102l-257 -150l-240 -133l-62 113l166 93q-34 20 -60.5 50t-41.5 65q-17 42 -14.5 85t20.5 82t49 70.5t72 49.5q25 11 51 15.5t53 4.5q13 0 25.5 -1t28 -3.5
t36 -7t49.5 -11.5z" />
    <glyph glyph-name="uni06D3.fina" unicode="&#x6d3;" horiz-adv-x="991" arabic-form="final" 
d="M1011 256v-316h-582q-52 0 -81 -16t-29 -43q0 -5 4 -12t12 -14t21 -11.5t31 -4.5h676v-314h-657q-101 0 -173.5 26.5t-119 71.5t-69 103.5t-22.5 122.5q0 72 29.5 145t85 131t135.5 94.5t181 36.5h558zM555 771q-26 4 -46.5 8t-39 6.5t-36 1t-36.5 -8.5q-20 -8 -36 -21
t-26.5 -31t-12.5 -39.5t7 -46.5q6 -18 21.5 -29.5t33.5 -18.5t37 -8t33 2t23.5 6t26.5 10.5t48 23.5t89 46l76 -102l-257 -150l-240 -133l-62 113l166 93q-34 20 -60.5 50t-41.5 65q-17 42 -14.5 85t20.5 82t49 70.5t72 49.5q25 11 51 15.5t53 4.5q13 0 25.5 -1t28 -3.5
t36 -7t49.5 -11.5z" />
    <glyph glyph-name="uni0626" unicode="&#x626;" horiz-adv-x="1776" arabic-form="isolated" 
d="M813 226q5 85 31 168.5t70 159t103.5 139.5t132 111t156 73.5t174.5 26.5q67 0 138.5 -19.5t143.5 -57.5l-111 -293q-48 21 -91 32.5t-81 11.5q-62 0 -127.5 -27t-122 -72.5t-96 -105.5t-49.5 -126q-2 -28 16 -46t48 -31t68 -22.5t77 -19.5q74 -20 143.5 -41t123 -55.5
t86 -89.5t32.5 -144q0 -106 -40.5 -188.5t-109.5 -145t-159.5 -105.5t-189.5 -70.5t-201 -39.5t-193 -12q-168 0 -309.5 43.5t-243.5 128t-159.5 209.5t-57.5 288q0 26 2 52t4 49q6 109 28.5 209t48 178t47 127t24.5 56l251 -105q-28 -66 -52.5 -132t-42.5 -134.5
t-28.5 -138.5t-10.5 -143q0 -105 42 -174.5t111.5 -111t159.5 -59t186 -17.5q127 0 237.5 17.5t194.5 46t135.5 66t59.5 76.5q-63 15 -133.5 30t-139 36.5t-130 52.5t-107 76.5t-70.5 110t-19 152.5zM742 1150q-26 4 -46.5 8t-39 6.5t-36 1t-36.5 -8.5q-20 -8 -36 -21
t-26.5 -31t-12.5 -39.5t7 -46.5q6 -18 21.5 -29.5t33.5 -18.5t37 -8t33 2t23.5 6t26.5 10.5t48 23.5t89 46l76 -102l-257 -150l-240 -133l-62 113l166 93q-34 20 -60.5 50t-41.5 65q-17 42 -14.5 85t20.5 82t49 70.5t72 49.5q25 11 51 15.5t53 4.5q13 0 25.5 -1t28 -3.5
t36 -7t49.5 -11.5z" />
    <glyph glyph-name="uni0626.init" unicode="&#x626;" horiz-adv-x="838" arabic-form="initial" 
d="M-20 256h240q43 0 95 4.5t97.5 18.5t76 41.5t30.5 72.5q0 24 -14.5 71.5t-38 106t-53 122.5t-58.5 122l286 142q28 -63 55.5 -134t49.5 -144t35.5 -145.5t13.5 -138.5q0 -124 -45.5 -210.5t-123.5 -141t-183 -79t-225 -24.5h-238v316zM544 1444q-26 4 -46.5 8t-39 6.5
t-36 1t-36.5 -8.5q-20 -8 -36 -21t-26.5 -31t-12.5 -39.5t7 -46.5q6 -18 21.5 -29.5t33.5 -18.5t37 -8t33 2t23.5 6t26.5 10.5t48 23.5t89 46l76 -102l-257 -150l-240 -133l-62 113l166 93q-34 20 -60.5 50t-41.5 65q-17 42 -14.5 85t20.5 82t49 70.5t72 49.5q25 11 51 15.5
t53 4.5q13 0 25.5 -1t28 -3.5t36 -7t49.5 -11.5z" />
    <glyph glyph-name="uni0626.medi" unicode="&#x626;" horiz-adv-x="852" arabic-form="medial" 
d="M872 256v-316h-23q-48 0 -94.5 8t-87.5 22.5t-75.5 34.5t-59.5 43q-47 -36 -107.5 -57t-128 -32.5t-139 -15t-140.5 -3.5h-37v316h37q72 0 128.5 4t99 14t71.5 26.5t47 41.5q23 32 28.5 71t1 80.5t-15.5 83t-20 79.5l291 83q12 -45 20.5 -82t15 -72t11.5 -71t11 -78
q4 -27 10.5 -58.5t21.5 -58.5t41.5 -45t69.5 -18h23zM514 1273q-26 4 -46.5 8t-39 6.5t-36 1t-36.5 -8.5q-20 -8 -36 -21t-26.5 -31t-12.5 -39.5t7 -46.5q6 -18 21.5 -29.5t33.5 -18.5t37 -8t33 2t23.5 6t26.5 10.5t48 23.5t89 46l76 -102l-257 -150l-240 -133l-62 113
l166 93q-34 20 -60.5 50t-41.5 65q-17 42 -14.5 85t20.5 82t49 70.5t72 49.5q25 11 51 15.5t53 4.5q13 0 25.5 -1t28 -3.5t36 -7t49.5 -11.5z" />
    <glyph glyph-name="uni0626.fina" unicode="&#x626;" horiz-adv-x="1715" arabic-form="final" 
d="M830 -712q-108 0 -209 15.5t-189 48.5t-160.5 85t-124.5 125.5t-80.5 170t-28.5 218.5q0 88 7.5 167.5t23.5 157.5t41.5 158t61.5 170l257 -107q-29 -72 -49.5 -130t-34.5 -105.5t-22 -87.5t-12 -76.5t-5 -72t-1 -74.5q0 -75 24 -130t65 -93t94.5 -62.5t111.5 -37.5
t117.5 -18t112.5 -5q26 0 77 3.5t111.5 12t124 22.5t115.5 34.5t85 48t33 64.5q-72 54 -197 97t-306 65l41 304h821v-316h-130q21 -40 30.5 -80.5t10.5 -69.5q-5 -94 -47.5 -167.5t-109.5 -129.5t-152 -95t-174 -63.5t-175.5 -35.5t-157.5 -11zM770 1158q-26 4 -46.5 8
t-39 6.5t-36 1t-36.5 -8.5q-20 -8 -36 -21t-26.5 -31t-12.5 -39.5t7 -46.5q6 -18 21.5 -29.5t33.5 -18.5t37 -8t33 2t23.5 6t26.5 10.5t48 23.5t89 46l76 -102l-257 -150l-240 -133l-62 113l166 93q-34 20 -60.5 50t-41.5 65q-17 42 -14.5 85t20.5 82t49 70.5t72 49.5
q25 11 51 15.5t53 4.5q13 0 25.5 -1t28 -3.5t36 -7t49.5 -11.5z" />
    <glyph glyph-name="uni06C2.fina" unicode="&#x6c2;" horiz-adv-x="1347" 
d="M1367 256v-316h-40q-69 0 -127 21t-107.5 55.5t-92 78.5t-81 90t-74 90t-71 78.5t-72 55.5t-76.5 21q-59 0 -99.5 -29.5t-71 -82t-54.5 -124.5t-49 -156l-304 78q34 132 81 244.5t115 194.5t161.5 128.5t220.5 46.5q82 0 150.5 -25.5t126.5 -66.5t107.5 -93t94.5 -105
q37 -44 66.5 -78t55 -57.5t49 -36t48.5 -12.5h43zM493 1119q-26 4 -46.5 8t-39 6.5t-36 1t-36.5 -8.5q-20 -8 -36 -21t-26.5 -31t-12.5 -39.5t7 -46.5q6 -18 21.5 -29.5t33.5 -18.5t37 -8t33 2t23.5 6t26.5 10.5t48 23.5t89 46l76 -102l-257 -150l-240 -133l-62 113l166 93
q-34 20 -60.5 50t-41.5 65q-17 42 -14.5 85t20.5 82t49 70.5t72 49.5q25 11 51 15.5t53 4.5q13 0 25.5 -1t28 -3.5t36 -7t49.5 -11.5z" />
    <glyph glyph-name="uni06C1" unicode="&#x6c1;" horiz-adv-x="983" arabic-form="isolated" 
d="M485 -60q-81 0 -163.5 28t-150 80.5t-110 128t-42.5 170.5q0 200 177 415q14 17 23.5 28t17.5 20t15 16l18 18l-61 52l199 243q51 -38 121.5 -102.5t164.5 -164.5q259 -295 259 -525q0 -100 -41 -176t-107 -127.5t-150 -77.5t-170 -26zM679 347q0 31 -20 70t-52.5 81.5
t-72.5 86t-80 83.5q-27 -30 -57 -67.5t-55 -79.5t-41 -86.5t-14 -87.5q1 -24 23 -42t52.5 -29t64.5 -16.5t58 -5.5q30 0 64.5 4.5t63 15.5t47.5 29t19 44z" />
    <glyph glyph-name="uni06C3.fina" unicode="&#x6c3;" horiz-adv-x="1347" 
d="M1367 256v-316h-40q-69 0 -127 21t-107.5 55.5t-92 78.5t-81 90t-74 90t-71 78.5t-72 55.5t-76.5 21q-59 0 -99.5 -29.5t-71 -82t-54.5 -124.5t-49 -156l-304 78q34 132 81 244.5t115 194.5t161.5 128.5t220.5 46.5q82 0 150.5 -25.5t126.5 -66.5t107.5 -93t94.5 -105
q37 -44 66.5 -78t55 -57.5t49 -36t48.5 -12.5h43zM593 990l-188 -188l-194 193l192 193l190 -190l188 188l194 -193l-192 -193z" />
    <glyph glyph-name="uni06BE.fina" unicode="&#x6be;" horiz-adv-x="1172" arabic-form="final" 
d="M57 152l173 65q4 66 21 146.5t45.5 163t67.5 161.5t87.5 141t105 101.5t120.5 43.5q67 -1 124 -37.5t97.5 -95.5t63.5 -134t23 -152q0 -91 -39 -177t-102 -160.5t-143.5 -134t-164.5 -97.5q7 -24 29.5 -57.5t51 -67.5t57.5 -64t49 -48q-1 58 17 118.5t50 116.5t75 105.5
t93 86.5t104 58.5t107 21.5h23v-316h-23q-44 0 -85 -23t-72.5 -59.5t-50.5 -82.5t-19 -91q0 -20 3 -37.5t11 -35.5t21.5 -38t34.5 -43l-183 -223q-120 73 -210.5 145t-156.5 146t-110.5 152t-73.5 163h-4l-177 -64zM737 511q2 28 -0.5 59.5t-10 61t-20.5 53.5t-32 36
q-19 -10 -41.5 -38.5t-45.5 -68t-44.5 -87t-38.5 -96.5t-27.5 -95.5t-11.5 -83.5q43 8 89.5 32.5t86 60t66.5 78.5t30 88z" />
    <glyph glyph-name="uni06BE.init" unicode="&#x6be;" horiz-adv-x="1514" arabic-form="initial" 
d="M-20 256h62q11 0 25.5 1t36 2t58.5 3q-35 60 -53 127.5t-18 136.5q0 106 40 203.5t121 167.5l-52 29l193 284q127 -66 249.5 -125t234.5 -110q95 -44 168.5 -77.5t132.5 -66t106 -68.5t88 -84q52 -66 75 -144t23 -151q0 -112 -57.5 -211.5t-169.5 -166.5
q-31 -18 -76.5 -31t-95 -21.5t-97.5 -12.5t-84 -4q-42 0 -91 3.5t-98.5 11t-96.5 19.5t-86 28q-48 -14 -107.5 -25t-125 -18.5t-134 -11.5t-134.5 -4h-37v316zM559 746q-32 5 -68.5 -19t-66.5 -62t-48 -83.5t-14 -84.5q3 -26 20 -53t40.5 -52.5t50.5 -45t50 -28.5
q37 4 74 18t66 42t47 72t18 108q0 33 -18.5 65t-44.5 58.5t-55.5 44t-50.5 20.5zM991 600q0 -50 -10 -99.5t-27 -97t-38.5 -90t-45.5 -78.5h9q74 0 135 5.5t106 22t71.5 46t31.5 78.5q2 24 -20 52.5t-56.5 57t-76.5 55.5t-79 48z" />
    <glyph glyph-name="uni06BE.medi" unicode="&#x6be;" horiz-adv-x="1035" arabic-form="medial" 
d="M-20 256h71q3 66 20.5 143.5t47.5 156t71 152t90.5 131.5t107.5 94.5t121 40.5q67 -1 124 -37.5t97.5 -95.5t63.5 -134t23 -152q0 -91 -39 -177t-102 -160.5t-143.5 -134t-164.5 -97.5q7 -24 29.5 -57.5t51 -67.5t57.5 -64t49 -48q-1 58 17 118.5t50.5 116.5t76.5 105.5
t94.5 86.5t104.5 58.5t107 21.5h50v-316h-54q-44 0 -85 -23t-72.5 -59.5t-50.5 -82.5t-19 -91q0 -20 3 -37.5t11 -35.5t21.5 -38t34.5 -43l-183 -223q-120 73 -211 149t-157.5 155.5t-112 161.5t-74.5 167h-126v316zM569 511q2 28 -0.5 59.5t-10 61t-20.5 53.5t-32 36
q-19 -10 -41.5 -38.5t-45.5 -68t-44.5 -87t-38.5 -96.5t-27.5 -95.5t-11.5 -83.5q43 8 89.5 32.5t86 60t66.5 78.5t30 88z" />
    <glyph glyph-name="fathatan_01" unicode="&#xfe70;" arabic-form="isolated" 
d="M280 1830l-566 -199v144l566 191v-136zM280 2089l-566 -199v144l566 191v-136z" />
    <glyph glyph-name="dammatan_01" unicode="&#xfe72;" arabic-form="isolated" 
d="M-223 1658q5 8 15 23.5t20.5 34t18.5 37.5t8 33q0 12 -1 22t-6 17q-2 5 -10 11t-17 7q-11 0 -29.5 -8t-38 -18.5t-36 -21.5t-21.5 -16l-75 91q5 4 21 18.5t41 30t56.5 27.5t67.5 11q40 -2 73.5 -24t52.5 -55q19 -40 22 -81t-6 -83q22 7 50 16.5t56.5 20.5t55.5 22.5
t46 22.5l-7 4q-113 58 -155 126.5t-4 143.5q14 28 35.5 52.5t48 42.5t56 28t59.5 10q62 0 106.5 -38.5t61.5 -98.5q13 -47 10.5 -103t-16.5 -100l32 -17l-38 -118l-59 17q-31 -29 -72 -53t-86 -44t-89.5 -35t-82 -25.5t-64 -16.5t-34.5 -7zM167 2078q-19 0 -47.5 -14.5
t-47.5 -40.5q-9 -12 10 -35.5t59 -43.5l72 -35q5 20 8 43.5t0.5 46.5t-12.5 43.5t-31 33.5l-8 1q-2 1 -3 1z" />
    <glyph glyph-name="kasratan_01" unicode="&#xfe74;" arabic-form="isolated" 
d="M280 -717l-566 -199v144l566 191v-136zM280 -458l-566 -199v144l566 191v-136z" />
    <glyph glyph-name="fatha_01" unicode="&#xfe76;" arabic-form="isolated" 
d="M278 1841l-566 -199v144l566 191v-136z" />
    <glyph glyph-name="damma_01" unicode="&#xfe78;" arabic-form="isolated" 
d="M-310 1667q24 7 64 18t85 26t90.5 34t81.5 42l-62 27q-35 18 -63.5 45.5t-45.5 60.5t-19.5 69.5t15.5 72.5q18 34 49 63.5t69.5 47.5t79.5 21t79 -15q29 -14 50.5 -36.5t36 -49.5t21.5 -58t7 -62t-5.5 -61.5t-12.5 -55.5l34 -8l-40 -128l-57 16q-44 -36 -102 -67.5
t-114.5 -56t-103.5 -41.5t-69 -24l-30 -8zM31 2069q-23 0 -52.5 -18.5t-45.5 -46.5q-1 -12 15.5 -28t40.5 -32.5t52 -30.5t51 -22q4 14 4 40.5t-5.5 53.5t-17 50t-30.5 31q-6 3 -12 3z" />
    <glyph glyph-name="kasra_01" unicode="&#xfe7a;" arabic-form="isolated" 
d="M281 -475l-566 -199v144l566 191v-136z" />
    <glyph glyph-name="shadda_01" unicode="&#xfe7c;" arabic-form="isolated" 
d="M-139 1748q-41 1 -74.5 15t-57.5 37.5t-37.5 55.5t-13.5 71q0 26 5.5 52.5t13.5 49.5t15.5 40.5t12.5 24.5l102 -54q-11 -22 -22 -51t-12 -55.5t12 -45t49 -18.5q29 0 45.5 16t24.5 39.5t10 50t2 47.5l109 47q-7 -57 2.5 -94.5t27 -58.5t40 -27t42 0t33 22.5t13.5 39.5
q0 21 -10 46t-25 49.5t-32.5 47.5t-32.5 41l105 73q7 -10 23.5 -36t33.5 -61t30 -75t13 -77t-15 -72t-40.5 -62.5t-59 -44.5t-70.5 -17q-25 0 -57 9t-61 39q-52 -64 -136 -64h-8z" />
    <glyph glyph-name="sukun_01" unicode="&#xfe7e;" arabic-form="isolated" 
d="M1 1848q21 0 40 10.5t33.5 27t22.5 36.5t8 39t-8 38.5t-22.5 36t-33.5 27t-40 10.5t-40 -10.5t-33 -27t-22.5 -36t-8.5 -38.5t8.5 -39t22.5 -36.5t33 -27t40 -10.5zM1 2180q50 0 90.5 -19.5t69 -50.5t44 -70t15.5 -79t-16 -79t-44.5 -70.5t-69 -51t-89.5 -19.5
q-50 0 -90.5 19.5t-69 50.5t-44 70.5t-15.5 79.5t16 79.5t44.5 70.5t69 50t89.5 19z" />
    <glyph glyph-name="uni0651064C" unicode="&#xfc5e;" arabic-form="isolated" 
d="M-139 1748q-41 1 -74.5 15t-57.5 37.5t-37.5 55.5t-13.5 71q0 26 5.5 52.5t13.5 49.5t15.5 40.5t12.5 24.5l102 -54q-11 -22 -22 -51t-12 -55.5t12 -45t49 -18.5q29 0 45.5 16t24.5 39.5t10 50t2 47.5l109 47q-7 -57 2.5 -94.5t27 -58.5t40 -27t42 0t33 22.5t13.5 39.5
q0 21 -10 46t-25 49.5t-32.5 47.5t-32.5 41l105 73q7 -10 23.5 -36t33.5 -61t30 -75t13 -77t-15 -72t-40.5 -62.5t-59 -44.5t-70.5 -17q-25 0 -57 9t-61 39q-52 -64 -136 -64h-8zM-232 2240q5 8 15 23.5t20.5 34t18.5 37.5t8 33q0 12 -1 22t-6 17q-2 5 -10 11t-17 7
q-11 0 -29.5 -8t-38 -18.5t-36 -21.5t-21.5 -16l-75 91q5 4 21 18.5t41 30t56.5 27.5t67.5 11q40 -2 73.5 -24t52.5 -55q19 -40 22 -81t-6 -83q22 7 50 16.5t56.5 20.5t55.5 22.5t46 22.5l-7 4q-113 58 -155 126.5t-4 143.5q14 28 35.5 52.5t48 42.5t56 28t59.5 10
q62 0 106.5 -38.5t61.5 -98.5q13 -47 10.5 -103t-16.5 -100l32 -17l-38 -118l-59 17q-31 -29 -72 -53t-86 -44t-89.5 -35t-82 -25.5t-64 -16.5t-34.5 -7zM158 2660q-19 0 -47.5 -14.5t-47.5 -40.5q-9 -12 10 -35.5t59 -43.5l72 -35q5 20 8 43.5t0.5 46.5t-12.5 43.5
t-31 33.5l-8 1q-2 1 -3 1z" />
    <glyph glyph-name="uni0651064D" unicode="&#xfc5f;" arabic-form="isolated" 
d="M-139 1666q-41 1 -74.5 15t-57.5 37.5t-37.5 55.5t-13.5 71q0 26 5.5 52.5t13.5 49.5t15.5 40.5t12.5 24.5l102 -54q-11 -22 -22 -51t-12 -55.5t12 -45t49 -18.5q29 0 45.5 16t24.5 39.5t10 50t2 47.5l109 47q-7 -57 2.5 -94.5t27 -58.5t40 -27t42 0t33 22.5t13.5 39.5
q0 21 -10 46t-25 49.5t-32.5 47.5t-32.5 41l105 73q7 -10 23.5 -36t33.5 -61t30 -75t13 -77t-15 -72t-40.5 -62.5t-59 -44.5t-70.5 -17q-25 0 -57 9t-61 39q-52 -64 -136 -64h-8zM289 1220l-566 -199v144l566 191v-136zM289 1479l-566 -199v144l566 191v-136z" />
    <glyph glyph-name="uni0651064E" unicode="&#xfc60;" arabic-form="isolated" 
d="M-139 1748q-41 1 -74.5 15t-57.5 37.5t-37.5 55.5t-13.5 71q0 26 5.5 52.5t13.5 49.5t15.5 40.5t12.5 24.5l102 -54q-11 -22 -22 -51t-12 -55.5t12 -45t49 -18.5q29 0 45.5 16t24.5 39.5t10 50t2 47.5l109 47q-7 -57 2.5 -94.5t27 -58.5t40 -27t42 0t33 22.5t13.5 39.5
q0 21 -10 46t-25 49.5t-32.5 47.5t-32.5 41l105 73q7 -10 23.5 -36t33.5 -61t30 -75t13 -77t-15 -72t-40.5 -62.5t-59 -44.5t-70.5 -17q-25 0 -57 9t-61 39q-52 -64 -136 -64h-8zM282 2353l-566 -199v144l566 191v-136z" />
    <glyph glyph-name="uni0651064F" unicode="&#xfc61;" arabic-form="isolated" 
d="M-139 1748q-41 1 -74.5 15t-57.5 37.5t-37.5 55.5t-13.5 71q0 26 5.5 52.5t13.5 49.5t15.5 40.5t12.5 24.5l102 -54q-11 -22 -22 -51t-12 -55.5t12 -45t49 -18.5q29 0 45.5 16t24.5 39.5t10 50t2 47.5l109 47q-7 -57 2.5 -94.5t27 -58.5t40 -27t42 0t33 22.5t13.5 39.5
q0 21 -10 46t-25 49.5t-32.5 47.5t-32.5 41l105 73q7 -10 23.5 -36t33.5 -61t30 -75t13 -77t-15 -72t-40.5 -62.5t-59 -44.5t-70.5 -17q-25 0 -57 9t-61 39q-52 -64 -136 -64h-8zM-305 2290q24 7 64 18t85 26t90.5 34t81.5 42l-62 27q-35 18 -63.5 45.5t-45.5 60.5
t-19.5 69.5t15.5 72.5q18 34 49 63.5t69.5 47.5t79.5 21t79 -15q29 -14 50.5 -36.5t36 -49.5t21.5 -58t7 -62t-5.5 -61.5t-12.5 -55.5l34 -8l-40 -128l-57 16q-44 -36 -102 -67.5t-114.5 -56t-103.5 -41.5t-69 -24l-30 -8zM36 2692q-23 0 -52.5 -18.5t-45.5 -46.5
q-1 -12 15.5 -28t40.5 -32.5t52 -30.5t51 -22q4 14 4 40.5t-5.5 53.5t-17 50t-30.5 31q-6 3 -12 3z" />
    <glyph glyph-name="uni06510650" unicode="&#xfc62;" arabic-form="isolated" 
d="M-139 1748q-41 1 -74.5 15t-57.5 37.5t-37.5 55.5t-13.5 71q0 26 5.5 52.5t13.5 49.5t15.5 40.5t12.5 24.5l102 -54q-11 -22 -22 -51t-12 -55.5t12 -45t49 -18.5q29 0 45.5 16t24.5 39.5t10 50t2 47.5l109 47q-7 -57 2.5 -94.5t27 -58.5t40 -27t42 0t33 22.5t13.5 39.5
q0 21 -10 46t-25 49.5t-32.5 47.5t-32.5 41l105 73q7 -10 23.5 -36t33.5 -61t30 -75t13 -77t-15 -72t-40.5 -62.5t-59 -44.5t-70.5 -17q-25 0 -57 9t-61 39q-52 -64 -136 -64h-8zM280 1583l-566 -199v144l566 191v-136z" />
    <glyph glyph-name="uniFC63" unicode="&#xfc63;" arabic-form="isolated" 
d="M-139 1748q-41 1 -74.5 15t-57.5 37.5t-37.5 55.5t-13.5 71q0 26 5.5 52.5t13.5 49.5t15.5 40.5t12.5 24.5l102 -54q-11 -22 -22 -51t-12 -55.5t12 -45t49 -18.5q29 0 45.5 16t24.5 39.5t10 50t2 47.5l109 47q-7 -57 2.5 -94.5t27 -58.5t40 -27t42 0t33 22.5t13.5 39.5
q0 21 -10 46t-25 49.5t-32.5 47.5t-32.5 41l105 73q7 -10 23.5 -36t33.5 -61t30 -75t13 -77t-15 -72t-40.5 -62.5t-59 -44.5t-70.5 -17q-25 0 -57 9t-61 39q-52 -64 -136 -64h-8zM-85 2215q13 58 19 107.5t6 89.5q0 42 -6 102.5t-19 118.5l131 47q6 -27 11 -59t8 -65
t5 -65.5t2 -61.5q0 -54 -5.5 -117.5t-19.5 -144.5z" />
    <glyph glyph-name="uni0672.fina" unicode="&#x672;" horiz-adv-x="647" 
d="M632 -60q-125 0 -212 33.5t-142 92.5t-79.5 139.5t-24.5 174.5q0 48 2 119.5t2 165.5q0 72 -0.5 157t-3 173t-6.5 175t-11 164l299 89q6 -65 10.5 -137.5t7 -145.5t4 -144t2.5 -134q1 -75 -2.5 -157.5t-5.5 -158t1.5 -136.5t18.5 -93q9 -23 22.5 -35t31.5 -18t39.5 -7
t47.5 -1h27v-316h-28zM572 1832q-27 29 -61 50.5t-75 21.5q-23 0 -44.5 -8t-38 -21t-26.5 -30t-10 -35q0 -25 15.5 -46t39.5 -36t53.5 -22.5t57.5 -5.5q79 6 153 24l16 -117q-36 -11 -66.5 -19.5t-59.5 -14.5t-58 -9.5t-62 -3.5q-17 0 -49.5 5.5t-67.5 12t-65.5 11.5
t-43.5 4q-21 -2 -36 -6.5t-29 -13t-28.5 -21.5t-33.5 -31l-67 90q22 21 43 39.5t42.5 33t44 23.5t47.5 10q17 1 43 -6l46 -11q-17 26 -23 52t-6 58q0 43 16 82t44.5 68.5t67.5 46.5t85 17q63 0 116.5 -30t95.5 -69z" />
    <glyph glyph-name="uni0673.fina" unicode="&#x673;" horiz-adv-x="631" 
d="M616 -60q-125 0 -212 33.5t-142 92.5t-79.5 139.5t-24.5 174.5q0 48 2 119.5t2 165.5t-1 206.5t-5.5 225.5t-13 217t-23.5 181l299 91q13 -66 21.5 -155.5t13.5 -187.5t7.5 -197t3.5 -184q1 -75 -2.5 -157.5t-5.5 -158t1.5 -136.5t18.5 -93q9 -23 22.5 -35t31.5 -18
t39.5 -7t47.5 -1h27v-316h-28zM585 -330q-27 29 -61 50.5t-75 21.5q-23 0 -44.5 -8t-38 -21t-26.5 -30t-10 -35q0 -25 15.5 -46t39.5 -36t53.5 -22.5t57.5 -5.5q79 6 153 24l16 -117q-36 -11 -66.5 -19.5t-59.5 -14.5t-58 -9.5t-62 -3.5q-17 0 -49.5 5.5t-67.5 12
t-65.5 11.5t-43.5 4q-21 -2 -36 -6.5t-29 -13t-28.5 -21.5t-33.5 -31l-67 90q22 21 43 39.5t42.5 33t44 23.5t47.5 10q17 1 43 -5l46 -12q-17 26 -23 52t-6 58q0 43 16 82t44.5 68.5t67.5 46.5t85 17q63 0 116.5 -30t95.5 -69z" />
    <glyph glyph-name="uni0675.fina" unicode="&#x675;" horiz-adv-x="647" 
d="M632 -60q-125 0 -212 33.5t-142 92.5t-79.5 139.5t-24.5 174.5q0 48 2 119.5t2 165.5q0 72 -0.5 157t-3 173t-6.5 175t-11 164l299 89q6 -65 10.5 -137.5t7 -145.5t4 -144t2.5 -134q1 -75 -2.5 -157.5t-5.5 -158t1.5 -136.5t18.5 -93q9 -23 22.5 -35t31.5 -18t39.5 -7
t47.5 -1h27v-316h-28zM878 1764q-26 4 -46.5 8t-39 6.5t-36 1t-36.5 -8.5q-20 -8 -36 -21t-26.5 -31t-12.5 -39.5t7 -46.5q6 -18 21.5 -29.5t33.5 -18.5t37 -8t33 2t23.5 6t26.5 10.5t48 23.5t89 46l76 -102l-257 -150l-240 -133l-62 113l166 93q-34 20 -60.5 50t-41.5 65
q-17 42 -14.5 85t20.5 82t49 70.5t72 49.5q25 11 51 15.5t53 4.5q13 0 25.5 -1t28 -3.5t36 -7t49.5 -11.5z" />
    <glyph glyph-name="uni0676.fina" unicode="&#x676;" horiz-adv-x="1043" 
d="M28 -457q141 28 257 70.5t203.5 95t145 111.5t81.5 120q-43 0 -91 1.5t-79 3.5q-99 8 -180 37.5t-139.5 81t-90.5 125.5t-32 170q0 61 13 125t37.5 125t61 115t82.5 95t101.5 64.5t119.5 23.5q76 0 140 -27.5t117.5 -74.5t95 -110.5t72 -136t50 -150t27.5 -152.5h43v-316
h-64q-39 -147 -124.5 -266.5t-204.5 -208.5t-264.5 -147t-303.5 -82zM518 590q-21 4 -48 -14.5t-50 -50t-39 -69.5t-15 -73q1 -34 22 -56t54 -36.5t74.5 -21.5t82.5 -10t77 -3h62q-15 62 -35.5 119t-47.5 102t-61 75t-76 38zM1094 1376q-26 4 -46.5 8t-39 6.5t-36 1
t-36.5 -8.5q-20 -8 -36 -21t-26.5 -31t-12.5 -39.5t7 -46.5q6 -18 21.5 -29.5t33.5 -18.5t37 -8t33 2t23.5 6t26.5 10.5t48 23.5t89 46l76 -102l-257 -150l-240 -133l-62 113l166 93q-34 20 -60.5 50t-41.5 65q-17 42 -14.5 85t20.5 82t49 70.5t72 49.5q25 11 51 15.5
t53 4.5q13 0 25.5 -1t28 -3.5t36 -7t49.5 -11.5z" />
    <glyph glyph-name="uni0677.fina" unicode="&#x677;" horiz-adv-x="1043" 
d="M28 -457q141 28 257 70.5t203.5 95t145 111.5t81.5 120q-43 0 -91 1.5t-79 3.5q-99 8 -180 37.5t-139.5 81t-90.5 125.5t-32 170q0 61 13 125t37.5 125t61 115t82.5 95t101.5 64.5t119.5 23.5q76 0 140 -27.5t117.5 -74.5t95 -110.5t72 -136t50 -150t27.5 -152.5h43v-316
h-64q-39 -147 -124.5 -266.5t-204.5 -208.5t-264.5 -147t-303.5 -82zM518 590q-21 4 -48 -14.5t-50 -50t-39 -69.5t-15 -73q1 -34 22 -56t54 -36.5t74.5 -21.5t82.5 -10t77 -3h62q-15 62 -35.5 119t-47.5 102t-61 75t-76 38zM1104 1400q-26 4 -46.5 8t-39 6.5t-36 1
t-36.5 -8.5q-20 -8 -36 -21t-26.5 -31t-12.5 -39.5t7 -46.5q6 -18 21.5 -29.5t33.5 -18.5t37 -8t33 2t23.5 6t26.5 10.5t48 23.5t89 46l76 -102l-257 -150l-240 -133l-62 113l166 93q-34 20 -60.5 50t-41.5 65q-17 42 -14.5 85t20.5 82t49 70.5t72 49.5q25 11 51 15.5
t53 4.5q13 0 25.5 -1t28 -3.5t36 -7t49.5 -11.5zM-21 1038q24 7 64 18t85 26t90.5 34t81.5 42l-62 27q-35 18 -63.5 45.5t-45.5 60.5t-19.5 69.5t15.5 72.5q18 34 49 63.5t69.5 47.5t79.5 21t79 -15q29 -14 50.5 -36.5t36 -49.5t21.5 -58t7 -62t-5.5 -61.5t-12.5 -55.5
l34 -8l-40 -128l-57 16q-44 -36 -102 -67.5t-114.5 -56t-103.5 -41.5t-69 -24l-30 -8zM320 1440q-23 0 -52.5 -18.5t-45.5 -46.5q-1 -12 15.5 -28t40.5 -32.5t52 -30.5t51 -22q4 14 4 40.5t-5.5 53.5t-17 50t-30.5 31q-6 3 -12 3z" />
    <glyph glyph-name="uni0678.fina" unicode="&#x678;" horiz-adv-x="1715" 
d="M830 -712q-108 0 -209 15.5t-189 48.5t-160.5 85t-124.5 125.5t-80.5 170t-28.5 218.5q0 88 7.5 167.5t23.5 157.5t41.5 158t61.5 170l257 -107q-29 -72 -49.5 -130t-34.5 -105.5t-22 -87.5t-12 -76.5t-5 -72t-1 -74.5q0 -75 24 -130t65 -93t94.5 -62.5t111.5 -37.5
t117.5 -18t112.5 -5q26 0 77 3.5t111.5 12t124 22.5t115.5 34.5t85 48t33 64.5q-72 54 -197 97t-306 65l41 304h821v-316h-130q21 -40 30.5 -80.5t10.5 -69.5q-5 -94 -47.5 -167.5t-109.5 -129.5t-152 -95t-174 -63.5t-175.5 -35.5t-157.5 -11zM775 1159q-26 4 -46.5 8
t-39 6.5t-36 1t-36.5 -8.5q-20 -8 -36 -21t-26.5 -31t-12.5 -39.5t7 -46.5q6 -18 21.5 -29.5t33.5 -18.5t37 -8t33 2t23.5 6t26.5 10.5t48 23.5t89 46l76 -102l-257 -150l-240 -133l-62 113l166 93q-34 20 -60.5 50t-41.5 65q-17 42 -14.5 85t20.5 82t49 70.5t72 49.5
q25 11 51 15.5t53 4.5q13 0 25.5 -1t28 -3.5t36 -7t49.5 -11.5z" />
    <glyph glyph-name="uni067A.init" unicode="&#x67a;" horiz-adv-x="723" arabic-form="initial" 
d="M-20 256h135q42 0 92.5 7t94 22.5t73 42t29.5 65.5q0 24 -14 71.5t-37 106t-52 122.5t-58 122l286 142q28 -63 55.5 -134t49.5 -144t35.5 -145.5t13.5 -138.5q0 -120 -40 -206t-112 -141.5t-172 -81.5t-220 -26h-159v316zM298 1476l-170 170l171 172l171 -170zM297 1098
l-171 170l172 172l170 -170z" />
    <glyph glyph-name="uni067A.medi" unicode="&#x67a;" horiz-adv-x="852" arabic-form="medial" 
d="M872 256v-316h-23q-48 0 -94.5 8t-87.5 22.5t-75.5 34.5t-59.5 43q-47 -36 -107.5 -57t-128 -32.5t-139 -15t-140.5 -3.5h-37v316h37q72 0 128.5 4t99 14t71.5 26.5t47 41.5q23 32 28.5 71t1 80.5t-15.5 83t-20 79.5l291 83q12 -45 20.5 -82t15 -72t11.5 -71t11 -78
q4 -27 10.5 -58.5t21.5 -58.5t41.5 -45t69.5 -18h23zM441 1290l-170 170l171 172l171 -170zM440 912l-171 170l172 172l170 -170z" />
    <glyph glyph-name="uni067A.fina" unicode="&#x67a;" horiz-adv-x="2316" arabic-form="final" 
d="M2300 -60q-83 0 -151 13t-124.5 41t-101.5 72.5t-81 107.5q-142 -121 -343.5 -179t-470.5 -58q-350 0 -578 77.5t-326 241.5q-32 53 -46 122t-8.5 151t32 173.5t76.5 189.5l238 -138q-20 -39 -38 -84.5t-27.5 -91t-9 -88t18.5 -75.5q30 -56 95.5 -88t155 -48t196.5 -19.5
t221 -3.5q105 0 199 7.5t173.5 24t144 43t110.5 64.5q42 34 69 75t46 86.5t31.5 95.5t24.5 101l280 -71l-41 -212q-9 -46 2 -85t41 -67.5t78.5 -45t113.5 -16.5h36v-316h-36v0zM1103 1082l-170 170l171 172l171 -170zM1102 704l-171 170l172 172l170 -170z" />
    <glyph glyph-name="uni067B.init" unicode="&#x67b;" horiz-adv-x="723" arabic-form="initial" 
d="M-20 256h135q42 0 92.5 7t94 22.5t73 42t29.5 65.5q0 24 -14 71.5t-37 106t-52 122.5t-58 122l286 142q28 -63 55.5 -134t49.5 -144t35.5 -145.5t13.5 -138.5q0 -120 -40 -206t-112 -141.5t-172 -81.5t-220 -26h-159v316zM340 -475l-170 170l171 172l171 -170zM339 -853
l-171 170l172 172l170 -170z" />
    <glyph glyph-name="uni067B.medi" unicode="&#x67b;" horiz-adv-x="705" arabic-form="medial" 
d="M725 256v-316h-22q-97 0 -164 27t-117 74q-72 -53 -169.5 -77t-235.5 -24h-37v316h37q138 0 208 45t70 135q0 30 -8 84.5t-33 143.5l283 69q16 -55 26.5 -97.5t16.5 -77.5t9 -64.5t5 -57.5t6 -59.5t15.5 -58.5t32 -44.5t55.5 -17.5h22zM340 -475l-170 170l171 172
l171 -170zM339 -853l-171 170l172 172l170 -170z" />
    <glyph glyph-name="uni067B.fina" unicode="&#x67b;" horiz-adv-x="2316" arabic-form="final" 
d="M2300 -60q-83 0 -151 13t-124.5 41t-101.5 72.5t-81 107.5q-142 -121 -343.5 -179t-470.5 -58q-350 0 -578 77.5t-326 241.5q-32 53 -46 122t-8.5 151t32 173.5t76.5 189.5l238 -138q-20 -39 -38 -84.5t-27.5 -91t-9 -88t18.5 -75.5q30 -56 95.5 -88t155 -48t196.5 -19.5
t221 -3.5q105 0 199 7.5t173.5 24t144 43t110.5 64.5q42 34 69 75t46 86.5t31.5 95.5t24.5 101l280 -71l-41 -212q-9 -46 2 -85t41 -67.5t78.5 -45t113.5 -16.5h36v-316h-36v0zM1101 -475l-170 170l171 172l171 -170zM1100 -853l-171 170l172 172l170 -170z" />
    <glyph glyph-name="uni067C.init" unicode="&#x67c;" horiz-adv-x="845" 
d="M-20 256h240q43 0 95 4.5t97.5 18.5t76 41.5t30.5 72.5q0 24 -14.5 71.5t-38 106t-53 122.5t-58.5 122l286 142q28 -63 55.5 -134t49.5 -144t35.5 -145.5t13.5 -138.5q0 -124 -45.5 -210.5t-123.5 -141t-183 -79t-225 -24.5h-238v316zM434 1281l-188 -188l-194 193
l192 193l190 -190l188 188l194 -193l-192 -193zM308 -238q21 0 40 10.5t33.5 27t22.5 36.5t8 39t-8 38.5t-22.5 36t-33.5 27t-40 10.5t-40 -10.5t-33 -27t-22.5 -36t-8.5 -38.5t8.5 -39t22.5 -36.5t33 -27t40 -10.5zM308 94q50 0 90.5 -19.5t69 -50.5t44 -70t15.5 -79
t-16 -79t-44.5 -70.5t-69 -51t-89.5 -19.5q-50 0 -90.5 19.5t-69 50.5t-44 70.5t-15.5 79.5t16 79.5t44.5 70.5t69 50t89.5 19z" />
    <glyph glyph-name="uni067C.medi" unicode="&#x67c;" horiz-adv-x="852" 
d="M872 256v-316h-23q-48 0 -94.5 8t-87.5 22.5t-75.5 34.5t-59.5 43q-47 -36 -107.5 -57t-128 -32.5t-139 -15t-140.5 -3.5h-37v316h37q72 0 128.5 4t99 14t71.5 26.5t47 41.5q23 32 28.5 71t1 80.5t-15.5 83t-20 79.5l291 83q12 -45 20.5 -82t15 -72t11.5 -71t11 -78
q4 -27 10.5 -58.5t21.5 -58.5t41.5 -45t69.5 -18h23zM394 1085l-188 -188l-194 193l192 193l190 -190l188 188l194 -193l-192 -193zM362 -248q21 0 40 10.5t33.5 27t22.5 36.5t8 39t-8 38.5t-22.5 36t-33.5 27t-40 10.5t-40 -10.5t-33 -27t-22.5 -36t-8.5 -38.5t8.5 -39
t22.5 -36.5t33 -27t40 -10.5zM362 84q50 0 90.5 -19.5t69 -50.5t44 -70t15.5 -79t-16 -79t-44.5 -70.5t-69 -51t-89.5 -19.5q-50 0 -90.5 19.5t-69 50.5t-44 70.5t-15.5 79.5t16 79.5t44.5 70.5t69 50t89.5 19z" />
    <glyph glyph-name="uni067C.fina" unicode="&#x67c;" horiz-adv-x="2316" 
d="M2300 -60q-83 0 -151 13t-124.5 41t-101.5 72.5t-81 107.5q-142 -121 -343.5 -179t-470.5 -58q-350 0 -578 77.5t-326 241.5q-32 53 -46 122t-8.5 151t32 173.5t76.5 189.5l238 -138q-20 -39 -38 -84.5t-27.5 -91t-9 -88t18.5 -75.5q30 -56 95.5 -88t155 -48t196.5 -19.5
t221 -3.5q105 0 199 7.5t173.5 24t144 43t110.5 64.5q42 34 69 75t46 86.5t31.5 95.5t24.5 101l280 -71l-41 -212q-9 -46 2 -85t41 -67.5t78.5 -45t113.5 -16.5h36v-316h-36v0zM1073 -246q21 0 40 10.5t33.5 27t22.5 36.5t8 39t-8 38.5t-22.5 36t-33.5 27t-40 10.5
t-40 -10.5t-33 -27t-22.5 -36t-8.5 -38.5t8.5 -39t22.5 -36.5t33 -27t40 -10.5zM1073 86q50 0 90.5 -19.5t69 -50.5t44 -70t15.5 -79t-16 -79t-44.5 -70.5t-69 -51t-89.5 -19.5q-50 0 -90.5 19.5t-69 50.5t-44 70.5t-15.5 79.5t16 79.5t44.5 70.5t69 50t89.5 19zM1104 897
l-188 -188l-194 193l192 193l190 -190l188 188l194 -193l-192 -193z" />
    <glyph glyph-name="uni067D.init" unicode="&#x67d;" horiz-adv-x="835" 
d="M-20 256h240q43 0 95 4.5t97.5 18.5t76 41.5t30.5 72.5q0 24 -14.5 71.5t-38 106t-53 122.5t-58.5 122l286 142q28 -63 55.5 -134t49.5 -144t35.5 -145.5t13.5 -138.5q0 -124 -45.5 -210.5t-123.5 -141t-183 -79t-225 -24.5h-238v316zM358 1449l-162 -162l-164 164
l162 162zM712 1448l-162 -163l-164 164l162 163zM538 1173l-162 -162l-164 164l162 162z" />
    <glyph glyph-name="uni067D.medi" unicode="&#x67d;" horiz-adv-x="850" 
d="M872 256v-316h-23q-48 0 -94.5 8t-87.5 22.5t-75.5 34.5t-59.5 43q-47 -36 -107.5 -57t-128 -32.5t-139 -15t-140.5 -3.5h-37v316h37q72 0 128.5 4t99 14t71.5 26.5t47 41.5q23 32 28.5 71t1 80.5t-15.5 83t-20 79.5l291 83q12 -45 20.5 -82t15 -72t11.5 -71t11 -78
q4 -27 10.5 -58.5t21.5 -58.5t41.5 -45t69.5 -18h23zM350 1283l-162 -162l-164 164l162 162zM704 1282l-162 -163l-164 164l162 163zM530 1007l-162 -162l-164 164l162 162z" />
    <glyph glyph-name="uni067D.fina" unicode="&#x67d;" horiz-adv-x="2316" 
d="M2300 -60q-83 0 -151 13t-124.5 41t-101.5 72.5t-81 107.5q-142 -121 -343.5 -179t-470.5 -58q-350 0 -578 77.5t-326 241.5q-32 53 -46 122t-8.5 151t32 173.5t76.5 189.5l238 -138q-20 -39 -38 -84.5t-27.5 -91t-9 -88t18.5 -75.5q30 -56 95.5 -88t155 -48t196.5 -19.5
t221 -3.5q105 0 199 7.5t173.5 24t144 43t110.5 64.5q42 34 69 75t46 86.5t31.5 95.5t24.5 101l280 -71l-41 -212q-9 -46 2 -85t41 -67.5t78.5 -45t113.5 -16.5h36v-316h-36v0zM1089 981l-162 -162l-164 164l162 162zM1443 980l-162 -163l-164 164l162 163zM1269 705
l-162 -162l-164 164l162 162z" />
    <glyph glyph-name="uni067F.init" unicode="&#x67f;" horiz-adv-x="825" arabic-form="initial" 
d="M-20 256h240q43 0 95 4.5t97.5 18.5t76 41.5t30.5 72.5q0 24 -14.5 71.5t-38 106t-53 122.5t-58.5 122l286 142q28 -63 55.5 -134t49.5 -144t35.5 -145.5t13.5 -138.5q0 -124 -45.5 -210.5t-123.5 -141t-183 -79t-225 -24.5h-238v316zM708 1217l-162 -163l-164 164
l162 162zM348 1220l-162 -162l-164 163l162 163zM705 1618l-162 -163l-164 164l162 162zM345 1621l-162 -162l-164 163l162 163z" />
    <glyph glyph-name="uni067F.medi" unicode="&#x67f;" horiz-adv-x="855" arabic-form="medial" 
d="M872 256v-316h-23q-48 0 -94.5 8t-87.5 22.5t-75.5 34.5t-59.5 43q-47 -36 -107.5 -57t-128 -32.5t-139 -15t-140.5 -3.5h-37v316h37q72 0 128.5 4t99 14t71.5 26.5t47 41.5q23 32 28.5 71t1 80.5t-15.5 83t-20 79.5l291 83q12 -45 20.5 -82t15 -72t11.5 -71t11 -78
q4 -27 10.5 -58.5t21.5 -58.5t41.5 -45t69.5 -18h23zM687 1056l-162 -163l-164 164l162 162zM327 1059l-162 -162l-164 163l162 163zM684 1457l-162 -163l-164 164l162 162zM324 1460l-162 -162l-164 163l162 163z" />
    <glyph glyph-name="uni067F.fina" unicode="&#x67f;" horiz-adv-x="2319" arabic-form="final" 
d="M2300 -60q-83 0 -151 13t-124.5 41t-101.5 72.5t-81 107.5q-142 -121 -343.5 -179t-470.5 -58q-350 0 -578 77.5t-326 241.5q-32 53 -46 122t-8.5 151t32 173.5t76.5 189.5l238 -138q-20 -39 -38 -84.5t-27.5 -91t-9 -88t18.5 -75.5q30 -56 95.5 -88t155 -48t196.5 -19.5
t221 -3.5q105 0 199 7.5t173.5 24t144 43t110.5 64.5q42 34 69 75t46 86.5t31.5 95.5t24.5 101l280 -71l-41 -212q-9 -46 2 -85t41 -67.5t78.5 -45t113.5 -16.5h36v-316h-36v0zM1429 815l-162 -163l-164 164l162 162zM1069 818l-162 -162l-164 163l162 163zM1426 1216
l-162 -163l-164 164l162 162zM1066 1219l-162 -162l-164 163l162 163z" />
    <glyph glyph-name="uni0680.init" unicode="&#x680;" horiz-adv-x="830" arabic-form="initial" 
d="M-20 256h240q43 0 95 4.5t97.5 18.5t76 41.5t30.5 72.5q0 24 -14.5 71.5t-38 106t-53 122.5t-58.5 122l286 142q28 -63 55.5 -134t49.5 -144t35.5 -145.5t13.5 -138.5q0 -124 -45.5 -210.5t-123.5 -141t-183 -79t-225 -24.5h-238v316zM718 -725l-162 -163l-164 164
l162 162zM358 -724l-162 -162l-164 163l162 163zM715 -324l-162 -163l-164 164l162 162zM355 -323l-162 -162l-164 163l162 163z" />
    <glyph glyph-name="uni0680.medi" unicode="&#x680;" horiz-adv-x="855" arabic-form="medial" 
d="M872 256v-316h-23q-48 0 -94.5 8t-87.5 22.5t-75.5 34.5t-59.5 43q-47 -36 -107.5 -57t-128 -32.5t-139 -15t-140.5 -3.5h-37v316h37q72 0 128.5 4t99 14t71.5 26.5t47 41.5q23 32 28.5 71t1 80.5t-15.5 83t-20 79.5l291 83q12 -45 20.5 -82t15 -72t11.5 -71t11 -78
q4 -27 10.5 -58.5t21.5 -58.5t41.5 -45t69.5 -18h23zM746 -730l-162 -163l-164 164l162 162zM386 -729l-162 -162l-164 163l162 163zM743 -329l-162 -163l-164 164l162 162zM383 -328l-162 -162l-164 163l162 163z" />
    <glyph glyph-name="uni0680.fina" unicode="&#x680;" horiz-adv-x="2319" arabic-form="final" 
d="M2300 -60q-83 0 -151 13t-124.5 41t-101.5 72.5t-81 107.5q-142 -121 -343.5 -179t-470.5 -58q-350 0 -578 77.5t-326 241.5q-32 53 -46 122t-8.5 151t32 173.5t76.5 189.5l238 -138q-20 -39 -38 -84.5t-27.5 -91t-9 -88t18.5 -75.5q30 -56 95.5 -88t155 -48t196.5 -19.5
t221 -3.5q105 0 199 7.5t173.5 24t144 43t110.5 64.5q42 34 69 75t46 86.5t31.5 95.5t24.5 101l280 -71l-41 -212q-9 -46 2 -85t41 -67.5t78.5 -45t113.5 -16.5h36v-316h-36v0zM1454 -725l-162 -163l-164 164l162 162zM1094 -724l-162 -162l-164 163l162 163zM1451 -324
l-162 -163l-164 164l162 162zM1091 -323l-162 -162l-164 163l162 163z" />
    <glyph glyph-name="uni0681.init" unicode="&#x681;" horiz-adv-x="1574" 
d="M-20 256h211q162 0 297.5 19.5t253.5 52.5t223.5 76.5t207.5 90.5q-68 19 -136.5 47t-137 54t-136.5 44.5t-135 18.5q-46 0 -90.5 -25t-80.5 -57t-60 -62.5t-30 -41.5l-231 149q38 67 90 131t114.5 113.5t135 79.5t152.5 30q59 0 118 -12.5t117.5 -32.5t115.5 -45.5
t113 -51.5q53 -25 107 -49.5t111 -45t118 -33.5t129 -14l-25 -307l-142 -68q-87 -42 -173 -86.5t-175 -86t-184 -79t-199 -65t-220 -44t-248 -16.5h-211v316zM527 1424q-26 4 -46.5 8t-39 6.5t-36 1t-36.5 -8.5q-20 -8 -36 -21t-26.5 -31t-12.5 -39.5t7 -46.5
q6 -18 21.5 -29.5t33.5 -18.5t37 -8t33 2t23.5 6t26.5 10.5t48 23.5t89 46l76 -102l-257 -150l-240 -133l-62 113l166 93q-34 20 -60.5 50t-41.5 65q-17 42 -14.5 85t20.5 82t49 70.5t72 49.5q25 11 51 15.5t53 4.5q13 0 25.5 -1t28 -3.5t36 -7t49.5 -11.5z" />
    <glyph glyph-name="uni0681.medi" unicode="&#x681;" horiz-adv-x="1665" 
d="M-20 256h203q73 0 154.5 10t166.5 27t171 40.5t167.5 50.5t156 57t137.5 60q-62 15 -138 42t-154 53t-151.5 44.5t-131.5 17.5q-37 -1 -71.5 -15.5t-64 -36t-53 -46t-40.5 -46t-27 -36.5l-9 -14l-237 136q40 74 96 142.5t122 121t138.5 83.5t145.5 30q54 -1 107.5 -13
t107.5 -30.5t109 -43t111 -50.5q57 -28 126.5 -55t145 -48t154 -34t153.5 -13l-52 -295q-23 -10 -51.5 -23.5t-50.5 -24.5l-26 -13q23 -27 58.5 -43t73 -23.5t71.5 -9.5t55 -2h34v-316h-34q-96 0 -180.5 17t-154 49.5t-123.5 79t-89 105.5q-99 -48 -206 -93t-222 -80.5
t-238.5 -56.5t-256.5 -21h-203v316zM501 1444q-26 4 -46.5 8t-39 6.5t-36 1t-36.5 -8.5q-20 -8 -36 -21t-26.5 -31t-12.5 -39.5t7 -46.5q6 -18 21.5 -29.5t33.5 -18.5t37 -8t33 2t23.5 6t26.5 10.5t48 23.5t89 46l76 -102l-257 -150l-240 -133l-62 113l166 93
q-34 20 -60.5 50t-41.5 65q-17 42 -14.5 85t20.5 82t49 70.5t72 49.5q25 11 51 15.5t53 4.5q13 0 25.5 -1t28 -3.5t36 -7t49.5 -11.5z" />
    <glyph glyph-name="uni0681.fina" unicode="&#x681;" horiz-adv-x="1700" 
d="M1569 -595q-80 -57 -165 -103.5t-175.5 -79.5t-187 -51t-198.5 -18q-167 0 -312 46t-252.5 134t-169.5 215.5t-62 291.5v24q0 12 1 24q9 104 60 196t132.5 170.5t188 142t227 110t249 75.5t253.5 38q-53 29 -120.5 62.5t-139 62.5t-140 48.5t-123.5 19.5
q-36 0 -78.5 -14.5t-83 -39.5t-75 -59t-55.5 -73l-225 153q44 77 99 141.5t119.5 111t139.5 72t159 25.5q63 0 127 -15.5t126.5 -41t122 -58.5t114.5 -69q82 -53 149.5 -92.5t128 -68t119.5 -48t124 -32.5l-93 -315l-170 -23q13 -36 49.5 -58t82.5 -34t95.5 -15.5t89.5 -3.5
h22v-316h-22q-122 0 -214 20.5t-159.5 54t-113 75.5t-74 85t-43 83t-19.5 69q-84 -16 -172 -40t-171.5 -56.5t-157 -72t-129.5 -86.5t-89 -101t-35 -114q-3 -101 45.5 -173t128.5 -118t181 -67.5t203 -21.5q67 0 138 11t141 31.5t137.5 50.5t127.5 68l144 -233v0zM572 1560
q-26 4 -46.5 8t-39 6.5t-36 1t-36.5 -8.5q-20 -8 -36 -21t-26.5 -31t-12.5 -39.5t7 -46.5q6 -18 21.5 -29.5t33.5 -18.5t37 -8t33 2t23.5 6t26.5 10.5t48 23.5t89 46l76 -102l-257 -150l-240 -133l-62 113l166 93q-34 20 -60.5 50t-41.5 65q-17 42 -14.5 85t20.5 82t49 70.5
t72 49.5q25 11 51 15.5t53 4.5q13 0 25.5 -1t28 -3.5t36 -7t49.5 -11.5z" />
    <glyph glyph-name="uni0682.init" unicode="&#x682;" horiz-adv-x="1584" 
d="M-20 256h211q162 0 297.5 19.5t253.5 52.5t223.5 76.5t207.5 90.5q-68 19 -136.5 47t-137 54t-136.5 44.5t-135 18.5q-46 0 -90.5 -25t-80.5 -57t-60 -62.5t-30 -41.5l-231 149q38 67 90 131t114.5 113.5t135 79.5t152.5 30q59 0 118 -12.5t117.5 -32.5t115.5 -45.5
t113 -51.5q53 -25 107 -49.5t111 -45t118 -33.5t129 -14l-25 -307l-142 -68q-87 -42 -173 -86.5t-175 -86t-184 -79t-199 -65t-220 -44t-248 -16.5h-211v316zM441 1520l-170 170l171 172l171 -170zM440 1142l-171 170l172 172l170 -170z" />
    <glyph glyph-name="uni0682.medi" unicode="&#x682;" horiz-adv-x="1670" 
d="M-20 256h203q73 0 154.5 10t166.5 27t171 40.5t167.5 50.5t156 57t137.5 60q-62 15 -138 42t-154 53t-151.5 44.5t-131.5 17.5q-37 -1 -71.5 -15.5t-64 -36t-53 -46t-40.5 -46t-27 -36.5l-9 -14l-237 136q40 74 96 142.5t122 121t138.5 83.5t145.5 30q54 -1 107.5 -13
t107.5 -30.5t109 -43t111 -50.5q57 -28 126.5 -55t145 -48t154 -34t153.5 -13l-52 -295q-23 -10 -51.5 -23.5t-50.5 -24.5l-26 -13q23 -27 58.5 -43t73 -23.5t71.5 -9.5t55 -2h34v-316h-34q-96 0 -180.5 17t-154 49.5t-123.5 79t-89 105.5q-99 -48 -206 -93t-222 -80.5
t-238.5 -56.5t-256.5 -21h-203v316zM441 1520l-170 170l171 172l171 -170zM440 1142l-171 170l172 172l170 -170z" />
    <glyph glyph-name="uni0682.fina" unicode="&#x682;" horiz-adv-x="1705" 
d="M1569 -595q-80 -57 -165 -103.5t-175.5 -79.5t-187 -51t-198.5 -18q-167 0 -312 46t-252.5 134t-169.5 215.5t-62 291.5v24q0 12 1 24q9 104 60 196t132.5 170.5t188 142t227 110t249 75.5t253.5 38q-53 29 -120.5 62.5t-139 62.5t-140 48.5t-123.5 19.5
q-36 0 -78.5 -14.5t-83 -39.5t-75 -59t-55.5 -73l-225 153q44 77 99 141.5t119.5 111t139.5 72t159 25.5q63 0 127 -15.5t126.5 -41t122 -58.5t114.5 -69q82 -53 149.5 -92.5t128 -68t119.5 -48t124 -32.5l-93 -315l-170 -23q13 -36 49.5 -58t82.5 -34t95.5 -15.5t89.5 -3.5
h22v-316h-22q-122 0 -214 20.5t-159.5 54t-113 75.5t-74 85t-43 83t-19.5 69q-84 -16 -172 -40t-171.5 -56.5t-157 -72t-129.5 -86.5t-89 -101t-35 -114q-3 -101 45.5 -173t128.5 -118t181 -67.5t203 -21.5q67 0 138 11t141 31.5t137.5 50.5t127.5 68l144 -233v0zM441 1603
l-170 170l171 172l171 -170zM440 1225l-171 170l172 172l170 -170z" />
    <glyph glyph-name="uni0683.init" unicode="&#x683;" horiz-adv-x="1574" arabic-form="initial" 
d="M-20 256h211q162 0 297.5 19.5t253.5 52.5t223.5 76.5t207.5 90.5q-68 19 -136.5 47t-137 54t-136.5 44.5t-135 18.5q-46 0 -90.5 -25t-80.5 -57t-60 -62.5t-30 -41.5l-231 149q38 67 90 131t114.5 113.5t135 79.5t152.5 30q59 0 118 -12.5t117.5 -32.5t115.5 -45.5
t113 -51.5q53 -25 107 -49.5t111 -45t118 -33.5t129 -14l-25 -307l-142 -68q-87 -42 -173 -86.5t-175 -86t-184 -79t-199 -65t-220 -44t-248 -16.5h-211v316zM786 -362l-188 -188l-194 193l192 193l190 -190l188 188l194 -193l-192 -193z" />
    <glyph glyph-name="uni0683.medi" unicode="&#x683;" horiz-adv-x="1670" arabic-form="medial" 
d="M-20 256h203q73 0 154.5 10t166.5 27t171 40.5t167.5 50.5t156 57t137.5 60q-62 15 -138 42t-154 53t-151.5 44.5t-131.5 17.5q-37 -1 -71.5 -15.5t-64 -36t-53 -46t-40.5 -46t-27 -36.5l-9 -14l-237 136q40 74 96 142.5t122 121t138.5 83.5t145.5 30q54 -1 107.5 -13
t107.5 -30.5t109 -43t111 -50.5q57 -28 126.5 -55t145 -48t154 -34t153.5 -13l-52 -295q-23 -10 -51.5 -23.5t-50.5 -24.5l-26 -13q23 -27 58.5 -43t73 -23.5t71.5 -9.5t55 -2h34v-316h-34q-96 0 -180.5 17t-154 49.5t-123.5 79t-89 105.5q-99 -48 -206 -93t-222 -80.5
t-238.5 -56.5t-256.5 -21h-203v316zM671 -367l-188 -188l-194 193l192 193l190 -190l188 188l194 -193l-192 -193z" />
    <glyph glyph-name="uni0683.fina" unicode="&#x683;" horiz-adv-x="1700" arabic-form="final" 
d="M1569 -595q-80 -57 -165 -103.5t-175.5 -79.5t-187 -51t-198.5 -18q-167 0 -312 46t-252.5 134t-169.5 215.5t-62 291.5v24q0 12 1 24q9 104 60 196t132.5 170.5t188 142t227 110t249 75.5t253.5 38q-53 29 -120.5 62.5t-139 62.5t-140 48.5t-123.5 19.5
q-36 0 -78.5 -14.5t-83 -39.5t-75 -59t-55.5 -73l-225 153q44 77 99 141.5t119.5 111t139.5 72t159 25.5q63 0 127 -15.5t126.5 -41t122 -58.5t114.5 -69q82 -53 149.5 -92.5t128 -68t119.5 -48t124 -32.5l-93 -315l-170 -23q13 -36 49.5 -58t82.5 -34t95.5 -15.5t89.5 -3.5
h22v-316h-22q-122 0 -214 20.5t-159.5 54t-113 75.5t-74 85t-43 83t-19.5 69q-84 -16 -172 -40t-171.5 -56.5t-157 -72t-129.5 -86.5t-89 -101t-35 -114q-3 -101 45.5 -173t128.5 -118t181 -67.5t203 -21.5q67 0 138 11t141 31.5t137.5 50.5t127.5 68l144 -233v0zM908 -157
l-188 -188l-194 193l192 193l190 -190l188 188l194 -193l-192 -193z" />
    <glyph glyph-name="uni0684.init" unicode="&#x684;" horiz-adv-x="1579" arabic-form="initial" 
d="M-20 256h211q162 0 297.5 19.5t253.5 52.5t223.5 76.5t207.5 90.5q-68 19 -136.5 47t-137 54t-136.5 44.5t-135 18.5q-46 0 -90.5 -25t-80.5 -57t-60 -62.5t-30 -41.5l-231 149q38 67 90 131t114.5 113.5t135 79.5t152.5 30q59 0 118 -12.5t117.5 -32.5t115.5 -45.5
t113 -51.5q53 -25 107 -49.5t111 -45t118 -33.5t129 -14l-25 -307l-142 -68q-87 -42 -173 -86.5t-175 -86t-184 -79t-199 -65t-220 -44t-248 -16.5h-211v316zM760 -479l-170 170l171 172l171 -170zM759 -857l-171 170l172 172l170 -170z" />
    <glyph glyph-name="uni0684.medi" unicode="&#x684;" horiz-adv-x="1670" arabic-form="medial" 
d="M-20 256h203q73 0 154.5 10t166.5 27t171 40.5t167.5 50.5t156 57t137.5 60q-62 15 -138 42t-154 53t-151.5 44.5t-131.5 17.5q-37 -1 -71.5 -15.5t-64 -36t-53 -46t-40.5 -46t-27 -36.5l-9 -14l-237 136q40 74 96 142.5t122 121t138.5 83.5t145.5 30q54 -1 107.5 -13
t107.5 -30.5t109 -43t111 -50.5q57 -28 126.5 -55t145 -48t154 -34t153.5 -13l-52 -295q-23 -10 -51.5 -23.5t-50.5 -24.5l-26 -13q23 -27 58.5 -43t73 -23.5t71.5 -9.5t55 -2h34v-316h-34q-96 0 -180.5 17t-154 49.5t-123.5 79t-89 105.5q-99 -48 -206 -93t-222 -80.5
t-238.5 -56.5t-256.5 -21h-203v316zM751 -465l-170 170l171 172l171 -170zM750 -843l-171 170l172 172l170 -170z" />
    <glyph glyph-name="uni0684.fina" unicode="&#x684;" horiz-adv-x="1705" arabic-form="final" 
d="M1569 -595q-80 -57 -165 -103.5t-175.5 -79.5t-187 -51t-198.5 -18q-167 0 -312 46t-252.5 134t-169.5 215.5t-62 291.5v24q0 12 1 24q9 104 60 196t132.5 170.5t188 142t227 110t249 75.5t253.5 38q-53 29 -120.5 62.5t-139 62.5t-140 48.5t-123.5 19.5
q-36 0 -78.5 -14.5t-83 -39.5t-75 -59t-55.5 -73l-225 153q44 77 99 141.5t119.5 111t139.5 72t159 25.5q63 0 127 -15.5t126.5 -41t122 -58.5t114.5 -69q82 -53 149.5 -92.5t128 -68t119.5 -48t124 -32.5l-93 -315l-170 -23q13 -36 49.5 -58t82.5 -34t95.5 -15.5t89.5 -3.5
h22v-316h-22q-122 0 -214 20.5t-159.5 54t-113 75.5t-74 85t-43 83t-19.5 69q-84 -16 -172 -40t-171.5 -56.5t-157 -72t-129.5 -86.5t-89 -101t-35 -114q-3 -101 45.5 -173t128.5 -118t181 -67.5t203 -21.5q67 0 138 11t141 31.5t137.5 50.5t127.5 68l144 -233v0zM914 -129
l-170 170l171 172l171 -170zM913 -507l-171 170l172 172l170 -170z" />
    <glyph glyph-name="uni0685.init" unicode="&#x685;" horiz-adv-x="1579" 
d="M-20 256h211q162 0 297.5 19.5t253.5 52.5t223.5 76.5t207.5 90.5q-68 19 -136.5 47t-137 54t-136.5 44.5t-135 18.5q-46 0 -90.5 -25t-80.5 -57t-60 -62.5t-30 -41.5l-231 149q38 67 90 131t114.5 113.5t135 79.5t152.5 30q59 0 118 -12.5t117.5 -32.5t115.5 -45.5
t113 -51.5q53 -25 107 -49.5t111 -45t118 -33.5t129 -14l-25 -307l-142 -68q-87 -42 -173 -86.5t-175 -86t-184 -79t-199 -65t-220 -44t-248 -16.5h-211v316zM630 1284l-188 -188l-194 193l192 193l190 -190l188 188l194 -193l-192 -193zM809 1576l-178 -178l-179 179
l178 178z" />
    <glyph glyph-name="uni0685.medi" unicode="&#x685;" horiz-adv-x="1670" 
d="M-20 256h203q73 0 154.5 10t166.5 27t171 40.5t167.5 50.5t156 57t137.5 60q-62 15 -138 42t-154 53t-151.5 44.5t-131.5 17.5q-37 -1 -71.5 -15.5t-64 -36t-53 -46t-40.5 -46t-27 -36.5l-9 -14l-237 136q40 74 96 142.5t122 121t138.5 83.5t145.5 30q54 -1 107.5 -13
t107.5 -30.5t109 -43t111 -50.5q57 -28 126.5 -55t145 -48t154 -34t153.5 -13l-52 -295q-23 -10 -51.5 -23.5t-50.5 -24.5l-26 -13q23 -27 58.5 -43t73 -23.5t71.5 -9.5t55 -2h34v-316h-34q-96 0 -180.5 17t-154 49.5t-123.5 79t-89 105.5q-99 -48 -206 -93t-222 -80.5
t-238.5 -56.5t-256.5 -21h-203v316zM560 1289l-188 -188l-194 193l192 193l190 -190l188 188l194 -193l-192 -193zM739 1581l-178 -178l-179 179l178 178z" />
    <glyph glyph-name="uni0685.fina" unicode="&#x685;" horiz-adv-x="1705" 
d="M1569 -595q-80 -57 -165 -103.5t-175.5 -79.5t-187 -51t-198.5 -18q-167 0 -312 46t-252.5 134t-169.5 215.5t-62 291.5v24q0 12 1 24q9 104 60 196t132.5 170.5t188 142t227 110t249 75.5t253.5 38q-53 29 -120.5 62.5t-139 62.5t-140 48.5t-123.5 19.5
q-36 0 -78.5 -14.5t-83 -39.5t-75 -59t-55.5 -73l-225 153q44 77 99 141.5t119.5 111t139.5 72t159 25.5q63 0 127 -15.5t126.5 -41t122 -58.5t114.5 -69q82 -53 149.5 -92.5t128 -68t119.5 -48t124 -32.5l-93 -315l-170 -23q13 -36 49.5 -58t82.5 -34t95.5 -15.5t89.5 -3.5
h22v-316h-22q-122 0 -214 20.5t-159.5 54t-113 75.5t-74 85t-43 83t-19.5 69q-84 -16 -172 -40t-171.5 -56.5t-157 -72t-129.5 -86.5t-89 -101t-35 -114q-3 -101 45.5 -173t128.5 -118t181 -67.5t203 -21.5q67 0 138 11t141 31.5t137.5 50.5t127.5 68l144 -233v0zM635 1378
l-188 -188l-194 193l192 193l190 -190l188 188l194 -193l-192 -193zM814 1670l-178 -178l-179 179l178 178z" />
    <glyph glyph-name="uni0687.init" unicode="&#x687;" horiz-adv-x="1574" arabic-form="initial" 
d="M-20 256h211q162 0 297.5 19.5t253.5 52.5t223.5 76.5t207.5 90.5q-68 19 -136.5 47t-137 54t-136.5 44.5t-135 18.5q-46 0 -90.5 -25t-80.5 -57t-60 -62.5t-30 -41.5l-231 149q38 67 90 131t114.5 113.5t135 79.5t152.5 30q59 0 118 -12.5t117.5 -32.5t115.5 -45.5
t113 -51.5q53 -25 107 -49.5t111 -45t118 -33.5t129 -14l-25 -307l-142 -68q-87 -42 -173 -86.5t-175 -86t-184 -79t-199 -65t-220 -44t-248 -16.5h-211v316zM1139 -661l-162 -163l-164 164l162 162zM779 -660l-162 -162l-164 163l162 163zM1136 -260l-162 -163l-164 164
l162 162zM776 -259l-162 -162l-164 163l162 163z" />
    <glyph glyph-name="uni0687.medi" unicode="&#x687;" horiz-adv-x="1670" arabic-form="medial" 
d="M-20 256h203q73 0 154.5 10t166.5 27t171 40.5t167.5 50.5t156 57t137.5 60q-62 15 -138 42t-154 53t-151.5 44.5t-131.5 17.5q-37 -1 -71.5 -15.5t-64 -36t-53 -46t-40.5 -46t-27 -36.5l-9 -14l-237 136q40 74 96 142.5t122 121t138.5 83.5t145.5 30q54 -1 107.5 -13
t107.5 -30.5t109 -43t111 -50.5q57 -28 126.5 -55t145 -48t154 -34t153.5 -13l-52 -295q-23 -10 -51.5 -23.5t-50.5 -24.5l-26 -13q23 -27 58.5 -43t73 -23.5t71.5 -9.5t55 -2h34v-316h-34q-96 0 -180.5 17t-154 49.5t-123.5 79t-89 105.5q-99 -48 -206 -93t-222 -80.5
t-238.5 -56.5t-256.5 -21h-203v316zM1104 -676l-162 -163l-164 164l162 162zM744 -675l-162 -162l-164 163l162 163zM1101 -275l-162 -163l-164 164l162 162zM741 -274l-162 -162l-164 163l162 163z" />
    <glyph glyph-name="uni0687.fina" unicode="&#x687;" horiz-adv-x="1705" arabic-form="final" 
d="M1569 -595q-80 -57 -165 -103.5t-175.5 -79.5t-187 -51t-198.5 -18q-167 0 -312 46t-252.5 134t-169.5 215.5t-62 291.5v24q0 12 1 24q9 104 60 196t132.5 170.5t188 142t227 110t249 75.5t253.5 38q-53 29 -120.5 62.5t-139 62.5t-140 48.5t-123.5 19.5
q-36 0 -78.5 -14.5t-83 -39.5t-75 -59t-55.5 -73l-225 153q44 77 99 141.5t119.5 111t139.5 72t159 25.5q63 0 127 -15.5t126.5 -41t122 -58.5t114.5 -69q82 -53 149.5 -92.5t128 -68t119.5 -48t124 -32.5l-93 -315l-170 -23q13 -36 49.5 -58t82.5 -34t95.5 -15.5t89.5 -3.5
h22v-316h-22q-122 0 -214 20.5t-159.5 54t-113 75.5t-74 85t-43 83t-19.5 69q-84 -16 -172 -40t-171.5 -56.5t-157 -72t-129.5 -86.5t-89 -101t-35 -114q-3 -101 45.5 -173t128.5 -118t181 -67.5t203 -21.5q67 0 138 11t141 31.5t137.5 50.5t127.5 68l144 -233v0z
M1167.31 -311.727l-140.138 -141.083l-141.869 141.949l140.139 140.217zM855.89 -310.86l-140.139 -140.218l-141.868 141.083l140.138 141.083zM1164.71 35.3555l-140.139 -141.083l-141.868 141.948l140.138 140.217zM853.294 36.2207l-140.138 -140.218
l-141.869 141.083l140.139 141.083z" />
    <glyph glyph-name="uni0689.fina" unicode="&#x689;" horiz-adv-x="1268" 
d="M534 -60q-131 0 -256.5 50t-232.5 161l181 255q49 -45 95 -73.5t88 -44.5t79.5 -22t70.5 -6q27 0 58 3.5t61.5 11.5t57.5 20t47 30q-38 92 -82.5 191.5t-89.5 200t-89 199.5t-82 190l292 122l330 -797q18 -44 33 -77t35.5 -55t49 -32.5t73.5 -10.5h29v-316h-29
q-61 0 -107.5 8t-83 22.5t-65 35t-53.5 45.5q-46 -31 -92 -52.5t-96 -34.5t-104.5 -18.5t-117.5 -5.5zM544 -213q21 0 40 10.5t33.5 27t22.5 36.5t8 39t-8 38.5t-22.5 36t-33.5 27t-40 10.5t-40 -10.5t-33 -27t-22.5 -36t-8.5 -38.5t8.5 -39t22.5 -36.5t33 -27t40 -10.5z
M544 119q50 0 90.5 -19.5t69 -50.5t44 -70t15.5 -79t-16 -79t-44.5 -70.5t-69 -51t-89.5 -19.5q-50 0 -90.5 19.5t-69 50.5t-44 70.5t-15.5 79.5t16 79.5t44.5 70.5t69 50t89.5 19z" />
    <glyph glyph-name="uni068A.fina" unicode="&#x68a;" horiz-adv-x="1262" 
d="M534 -60q-131 0 -256.5 50t-232.5 161l181 255q49 -45 95 -73.5t88 -44.5t79.5 -22t70.5 -6q27 0 58 3.5t61.5 11.5t57.5 20t47 30q-38 92 -82.5 191.5t-89.5 200t-89 199.5t-82 190l292 122l330 -797q18 -44 33 -77t35.5 -55t49 -32.5t73.5 -10.5h29v-316h-29
q-61 0 -107.5 8t-83 22.5t-65 35t-53.5 45.5q-46 -31 -92 -52.5t-96 -34.5t-104.5 -18.5t-117.5 -5.5zM530 -608l-222 222l222 222l222 -222z" />
    <glyph glyph-name="uni068B.fina" unicode="&#x68b;" horiz-adv-x="1268" 
d="M534 -60q-131 0 -256.5 50t-232.5 161l181 255q49 -45 95 -73.5t88 -44.5t79.5 -22t70.5 -6q27 0 58 3.5t61.5 11.5t57.5 20t47 30q-38 92 -82.5 191.5t-89.5 200t-89 199.5t-82 190l292 122l330 -797q18 -44 33 -77t35.5 -55t49 -32.5t73.5 -10.5h29v-316h-29
q-61 0 -107.5 8t-83 22.5t-65 35t-53.5 45.5q-46 -31 -92 -52.5t-96 -34.5t-104.5 -18.5t-117.5 -5.5zM561 1298q-44 0 -85.5 3.5t-84 12t-86.5 21.5t-92 32l43 107q35 -14 62 -23t51 -15q12 15 25 33.5t32 54.5q4 16 4.5 43t-1 58.5t-4.5 65t-5 62.5q-2 23 -4 45.5t-5 48.5
t-7 56.5t-9 68.5l116 32q8 -93 19 -184t12 -188q91 79 180 94q34 5 70.5 -3t68 -27.5t53.5 -49.5t25 -69q4 -53 -13.5 -94t-49 -72t-73.5 -52.5t-85.5 -35t-84.5 -19.5t-72 -6zM478 1415q23 -1 38 -1h29q26 0 62 3t74 11.5t74.5 23.5t63.5 39q14 14 22.5 31.5t8.5 31.5
q0 28 -30 45.5t-80 12.5q-29 -3 -63.5 -20.5t-70 -44.5t-68.5 -61.5t-60 -70.5zM530 -608l-222 222l222 222l222 -222z" />
    <glyph glyph-name="uni068C.fina" unicode="&#x68c;" horiz-adv-x="1268" arabic-form="final" 
d="M534 -60q-131 0 -256.5 50t-232.5 161l181 255q49 -45 95 -73.5t88 -44.5t79.5 -22t70.5 -6q27 0 58 3.5t61.5 11.5t57.5 20t47 30q-38 92 -82.5 191.5t-89.5 200t-89 199.5t-82 190l292 122l330 -797q18 -44 33 -77t35.5 -55t49 -32.5t73.5 -10.5h29v-316h-29
q-61 0 -107.5 8t-83 22.5t-65 35t-53.5 45.5q-46 -31 -92 -52.5t-96 -34.5t-104.5 -18.5t-117.5 -5.5zM674 1439l-188 -188l-194 193l192 193l190 -190l188 188l194 -193l-192 -193z" />
    <glyph glyph-name="uni068D.fina" unicode="&#x68d;" horiz-adv-x="1268" arabic-form="final" 
d="M534 -60q-131 0 -256.5 50t-232.5 161l181 255q49 -45 95 -73.5t88 -44.5t79.5 -22t70.5 -6q27 0 58 3.5t61.5 11.5t57.5 20t47 30q-38 92 -82.5 191.5t-89.5 200t-89 199.5t-82 190l292 122l330 -797q18 -44 33 -77t35.5 -55t49 -32.5t73.5 -10.5h29v-316h-29
q-61 0 -107.5 8t-83 22.5t-65 35t-53.5 45.5q-46 -31 -92 -52.5t-96 -34.5t-104.5 -18.5t-117.5 -5.5zM560 -353l-188 -188l-194 193l192 193l190 -190l188 188l194 -193l-192 -193z" />
    <glyph glyph-name="uni068E.fina" unicode="&#x68e;" horiz-adv-x="1262" arabic-form="final" 
d="M534 -60q-131 0 -256.5 50t-232.5 161l181 255q49 -45 95 -73.5t88 -44.5t79.5 -22t70.5 -6q27 0 58 3.5t61.5 11.5t57.5 20t47 30q-38 92 -82.5 191.5t-89.5 200t-89 199.5t-82 190l292 122l330 -797q18 -44 33 -77t35.5 -55t49 -32.5t73.5 -10.5h29v-316h-29
q-61 0 -107.5 8t-83 22.5t-65 35t-53.5 45.5q-46 -31 -92 -52.5t-96 -34.5t-104.5 -18.5t-117.5 -5.5zM664 1471l-188 -188l-194 193l192 193l190 -190l188 188l194 -193l-192 -193zM843 1763l-178 -178l-179 179l178 178z" />
    <glyph glyph-name="uni068F.fina" unicode="&#x68f;" horiz-adv-x="1268" 
d="M534 -60q-131 0 -256.5 50t-232.5 161l181 255q49 -45 95 -73.5t88 -44.5t79.5 -22t70.5 -6q27 0 58 3.5t61.5 11.5t57.5 20t47 30q-38 92 -82.5 191.5t-89.5 200t-89 199.5t-82 190l292 122l330 -797q18 -44 33 -77t35.5 -55t49 -32.5t73.5 -10.5h29v-316h-29
q-61 0 -107.5 8t-83 22.5t-65 35t-53.5 45.5q-46 -31 -92 -52.5t-96 -34.5t-104.5 -18.5t-117.5 -5.5zM652 1756l-162 -162l-164 164l162 162zM1006 1755l-162 -163l-164 164l162 163zM832 1480l-162 -162l-164 164l162 162z" />
    <glyph glyph-name="uni0690.fina" unicode="&#x690;" horiz-adv-x="1268" 
d="M534 -60q-131 0 -256.5 50t-232.5 161l181 255q49 -45 95 -73.5t88 -44.5t79.5 -22t70.5 -6q27 0 58 3.5t61.5 11.5t57.5 20t47 30q-38 92 -82.5 191.5t-89.5 200t-89 199.5t-82 190l292 122l330 -797q18 -44 33 -77t35.5 -55t49 -32.5t73.5 -10.5h29v-316h-29
q-61 0 -107.5 8t-83 22.5t-65 35t-53.5 45.5q-46 -31 -92 -52.5t-96 -34.5t-104.5 -18.5t-117.5 -5.5zM1002 1430l-162 -163l-164 164l162 162zM642 1433l-162 -162l-164 163l162 163zM999 1831l-162 -163l-164 164l162 162zM639 1834l-162 -162l-164 163l162 163z" />
    <glyph glyph-name="uni0692.fina" unicode="&#x692;" horiz-adv-x="820" 
d="M816 -60q-22 0 -58 3t-82 22q-22 -124 -82.5 -235.5t-149.5 -209t-203 -179.5t-243 -147l-183 253q71 36 143 78.5t137.5 90t122 99t98.5 106.5t66 112.5t24 116.5q0 39 -15 99t-38 129t-51 139t-54 128l289 126q40 -120 76.5 -200t70.5 -128t65.5 -67.5t62.5 -19.5h24
v-316h-20zM307 849q-18 57 -41.5 116t-50 111t-55 92t-56.5 60l81 117q31 -24 59.5 -60.5t53 -78.5t44 -84t32.5 -76q16 48 31 98t33.5 96.5t41.5 87.5t55 71l97 -104q-39 -50 -66.5 -102.5t-50 -108.5t-41.5 -116.5t-41 -126.5z" />
    <glyph glyph-name="uni0693.fina" unicode="&#x693;" horiz-adv-x="820" 
d="M816 -60q-22 0 -58 3t-82 22q-22 -124 -82.5 -235.5t-149.5 -209t-203 -179.5t-243 -147l-183 253q71 36 143 78.5t137.5 90t122 99t98.5 106.5t66 112.5t24 116.5q0 39 -15 99t-38 129t-51 139t-54 128l289 126q40 -120 76.5 -200t70.5 -128t65.5 -67.5t62.5 -19.5h24
v-316h-20zM446 -625q21 0 40 10.5t33.5 27t22.5 36.5t8 39t-8 38.5t-22.5 36t-33.5 27t-40 10.5t-40 -10.5t-33 -27t-22.5 -36t-8.5 -38.5t8.5 -39t22.5 -36.5t33 -27t40 -10.5zM446 -293q50 0 90.5 -19.5t69 -50.5t44 -70t15.5 -79t-16 -79t-44.5 -70.5t-69 -51
t-89.5 -19.5q-50 0 -90.5 19.5t-69 50.5t-44 70.5t-15.5 79.5t16 79.5t44.5 70.5t69 50t89.5 19z" />
    <glyph glyph-name="uni0694.fina" unicode="&#x694;" horiz-adv-x="825" 
d="M816 -60q-22 0 -58 3t-82 22q-22 -124 -82.5 -235.5t-149.5 -209t-203 -179.5t-243 -147l-183 253q71 36 143 78.5t137.5 90t122 99t98.5 106.5t66 112.5t24 116.5q0 39 -15 99t-38 129t-51 139t-54 128l289 126q40 -120 76.5 -200t70.5 -128t65.5 -67.5t62.5 -19.5h24
v-316h-20zM325 -1144l-222 222l222 222l222 -222z" />
    <glyph glyph-name="uni0695.fina" unicode="&#x695;" horiz-adv-x="820" 
d="M816 -60q-22 0 -58 3t-82 22q-22 -124 -82.5 -235.5t-149.5 -209t-203 -179.5t-243 -147l-183 253q71 36 143 78.5t137.5 90t122 99t98.5 106.5t66 112.5t24 116.5q0 39 -15 99t-38 129t-51 139t-54 128l289 126q40 -120 76.5 -200t70.5 -128t65.5 -67.5t62.5 -19.5h24
v-316h-20zM365 -1239q-18 57 -41.5 116t-50 111t-55 92t-56.5 60l81 117q31 -24 59.5 -60.5t53 -78.5t44 -84t32.5 -76q16 48 31 98t33.5 96.5t41.5 87.5t55 71l97 -104q-39 -50 -66.5 -102.5t-50 -108.5t-41.5 -116.5t-41 -126.5z" />
    <glyph glyph-name="uni0696.fina" unicode="&#x696;" horiz-adv-x="820" 
d="M816 -60q-22 0 -58 3t-82 22q-22 -124 -82.5 -235.5t-149.5 -209t-203 -179.5t-243 -147l-183 253q71 36 143 78.5t137.5 90t122 99t98.5 106.5t66 112.5t24 116.5q0 39 -15 99t-38 129t-51 139t-54 128l289 126q40 -120 76.5 -200t70.5 -128t65.5 -67.5t62.5 -19.5h24
v-316h-20zM411 -1073l-222 222l222 222l222 -222zM156 -198l-222 222l222 222l222 -222z" />
    <glyph glyph-name="uni0697.fina" unicode="&#x697;" horiz-adv-x="815" 
d="M816 -60q-22 0 -58 3t-82 22q-22 -124 -82.5 -235.5t-149.5 -209t-203 -179.5t-243 -147l-183 253q71 36 143 78.5t137.5 90t122 99t98.5 106.5t66 112.5t24 116.5q0 39 -15 99t-38 129t-51 139t-54 128l289 126q40 -120 76.5 -200t70.5 -128t65.5 -67.5t62.5 -19.5h24
v-316h-20zM405 1024l-188 -188l-194 193l192 193l190 -190l188 188l194 -193l-192 -193z" />
    <glyph glyph-name="uni0699.fina" unicode="&#x699;" horiz-adv-x="815" 
d="M816 -60q-22 0 -58 3t-82 22q-22 -124 -82.5 -235.5t-149.5 -209t-203 -179.5t-243 -147l-183 253q71 36 143 78.5t137.5 90t122 99t98.5 106.5t66 112.5t24 116.5q0 39 -15 99t-38 129t-51 139t-54 128l289 126q40 -120 76.5 -200t70.5 -128t65.5 -67.5t62.5 -19.5h24
v-316h-20zM736 966l-162 -163l-164 164l162 162zM376 969l-162 -162l-164 163l162 163zM733 1367l-162 -163l-164 164l162 162zM373 1370l-162 -162l-164 163l162 163z" />
    <glyph glyph-name="uni069A.init" unicode="&#x69a;" horiz-adv-x="1660" 
d="M0 256q75 0 126.5 40.5t88 106.5t62 150.5t48.5 172.5l266 -48q-8 -35 -19.5 -81.5t-21 -96.5t-15.5 -97.5t-2.5 -83.5t18.5 -56.5t46 -15.5q40 3 72.5 28t58.5 64t46 88t34.5 101t24 103t15.5 93l254 -43q-1 -30 -7 -74t-11 -92.5t-5 -97t11 -87t36.5 -62.5t71.5 -24
q28 0 57 9.5t52 27t37.5 41.5t14.5 54q0 52 -17 114.5t-41.5 124t-50.5 116.5t-44 93l248 139l21 -46q15 -32 34 -78t39.5 -103.5t37.5 -119.5t28 -127t11 -126q0 -100 -27.5 -180t-83 -136t-139 -87t-195.5 -32q-54 0 -98 10.5t-79.5 28.5t-62.5 43t-48 54
q-24 -31 -51.5 -55.5t-63 -42t-79.5 -27.5t-100 -11q-49 -1 -88.5 8.5t-72.5 27.5t-59.5 43.5t-49.5 56.5q-21 -26 -48 -48.5t-64 -39.5t-86 -26.5t-114 -9.5h-36v316h20zM982 912l-222 222l222 222l222 -222zM964 -567l-222 222l222 222l222 -222z" />
    <glyph glyph-name="uni069A.medi" unicode="&#x69a;" horiz-adv-x="1861" 
d="M-1 256q53 0 99 17.5t87 67.5t77 141t69 238l265 -38q-1 -5 -3 -13q-6 -25 -14.5 -70.5t-16 -102t-7 -108t12 -89t40.5 -44.5q31 -8 60 12.5t55 59t48 90t40 105.5t31 106t20 92l264 -38q-2 -25 -7 -66.5t-8 -88.5t-2.5 -94.5t10.5 -86t31 -63t58 -24.5q33 0 57 22
t40.5 57.5t26.5 81t15 92.5t5 91.5t-3 78.5l270 38l33 -282q6 -46 26 -80t47 -56.5t57 -34t57 -11.5h32v-316h-32q-97 0 -183 34t-149 115q-6 -8 -12 -14t-11 -12v1q-54 -57 -124.5 -90.5t-151.5 -33.5q-91 0 -167.5 39t-127.5 106q-60 -66 -136 -107t-167 -41
q-85 0 -158 38t-121 104q-54 -75 -133.5 -107t-196.5 -32h-21v316h19zM597 682h-1q3 8 1 0zM1013 926l-222 222l222 222l222 -222zM1004 -568l-222 222l222 222l222 -222z" />
    <glyph glyph-name="uni069A.fina" unicode="&#x69a;" horiz-adv-x="2897" 
d="M2228 -58q-86 0 -144.5 33t-96.5 83q-21 -27 -45 -48.5t-56.5 -37t-76 -23.5t-103.5 -8q-42 0 -77 6t-64 15q-1 -117 -35.5 -213t-94 -172t-139.5 -132t-172 -92.5t-192.5 -54.5t-199.5 -18q-153 0 -283 50.5t-224.5 142t-147.5 220t-53 283.5q3 90 24.5 184t55 184
t75 171.5t84.5 146.5l218 -167q-36 -59 -69 -125t-57.5 -133.5t-39.5 -135.5t-15 -131q-3 -76 29.5 -143.5t91 -118t137.5 -80t170 -29.5q69 0 137.5 9.5t131 31t116.5 55t93.5 81.5t62 111.5t22.5 144.5q0 60 -18 125.5t-47.5 134t-67 139.5t-77.5 142l277 148
q36 -86 75 -169t81 -148.5t87 -105t93 -37.5q40 1 63.5 22t36.5 55t17 78t4 92l-6 173l284 39q0 -28 2.5 -73.5t9 -97.5t18 -105t29.5 -95.5t43 -69.5t59 -27q33 0 58.5 30.5t43 78.5t26 106.5t8.5 114.5q0 22 -0.5 31.5t-0.5 17t-0.5 18t-0.5 34.5l271 39q4 -55 7 -90
t6 -63.5t7.5 -58t12.5 -73.5q9 -46 27 -80t43 -56.5t55 -33.5t62 -11h30v-316l-20 -1q-112 0 -197 35.5t-145 113.5q-54 -69 -135 -107.5t-184 -38.5zM2035 -672l-222 222l222 222l222 -222zM2023 881l-222 222l222 222l222 -222z" />
    <glyph glyph-name="uni069B.init" unicode="&#x69b;" horiz-adv-x="1649" 
d="M0 256q75 0 126.5 40.5t88 106.5t62 150.5t48.5 172.5l266 -48q-8 -35 -19.5 -81.5t-21 -96.5t-15.5 -97.5t-2.5 -83.5t18.5 -56.5t46 -15.5q40 3 72.5 28t58.5 64t46 88t34.5 101t24 103t15.5 93l254 -43q-1 -30 -7 -74t-11 -92.5t-5 -97t11 -87t36.5 -62.5t71.5 -24
q28 0 57 9.5t52 27t37.5 41.5t14.5 54q0 52 -17 114.5t-41.5 124t-50.5 116.5t-44 93l248 139l21 -46q15 -32 34 -78t39.5 -103.5t37.5 -119.5t28 -127t11 -126q0 -100 -27.5 -180t-83 -136t-139 -87t-195.5 -32q-54 0 -98 10.5t-79.5 28.5t-62.5 43t-48 54
q-24 -31 -51.5 -55.5t-63 -42t-79.5 -27.5t-100 -11q-49 -1 -88.5 8.5t-72.5 27.5t-59.5 43.5t-49.5 56.5q-21 -26 -48 -48.5t-64 -39.5t-86 -26.5t-114 -9.5h-36v316h20zM918 -389l188 188l194 -193l-192 -193l-190 190l-188 -188l-194 193l192 193zM739 -681l178 178
l179 -179l-178 -178z" />
    <glyph glyph-name="uni069B.medi" unicode="&#x69b;" horiz-adv-x="1851" 
d="M-1 256q53 0 99 17.5t87 67.5t77 141t69 238l265 -38q-1 -5 -3 -13q-6 -25 -14.5 -70.5t-16 -102t-7 -108t12 -89t40.5 -44.5q31 -8 60 12.5t55 59t48 90t40 105.5t31 106t20 92l264 -38q-2 -25 -7 -66.5t-8 -88.5t-2.5 -94.5t10.5 -86t31 -63t58 -24.5q33 0 57 22
t40.5 57.5t26.5 81t15 92.5t5 91.5t-3 78.5l270 38l33 -282q6 -46 26 -80t47 -56.5t57 -34t57 -11.5h32v-316h-32q-97 0 -183 34t-149 115q-6 -8 -12 -14t-11 -12v1q-54 -57 -124.5 -90.5t-151.5 -33.5q-91 0 -167.5 39t-127.5 106q-60 -66 -136 -107t-167 -41
q-85 0 -158 38t-121 104q-54 -75 -133.5 -107t-196.5 -32h-21v316h19zM597 682h-1q3 8 1 0zM959 -369l188 188l194 -193l-192 -193l-190 190l-188 -188l-194 193l192 193zM780 -661l178 178l179 -179l-178 -178z" />
    <glyph glyph-name="uni069B.fina" unicode="&#x69b;" horiz-adv-x="2892" 
d="M2228 -58q-86 0 -144.5 33t-96.5 83q-21 -27 -45 -48.5t-56.5 -37t-76 -23.5t-103.5 -8q-42 0 -77 6t-64 15q-1 -117 -35.5 -213t-94 -172t-139.5 -132t-172 -92.5t-192.5 -54.5t-199.5 -18q-153 0 -283 50.5t-224.5 142t-147.5 220t-53 283.5q3 90 24.5 184t55 184
t75 171.5t84.5 146.5l218 -167q-36 -59 -69 -125t-57.5 -133.5t-39.5 -135.5t-15 -131q-3 -76 29.5 -143.5t91 -118t137.5 -80t170 -29.5q69 0 137.5 9.5t131 31t116.5 55t93.5 81.5t62 111.5t22.5 144.5q0 60 -18 125.5t-47.5 134t-67 139.5t-77.5 142l277 148
q36 -86 75 -169t81 -148.5t87 -105t93 -37.5q40 1 63.5 22t36.5 55t17 78t4 92l-6 173l284 39q0 -28 2.5 -73.5t9 -97.5t18 -105t29.5 -95.5t43 -69.5t59 -27q33 0 58.5 30.5t43 78.5t26 106.5t8.5 114.5q0 22 -0.5 31.5t-0.5 17t-0.5 18t-0.5 34.5l271 39q4 -55 7 -90
t6 -63.5t7.5 -58t12.5 -73.5q9 -46 27 -80t43 -56.5t55 -33.5t62 -11h30v-316l-20 -1q-112 0 -197 35.5t-145 113.5q-54 -69 -135 -107.5t-184 -38.5zM2068 -413l188 188l194 -193l-192 -193l-190 190l-188 -188l-194 193l192 193zM1889 -705l178 178l179 -179l-178 -178z
" />
    <glyph glyph-name="uni069C.init" unicode="&#x69c;" horiz-adv-x="1630" 
d="M0 256q75 0 126.5 40.5t88 106.5t62 150.5t48.5 172.5l266 -48q-8 -35 -19.5 -81.5t-21 -96.5t-15.5 -97.5t-2.5 -83.5t18.5 -56.5t46 -15.5q40 3 72.5 28t58.5 64t46 88t34.5 101t24 103t15.5 93l254 -43q-1 -30 -7 -74t-11 -92.5t-5 -97t11 -87t36.5 -62.5t71.5 -24
q28 0 57 9.5t52 27t37.5 41.5t14.5 54q0 52 -17 114.5t-41.5 124t-50.5 116.5t-44 93l248 139l21 -46q15 -32 34 -78t39.5 -103.5t37.5 -119.5t28 -127t11 -126q0 -100 -27.5 -180t-83 -136t-139 -87t-195.5 -32q-54 0 -98 10.5t-79.5 28.5t-62.5 43t-48 54
q-24 -31 -51.5 -55.5t-63 -42t-79.5 -27.5t-100 -11q-49 -1 -88.5 8.5t-72.5 27.5t-59.5 43.5t-49.5 56.5q-21 -26 -48 -48.5t-64 -39.5t-86 -26.5t-114 -9.5h-36v316h20zM969 -389l188 188l194 -193l-192 -193l-190 190l-188 -188l-194 193l192 193zM790 -681l178 178
l179 -179l-178 -178zM942 1147l-188 -188l-194 193l192 193l190 -190l188 188l194 -193l-192 -193zM1121 1439l-178 -178l-179 179l178 178z" />
    <glyph glyph-name="uni069C.medi" unicode="&#x69c;" horiz-adv-x="1851" 
d="M-1 256q53 0 99 17.5t87 67.5t77 141t69 238l265 -38q-1 -5 -3 -13q-6 -25 -14.5 -70.5t-16 -102t-7 -108t12 -89t40.5 -44.5q31 -8 60 12.5t55 59t48 90t40 105.5t31 106t20 92l264 -38q-2 -25 -7 -66.5t-8 -88.5t-2.5 -94.5t10.5 -86t31 -63t58 -24.5q33 0 57 22
t40.5 57.5t26.5 81t15 92.5t5 91.5t-3 78.5l270 38l33 -282q6 -46 26 -80t47 -56.5t57 -34t57 -11.5h32v-316h-32q-97 0 -183 34t-149 115q-6 -8 -12 -14t-11 -12v1q-54 -57 -124.5 -90.5t-151.5 -33.5q-91 0 -167.5 39t-127.5 106q-60 -66 -136 -107t-167 -41
q-85 0 -158 38t-121 104q-54 -75 -133.5 -107t-196.5 -32h-21v316h19zM597 682h-1q3 8 1 0zM969 -389l188 188l194 -193l-192 -193l-190 190l-188 -188l-194 193l192 193zM790 -681l178 178l179 -179l-178 -178zM998 1072l-188 -188l-194 193l192 193l190 -190l188 188
l194 -193l-192 -193zM1177 1364l-178 -178l-179 179l178 178z" />
    <glyph glyph-name="uni069C.fina" unicode="&#x69c;" horiz-adv-x="2892" 
d="M2228 -58q-86 0 -144.5 33t-96.5 83q-21 -27 -45 -48.5t-56.5 -37t-76 -23.5t-103.5 -8q-42 0 -77 6t-64 15q-1 -117 -35.5 -213t-94 -172t-139.5 -132t-172 -92.5t-192.5 -54.5t-199.5 -18q-153 0 -283 50.5t-224.5 142t-147.5 220t-53 283.5q3 90 24.5 184t55 184
t75 171.5t84.5 146.5l218 -167q-36 -59 -69 -125t-57.5 -133.5t-39.5 -135.5t-15 -131q-3 -76 29.5 -143.5t91 -118t137.5 -80t170 -29.5q69 0 137.5 9.5t131 31t116.5 55t93.5 81.5t62 111.5t22.5 144.5q0 60 -18 125.5t-47.5 134t-67 139.5t-77.5 142l277 148
q36 -86 75 -169t81 -148.5t87 -105t93 -37.5q40 1 63.5 22t36.5 55t17 78t4 92l-6 173l284 39q0 -28 2.5 -73.5t9 -97.5t18 -105t29.5 -95.5t43 -69.5t59 -27q33 0 58.5 30.5t43 78.5t26 106.5t8.5 114.5q0 22 -0.5 31.5t-0.5 17t-0.5 18t-0.5 34.5l271 39q4 -55 7 -90
t6 -63.5t7.5 -58t12.5 -73.5q9 -46 27 -80t43 -56.5t55 -33.5t62 -11h30v-316l-20 -1q-112 0 -197 35.5t-145 113.5q-54 -69 -135 -107.5t-184 -38.5zM2033 -359l188 188l194 -193l-192 -193l-190 190l-188 -188l-194 193l192 193zM1854 -651l178 178l179 -179l-178 -178z
M1988 1042l-188 -188l-194 193l192 193l190 -190l188 188l194 -193l-192 -193zM2167 1334l-178 -178l-179 179l178 178z" />
    <glyph glyph-name="uni069D.init" unicode="&#x69d;" horiz-adv-x="1921" 
d="M0 256q49 0 84 7t58.5 17.5t37.5 23t22 23.5l-1 -1q14 21 28 48.5t30.5 73.5t36 116.5t44.5 176.5l262 -85q-10 -38 -19 -72.5t-12.5 -67.5t-0.5 -66t17 -69q42 70 88 138.5t99.5 130t115.5 114.5t136.5 91.5t162.5 61t194 23.5q122 1 215 -40.5t155.5 -109t92.5 -152.5
t26 -171q-6 -108 -49 -190.5t-112 -143.5t-157.5 -101.5t-186 -65.5t-198 -35.5t-193.5 -10.5q-98 0 -176 6t-145.5 23.5t-127 49t-119.5 82.5q-72 -72 -169 -106t-230 -35h-29v316h20zM1379 622q-64 0 -125.5 -17.5t-117 -46.5t-105 -67t-90.5 -79t-72.5 -82t-51.5 -77
q39 -2 88 -3t95 -1q62 0 128.5 3.5t131 13t124 26.5t108 43.5t83 63.5t48.5 87q-10 70 -74 103t-170 33zM969 -362l-188 -188l-194 193l192 193l190 -190l188 188l194 -193l-192 -193z" />
    <glyph glyph-name="uni069D.medi" unicode="&#x69d;" horiz-adv-x="1936" 
d="M0 256q49 0 84 7t58.5 17.5t37.5 23t22 23.5l-1 -1q14 21 28 48.5t30.5 73.5t36 116.5t44.5 176.5l262 -85q-10 -38 -19 -72.5t-12.5 -67.5t-0.5 -66t17 -69q42 70 88 138.5t99.5 130t115.5 114.5t136.5 91.5t163 61t193.5 23.5q122 1 215 -40.5t155.5 -109t92.5 -152.5
t26 -171q-4 -61 -19.5 -113.5t-41.5 -97.5h142v-316h-313q-53 0 -93.5 1t-73.5 3.5t-59 7.5t-48 14q-98 -25 -197.5 -35.5t-192.5 -10.5q-98 0 -176 6t-145.5 23.5t-127 49t-119.5 82.5q-72 -72 -169 -106t-230 -35h-29v316h20zM1379 622q-64 0 -125.5 -17.5t-117 -46.5
t-105 -67t-90.5 -79t-72.5 -82t-51.5 -77q39 -2 88 -3t95 -1q62 0 128.5 3.5t131 13t124 26.5t108 43.5t83 63.5t48.5 87q-10 70 -74 103t-170 33zM1105 -357l-188 -188l-194 193l192 193l190 -190l188 188l194 -193l-192 -193z" />
    <glyph glyph-name="uni069D.fina" unicode="&#x69d;" horiz-adv-x="2867" 
d="M795 -709q-103 0 -204.5 17t-191.5 56t-163.5 103.5t-120.5 159.5q-17 34 -31.5 73t-25.5 79.5t-17 82t-6 80.5q0 72 12.5 145t32.5 143t45.5 135t50.5 121t48 101t39 76l224 -162q-7 -9 -23 -38.5t-35.5 -73t-40.5 -98t-38.5 -113.5t-28.5 -120t-11 -118
q0 -91 42.5 -154t111 -102t153 -56.5t168.5 -17.5q97 0 186 27t157.5 81t109 135t40.5 189q0 48 -16 113.5t-41.5 139.5t-56.5 152t-60 150l281 154q30 -74 52 -129.5t40 -97.5t35 -71.5t38 -50.5q32 57 76.5 116.5t100 116.5t122.5 107t144.5 89t164.5 62.5t184 26.5
t185.5 -30.5t156 -93.5t107.5 -143t40 -179q0 -105 -47 -210q15 -3 36.5 -5.5t41.5 -2.5h26v-316h-20q-56 0 -102.5 7.5t-85 20t-68.5 29t-51 33.5q-57 -32 -120.5 -55.5t-129 -38.5t-130.5 -22.5t-125 -7.5q-81 0 -149.5 6.5t-128 20t-113.5 33.5t-107 47
q-3 -157 -60.5 -289.5t-158 -228.5t-239.5 -150t-305 -54zM2286 593q-38 -6 -83 -23t-93.5 -42t-96.5 -56.5t-90.5 -66.5t-77.5 -72.5t-56 -74.5q26 -7 61 -13.5t72.5 -11.5t74 -8t66.5 -3q40 0 93 4.5t109.5 15t111 28t98.5 43.5t72.5 62t31.5 83q2 41 -24.5 70.5t-69 47
t-95.5 22t-104 -4.5zM2168 -367l-188 -188l-194 193l192 193l190 -190l188 188l194 -193l-192 -193z" />
    <glyph glyph-name="uni069E.init" unicode="&#x69e;" horiz-adv-x="1896" 
d="M0 256q49 0 84 7t58.5 17.5t37.5 23t22 23.5l-1 -1q14 21 28 48.5t30.5 73.5t36 116.5t44.5 176.5l262 -85q-10 -38 -19 -72.5t-12.5 -67.5t-0.5 -66t17 -69q42 70 88 138.5t99.5 130t115.5 114.5t136.5 91.5t162.5 61t194 23.5q122 1 215 -40.5t155.5 -109t92.5 -152.5
t26 -171q-6 -108 -49 -190.5t-112 -143.5t-157.5 -101.5t-186 -65.5t-198 -35.5t-193.5 -10.5q-98 0 -176 6t-145.5 23.5t-127 49t-119.5 82.5q-72 -72 -169 -106t-230 -35h-29v316h20zM1379 622q-64 0 -125.5 -17.5t-117 -46.5t-105 -67t-90.5 -79t-72.5 -82t-51.5 -77
q39 -2 88 -3t95 -1q62 0 128.5 3.5t131 13t124 26.5t108 43.5t83 63.5t48.5 87q-10 70 -74 103t-170 33zM1336 1198l-188 -188l-194 193l192 193l190 -190l188 188l194 -193l-192 -193zM1515 1490l-178 -178l-179 179l178 178z" />
    <glyph glyph-name="uni069E.medi" unicode="&#x69e;" horiz-adv-x="1936" 
d="M0 256q49 0 84 7t58.5 17.5t37.5 23t22 23.5l-1 -1q14 21 28 48.5t30.5 73.5t36 116.5t44.5 176.5l262 -85q-10 -38 -19 -72.5t-12.5 -67.5t-0.5 -66t17 -69q42 70 88 138.5t99.5 130t115.5 114.5t136.5 91.5t163 61t193.5 23.5q122 1 215 -40.5t155.5 -109t92.5 -152.5
t26 -171q-4 -61 -19.5 -113.5t-41.5 -97.5h142v-316h-313q-53 0 -93.5 1t-73.5 3.5t-59 7.5t-48 14q-98 -25 -197.5 -35.5t-192.5 -10.5q-98 0 -176 6t-145.5 23.5t-127 49t-119.5 82.5q-72 -72 -169 -106t-230 -35h-29v316h20zM1379 622q-64 0 -125.5 -17.5t-117 -46.5
t-105 -67t-90.5 -79t-72.5 -82t-51.5 -77q39 -2 88 -3t95 -1q62 0 128.5 3.5t131 13t124 26.5t108 43.5t83 63.5t48.5 87q-10 70 -74 103t-170 33zM1331 1208l-188 -188l-194 193l192 193l190 -190l188 188l194 -193l-192 -193zM1510 1500l-178 -178l-179 179l178 178z" />
    <glyph glyph-name="uni069E.fina" unicode="&#x69e;" horiz-adv-x="2872" 
d="M795 -709q-103 0 -204.5 17t-191.5 56t-163.5 103.5t-120.5 159.5q-17 34 -31.5 73t-25.5 79.5t-17 82t-6 80.5q0 72 12.5 145t32.5 143t45.5 135t50.5 121t48 101t39 76l224 -162q-7 -9 -23 -38.5t-35.5 -73t-40.5 -98t-38.5 -113.5t-28.5 -120t-11 -118
q0 -91 42.5 -154t111 -102t153 -56.5t168.5 -17.5q97 0 186 27t157.5 81t109 135t40.5 189q0 48 -16 113.5t-41.5 139.5t-56.5 152t-60 150l281 154q30 -74 52 -129.5t40 -97.5t35 -71.5t38 -50.5q32 57 76.5 116.5t100 116.5t122.5 107t144.5 89t164.5 62.5t184 26.5
t185.5 -30.5t156 -93.5t107.5 -143t40 -179q0 -105 -47 -210q15 -3 36.5 -5.5t41.5 -2.5h26v-316h-20q-56 0 -102.5 7.5t-85 20t-68.5 29t-51 33.5q-57 -32 -120.5 -55.5t-129 -38.5t-130.5 -22.5t-125 -7.5q-81 0 -149.5 6.5t-128 20t-113.5 33.5t-107 47
q-3 -157 -60.5 -289.5t-158 -228.5t-239.5 -150t-305 -54zM2286 593q-38 -6 -83 -23t-93.5 -42t-96.5 -56.5t-90.5 -66.5t-77.5 -72.5t-56 -74.5q26 -7 61 -13.5t72.5 -11.5t74 -8t66.5 -3q40 0 93 4.5t109.5 15t111 28t98.5 43.5t72.5 62t31.5 83q2 41 -24.5 70.5t-69 47
t-95.5 22t-104 -4.5zM2295 1193l-188 -188l-194 193l192 193l190 -190l188 188l194 -193l-192 -193zM2474 1485l-178 -178l-179 179l178 178z" />
    <glyph glyph-name="uni069F.init" unicode="&#x69f;" horiz-adv-x="1524" 
d="M-20 256h133q17 29 47 78t78 109q8 63 14 154.5t7 200.5q0 60 -4 136.5t-11.5 166.5t-18.5 191t-24 210l322 82q14 -103 25 -199t18.5 -192t11.5 -194.5t4 -205.5q52 41 107.5 77.5t115 63.5t123.5 42.5t135 15.5q82 0 155 -26t129.5 -75t93 -119t45.5 -158
q5 -120 -29 -217t-96.5 -172t-149 -129t-187 -89t-209.5 -51.5t-217 -16.5l-592 1h-26v316zM1032 672q-60 1 -135.5 -28.5t-154.5 -84.5t-155.5 -132t-139.5 -171q35 -3 73 -4.5t70 -1.5q150 0 270.5 29.5t205 75t129 100t41.5 105.5q-5 30 -25.5 51t-49.5 34t-63 19.5
t-66 7.5zM1005 1358l-188 -188l-194 193l192 193l190 -190l188 188l194 -193l-192 -193zM1184 1650l-178 -178l-179 179l178 178z" />
    <glyph glyph-name="uni069F.medi" unicode="&#x69f;" horiz-adv-x="1584" 
d="M-20 256h133q17 29 47 78t78 109q8 63 14 154.5t7 200.5q0 60 -4 136.5t-11.5 166.5t-18.5 191t-24 210l322 82q14 -103 25 -199t18.5 -192t11.5 -194.5t4 -205.5q52 41 107.5 77.5t115 63.5t123.5 42.5t135 15.5q82 0 155 -26t129.5 -75t93 -119t45.5 -158
q5 -109 -22.5 -197.5t-79.5 -160.5h219l-1 -316h-265q-79 0 -175.5 6.5t-214.5 36.5l1 1q-85 -23 -173.5 -34t-176.5 -11l-592 1h-26v316zM1032 672q-60 1 -135.5 -28.5t-154.5 -84.5t-155.5 -132t-139.5 -171q35 -3 73 -4.5t70 -1.5q150 0 270.5 29.5t205 75t129 100
t41.5 105.5q-5 30 -25.5 51t-49.5 34t-63 19.5t-66 7.5zM1006 1358l-188 -188l-194 193l192 193l190 -190l188 188l194 -193l-192 -193zM1185 1650l-178 -178l-179 179l178 178z" />
    <glyph glyph-name="uni069F.fina" unicode="&#x69f;" horiz-adv-x="1871" 
d="M866 -60q-113 0 -218.5 7.5t-208 26.5t-205 52.5t-210.5 85.5l115 295q168 -64 266 -93q19 26 42.5 57.5t57.5 76.5q6 45 10.5 82.5t7 71.5t4 66t1.5 66q0 46 -4 117t-9.5 151.5t-13 163t-14 152.5t-12.5 119t-9 63l317 84l11 -106q8 -72 16.5 -154.5t15.5 -169.5
t12.5 -177t7.5 -177q48 42 94.5 77t98 60.5t112 40.5t136.5 17q79 2 156.5 -22.5t140.5 -72.5t106 -119.5t53 -162.5q1 -112 -28.5 -201.5t-80.5 -160.5h253l-1 -316h-302q-79 0 -174.5 6.5t-213.5 36.5q-85 -23 -168.5 -33t-161.5 -10zM1287 674q-60 0 -135.5 -31
t-154.5 -87t-155.5 -134t-139.5 -172q35 -3 73 -4.5t70 -1.5q150 0 270.5 30.5t205 77.5t129 103t41.5 107q-5 30 -28.5 51.5t-55 35t-64.5 19.5t-56 6zM1306 1313l-188 -188l-194 193l192 193l190 -190l188 188l194 -193l-192 -193zM1485 1605l-178 -178l-179 179l178 178z
" />
    <glyph glyph-name="uni06A0.init" unicode="&#x6a0;" horiz-adv-x="1091" 
d="M919 601q-26 14 -52.5 25.5t-54.5 21.5q-48 17 -107 28t-122 4q-43 -5 -82.5 -23t-70 -44.5t-48.5 -59.5t-18 -67q0 -48 30 -84.5t76.5 -60.5t102.5 -36t109 -10q57 5 118.5 14t115.5 19q31 5 62 11t62 13l41 -311q-67 -18 -163.5 -36t-217.5 -32.5t-264 -23.5t-303 -9
h-153v316h36l139 2q-36 57 -50 116.5t-13 129.5q1 88 39.5 173t105 153t155.5 113t191 53q51 4 98 -0.5t89 -15t79 -25t67 -30.5q35 -19 67 -40.5t60 -46.5l-124 -237v0zM569 1243l-188 -188l-194 193l192 193l190 -190l188 188l194 -193l-192 -193zM748 1535l-178 -178
l-179 179l178 178z" />
    <glyph glyph-name="uni06A0.medi" unicode="&#x6a0;" horiz-adv-x="1147" 
d="M1164 256v-316l-34 -1q-79 0 -151.5 5t-139 19t-126 39.5t-112.5 66.5q-59 -36 -130.5 -60.5t-148 -40t-154.5 -22t-150 -6.5h-38v316h38q70 0 142 7.5t141 23.5q-34 33 -66 65.5t-64.5 65.5t-67.5 67t-76 72l16 234q59 52 122 88.5t124.5 60.5t118 37t101.5 18
q22 2 47 3.5t49 1.5q78 0 160.5 -16t149.5 -44q58 -27 97 -61t62 -68t33.5 -66t11.5 -54q3 -45 -12 -98.5t-43.5 -109t-67.5 -109t-84 -98.5q55 -10 105.5 -15t112.5 -5h34zM605 689q-24 0 -61 -3.5t-76.5 -9.5t-77.5 -14t-64 -17l275 -235q29 21 66.5 52t73.5 64.5
t65.5 66.5t43.5 58q-23 10 -54 17.5t-64.5 12t-66.5 6.5t-60 2zM584 1284l-188 -188l-194 193l192 193l190 -190l188 188l194 -193l-192 -193zM763 1576l-178 -178l-179 179l178 178z" />
    <glyph glyph-name="uni06A0.fina" unicode="&#x6a0;" horiz-adv-x="1363" 
d="M294 -218q0 -54 22.5 -99t60.5 -80.5t88 -62t105 -44t111.5 -26t107.5 -8.5q115 0 227 37.5t206 100.5l155 -249q-56 -46 -130.5 -84t-156.5 -65t-165.5 -41.5t-158.5 -13.5q-64 1 -144 12t-162 38t-160 72.5t-139 115.5t-98.5 168t-38.5 229q-1 102 32 193t91.5 169
t137 142t168.5 112q-18 16 -38 33.5t-45 38.5t-56 47t-71 61l-21 241q85 68 160 115t149 76.5t152 42.5t169 13q53 0 109 -9t109 -27t100.5 -46t82.5 -66t54.5 -86t18.5 -107q-2 -63 -22 -121.5t-56 -110t-85 -94t-107 -72.5q72 -33 143 -52t143 -19h35v-316l-35 -1
q-84 0 -162.5 17t-155 48t-151.5 74t-151 95q-46 -19 -95 -41.5t-96.5 -50t-90.5 -59t-75.5 -69t-51.5 -80t-19 -91.5zM854 782q-51 1 -101.5 -6t-96 -18.5t-84.5 -25.5t-68 -26q58 -48 121.5 -94t133.5 -86q58 19 111.5 43t94.5 50.5t66 54.5t27 57q-2 1 -15.5 8.5
t-39 16.5t-63 17t-86.5 9zM826 1339l-188 -188l-194 193l192 193l190 -190l188 188l194 -193l-192 -193zM1005 1631l-178 -178l-179 179l178 178z" />
    <glyph glyph-name="uni06A1.fina" unicode="&#x6a1;" horiz-adv-x="2106" 
d="M963 -60q-89 0 -192.5 7.5t-206.5 29t-199.5 59.5t-171.5 99t-123 148t-54 207q0 59 13 114.5t34.5 108.5t49 104.5t56.5 103.5l235 -197q-15 -21 -35 -54.5t-38.5 -70.5t-31 -74.5t-12.5 -65.5q0 -37 26.5 -66.5t74 -52t112 -38.5t140 -26t159 -15t169.5 -5q39 0 84 0.5
t85 1.5t70.5 2t41.5 2q-36 40 -65 99t-33 134q-2 59 12.5 119.5t42.5 117.5t68 106.5t89 86t105.5 56t117.5 17.5q87 -4 162 -45t129.5 -106t86 -147.5t31.5 -169.5q0 -69 -23 -135.5t-58 -126.5q48 -5 93.5 -8.5t85.5 -3.5h33v-316h-28q-62 0 -127.5 2t-130.5 10.5
t-129 24.5t-124 44q-24 -14 -66 -25.5t-95.5 -20.5t-114 -15.5t-122 -11t-120 -6.5t-106.5 -2zM1730 507q0 32 -15.5 61t-38 52t-48.5 38.5t-47 21.5q-23 -5 -52.5 -18t-56 -36.5t-44.5 -57t-18 -79.5q0 -15 15.5 -41.5t40 -54t56 -51t64.5 -33.5q25 14 51 38.5t46.5 52
t33.5 56t13 51.5z" />
    <glyph glyph-name="uni06A2.init" unicode="&#x6a2;" horiz-adv-x="925" 
d="M15 256q37 0 89.5 0.5t112 3t121.5 7.5t118.5 15t103.5 25t77 37q-131 -13 -240.5 -7t-189 42t-124 107.5t-45.5 191.5q0 55 11 113.5t33.5 115t55.5 107t76.5 88.5t97 60.5t116.5 22.5q79 0 144.5 -30t118 -81.5t92 -119.5t65.5 -143t39 -153t13 -150q0 -120 -33.5 -209
t-93.5 -152t-142.5 -103.5t-181 -63.5t-208.5 -31.5t-225 -8.5h-36v316h35zM426 867q-23 1 -47.5 -13.5t-44.5 -38.5t-33.5 -55t-13.5 -63q0 -30 18.5 -49t47.5 -30t65.5 -15.5t72 -5t66.5 1t50 3.5q-9 45 -23.5 91t-36.5 84t-52 63t-69 27zM471 -598l-222 222l222 222
l222 -222z" />
    <glyph glyph-name="uni06A2.medi" unicode="&#x6a2;" horiz-adv-x="1001" 
d="M-20 256h72q23 0 47 1.5t45 4t32 7.5q-18 20 -35 43.5t-30.5 51.5t-22.5 60.5t-11 70.5q-2 59 12.5 119.5t42.5 117.5t68 106.5t89 86t105.5 56t117.5 17.5q87 -4 162 -45t129.5 -106t86 -147.5t31.5 -169.5q0 -69 -23 -135.5t-58 -126.5q26 -6 64 -9t97 -3h20v-316h-39
q-65 0 -123.5 3.5t-115 12.5t-113 24.5t-117.5 40.5q-37 -21 -92.5 -36.5t-121.5 -25t-138 -14.5t-142 -5h-39v316zM656 507q0 32 -15.5 61t-38 52t-48.5 38.5t-47 21.5q-23 -5 -52.5 -18t-56 -36.5t-44.5 -57t-18 -79.5q0 -15 15.5 -41.5t40 -54t56 -51t64.5 -33.5
q25 14 51 38.5t46.5 52t33.5 56t13 51.5zM521 -578l-222 222l222 222l222 -222z" />
    <glyph glyph-name="uni06A2.fina" unicode="&#x6a2;" horiz-adv-x="2114" 
d="M963 -60q-89 0 -192.5 7.5t-206.5 29t-199.5 59.5t-171.5 99t-123 148t-54 207q0 59 13 114.5t34.5 108.5t49 104.5t56.5 103.5l235 -197q-15 -21 -35 -54.5t-38.5 -70.5t-31 -74.5t-12.5 -65.5q0 -37 26.5 -66.5t74 -52t112 -38.5t140 -26t159 -15t169.5 -5q39 0 84 0.5
t85 1.5t70.5 2t41.5 2q-36 40 -65 99t-33 134q-2 59 12.5 119.5t42.5 117.5t68 106.5t89 86t105.5 56t117.5 17.5q87 -4 162 -45t129.5 -106t86 -147.5t31.5 -169.5q0 -69 -23 -135.5t-58 -126.5q48 -5 93.5 -8.5t85.5 -3.5h33v-316h-28q-62 0 -127.5 2t-130.5 10.5
t-129 24.5t-124 44q-24 -14 -66 -25.5t-95.5 -20.5t-114 -15.5t-122 -11t-120 -6.5t-106.5 -2zM1730 507q0 32 -15.5 61t-38 52t-48.5 38.5t-47 21.5q-23 -5 -52.5 -18t-56 -36.5t-44.5 -57t-18 -79.5q0 -15 15.5 -41.5t40 -54t56 -51t64.5 -33.5q25 14 51 38.5t46.5 52
t33.5 56t13 51.5zM1601 -603l-222 222l222 222l222 -222z" />
    <glyph glyph-name="uni06A3.init" unicode="&#x6a3;" horiz-adv-x="936" 
d="M15 256q37 0 89.5 0.5t112 3t121.5 7.5t118.5 15t103.5 25t77 37q-131 -13 -240.5 -7t-189 42t-124 107.5t-45.5 191.5q0 55 11 113.5t33.5 115t55.5 107t76.5 88.5t97 60.5t116.5 22.5q79 0 144.5 -30t118 -81.5t92 -119.5t65.5 -143t39 -153t13 -150q0 -120 -33.5 -209
t-93.5 -152t-142.5 -103.5t-181 -63.5t-208.5 -31.5t-225 -8.5h-36v316h35zM426 867q-23 1 -47.5 -13.5t-44.5 -38.5t-33.5 -55t-13.5 -63q0 -30 18.5 -49t47.5 -30t65.5 -15.5t72 -5t66.5 1t50 3.5q-9 45 -23.5 91t-36.5 84t-52 63t-69 27zM449 1218l-222 222l222 222
l222 -222zM465 -603l-222 222l222 222l222 -222z" />
    <glyph glyph-name="uni06A3.medi" unicode="&#x6a3;" horiz-adv-x="1001" 
d="M-20 256h72q23 0 47 1.5t45 4t32 7.5q-18 20 -35 43.5t-30.5 51.5t-22.5 60.5t-11 70.5q-2 59 12.5 119.5t42.5 117.5t68 106.5t89 86t105.5 56t117.5 17.5q87 -4 162 -45t129.5 -106t86 -147.5t31.5 -169.5q0 -69 -23 -135.5t-58 -126.5q26 -6 64 -9t97 -3h20v-316h-39
q-65 0 -123.5 3.5t-115 12.5t-113 24.5t-117.5 40.5q-37 -21 -92.5 -36.5t-121.5 -25t-138 -14.5t-142 -5h-39v316zM656 507q0 32 -15.5 61t-38 52t-48.5 38.5t-47 21.5q-23 -5 -52.5 -18t-56 -36.5t-44.5 -57t-18 -79.5q0 -15 15.5 -41.5t40 -54t56 -51t64.5 -33.5
q25 14 51 38.5t46.5 52t33.5 56t13 51.5zM497 1018l-222 222l222 222l222 -222zM512 -588l-222 222l222 222l222 -222z" />
    </font>
</defs>
</svg>
